<?xml version="1.0" encoding="UTF-8"?>
<svg id="Map1_-_local_cultural_distinctiveness" data-name="Map1 - local cultural distinctiveness" xmlns="http://www.w3.org/2000/svg" viewBox="0 0 1440 900">
  <defs>
    <style>
      .cls-1 {
        fill: none;
        stroke: #ff395c;
        stroke-miterlimit: 10;
        stroke-width: .75px;
      }

      .cls-1, .cls-2, .cls-3 {
        opacity: .5;
      }

      .cls-4, .cls-2 {
        fill: #ff395c;
        stroke-width: 0px;
      }

      .cls-5 {
        opacity: .75;
      }
    </style>
  </defs>
  <g class="cls-5">
    <g>
      <rect class="cls-1" x="441.25" y="774" width="57" height="57" rx="9.3" ry="9.3"/>
      <path class="cls-2" d="M487.21,787c-.36-.3-.72-.59-1.07-.89-.37-.32-.75-.66-1.11-.99-.26-.25-.49-.53-.64-.86-.29-.63-.25-1.23.2-1.78.44-.54,1.32-.66,1.9-.13.24.22.4.5.53.79.01.03.02.05.03.08.03.08.1.11.18.11s.14-.04.18-.11c.06-.13.11-.26.18-.39.15-.27.35-.51.64-.66.34-.18.7-.2,1.05-.08.52.18.8.57.92,1.07.11.46.01.88-.23,1.29-.24.39-.54.71-.89,1.01-.6.52-1.22,1.04-1.84,1.55,0,0,0,0-.02,0h0Z"/>
      <circle class="cls-2" cx="464.75" cy="823" r="1"/>
      <g class="cls-3">
        <path class="cls-4" d="M468.08,822.25c.41,0,.75.34.75.75s-.34.75-.75.75-.75-.34-.75-.75.34-.75.75-.75M468.08,822c-.55,0-1,.45-1,1s.45,1,1,1,1-.45,1-1-.45-1-1-1h0Z"/>
      </g>
      <g class="cls-3">
        <path class="cls-4" d="M471.42,822.25c.41,0,.75.34.75.75s-.34.75-.75.75-.75-.34-.75-.75.34-.75.75-.75M471.42,822c-.55,0-1,.45-1,1s.45,1,1,1,1-.45,1-1-.45-1-1-1h0Z"/>
      </g>
      <g class="cls-3">
        <path class="cls-4" d="M474.75,822.25c.41,0,.75.34.75.75s-.34.75-.75.75-.75-.34-.75-.75.34-.75.75-.75M474.75,822c-.55,0-1,.45-1,1s.45,1,1,1,1-.45,1-1-.45-1-1-1h0Z"/>
      </g>
    </g>
    <g>
      <rect class="cls-1" x="428.25" y="684" width="57" height="57" rx="9.3" ry="9.3"/>
      <path class="cls-2" d="M474.21,697c-.36-.3-.72-.59-1.07-.89-.37-.32-.75-.66-1.11-.99-.26-.25-.49-.53-.64-.86-.29-.63-.25-1.23.2-1.78.44-.54,1.32-.66,1.9-.13.24.22.4.5.53.79.01.03.02.05.03.08.03.08.1.11.18.11s.14-.04.18-.11c.06-.13.11-.26.18-.39.15-.27.35-.51.64-.66.34-.18.7-.2,1.05-.08.52.18.8.57.92,1.07.11.46.01.88-.23,1.29-.24.39-.54.71-.89,1.01-.6.52-1.22,1.04-1.84,1.55,0,0,0,0-.02,0h0Z"/>
      <circle class="cls-2" cx="451.75" cy="733" r="1"/>
      <g class="cls-3">
        <path class="cls-4" d="M455.08,732.25c.41,0,.75.34.75.75s-.34.75-.75.75-.75-.34-.75-.75.34-.75.75-.75M455.08,732c-.55,0-1,.45-1,1s.45,1,1,1,1-.45,1-1-.45-1-1-1h0Z"/>
      </g>
      <g class="cls-3">
        <path class="cls-4" d="M458.42,732.25c.41,0,.75.34.75.75s-.34.75-.75.75-.75-.34-.75-.75.34-.75.75-.75M458.42,732c-.55,0-1,.45-1,1s.45,1,1,1,1-.45,1-1-.45-1-1-1h0Z"/>
      </g>
      <g class="cls-3">
        <path class="cls-4" d="M461.75,732.25c.41,0,.75.34.75.75s-.34.75-.75.75-.75-.34-.75-.75.34-.75.75-.75M461.75,732c-.55,0-1,.45-1,1s.45,1,1,1,1-.45,1-1-.45-1-1-1h0Z"/>
      </g>
    </g>
    <g>
      <rect class="cls-1" x="517.25" y="672" width="57" height="57" rx="9.3" ry="9.3"/>
      <path class="cls-2" d="M563.21,685c-.36-.3-.72-.59-1.07-.89-.37-.32-.75-.66-1.11-.99-.26-.25-.49-.53-.64-.86-.29-.63-.25-1.23.2-1.78.44-.54,1.32-.66,1.9-.13.24.22.4.5.53.79.01.03.02.05.03.08.03.08.1.11.18.11s.14-.04.18-.11c.06-.13.11-.26.18-.39.15-.27.35-.51.64-.66.34-.18.7-.2,1.05-.08.52.18.8.57.92,1.07.11.46.01.88-.23,1.29-.24.39-.54.71-.89,1.01-.6.52-1.22,1.04-1.84,1.55,0,0,0,0-.02,0h0Z"/>
      <circle class="cls-2" cx="540.75" cy="721" r="1"/>
      <g class="cls-3">
        <path class="cls-4" d="M544.08,720.25c.41,0,.75.34.75.75s-.34.75-.75.75-.75-.34-.75-.75.34-.75.75-.75M544.08,720c-.55,0-1,.45-1,1s.45,1,1,1,1-.45,1-1-.45-1-1-1h0Z"/>
      </g>
      <g class="cls-3">
        <path class="cls-4" d="M547.42,720.25c.41,0,.75.34.75.75s-.34.75-.75.75-.75-.34-.75-.75.34-.75.75-.75M547.42,720c-.55,0-1,.45-1,1s.45,1,1,1,1-.45,1-1-.45-1-1-1h0Z"/>
      </g>
      <g class="cls-3">
        <path class="cls-4" d="M550.75,720.25c.41,0,.75.34.75.75s-.34.75-.75.75-.75-.34-.75-.75.34-.75.75-.75M550.75,720c-.55,0-1,.45-1,1s.45,1,1,1,1-.45,1-1-.45-1-1-1h0Z"/>
      </g>
    </g>
    <g>
      <rect class="cls-1" x="428.25" y="608" width="57" height="57" rx="9.3" ry="9.3"/>
      <path class="cls-2" d="M474.21,621c-.36-.3-.72-.59-1.07-.89-.37-.32-.75-.66-1.11-.99-.26-.25-.49-.53-.64-.86-.29-.63-.25-1.23.2-1.78.44-.54,1.32-.66,1.9-.13.24.22.4.5.53.79.01.03.02.05.03.08.03.08.1.11.18.11s.14-.04.18-.11c.06-.13.11-.26.18-.39.15-.27.35-.51.64-.66.34-.18.7-.2,1.05-.08.52.18.8.57.92,1.07.11.46.01.88-.23,1.29-.24.39-.54.71-.89,1.01-.6.52-1.22,1.04-1.84,1.55,0,0,0,0-.02,0h0Z"/>
      <circle class="cls-2" cx="451.75" cy="657" r="1"/>
      <g class="cls-3">
        <path class="cls-4" d="M455.08,656.25c.41,0,.75.34.75.75s-.34.75-.75.75-.75-.34-.75-.75.34-.75.75-.75M455.08,656c-.55,0-1,.45-1,1s.45,1,1,1,1-.45,1-1-.45-1-1-1h0Z"/>
      </g>
      <g class="cls-3">
        <path class="cls-4" d="M458.42,656.25c.41,0,.75.34.75.75s-.34.75-.75.75-.75-.34-.75-.75.34-.75.75-.75M458.42,656c-.55,0-1,.45-1,1s.45,1,1,1,1-.45,1-1-.45-1-1-1h0Z"/>
      </g>
      <g class="cls-3">
        <path class="cls-4" d="M461.75,656.25c.41,0,.75.34.75.75s-.34.75-.75.75-.75-.34-.75-.75.34-.75.75-.75M461.75,656c-.55,0-1,.45-1,1s.45,1,1,1,1-.45,1-1-.45-1-1-1h0Z"/>
      </g>
    </g>
    <g>
      <rect class="cls-1" x="530.25" y="596" width="57" height="57" rx="9.3" ry="9.3"/>
      <path class="cls-2" d="M576.21,609c-.36-.3-.72-.59-1.07-.89-.37-.32-.75-.66-1.11-.99-.26-.25-.49-.53-.64-.86-.29-.63-.25-1.23.2-1.78.44-.54,1.32-.66,1.9-.13.24.22.4.5.53.79.01.03.02.05.03.08.03.08.1.11.18.11s.14-.04.18-.11c.06-.13.11-.26.18-.39.15-.27.35-.51.64-.66.34-.18.7-.2,1.05-.08.52.18.8.57.92,1.07.11.46.01.88-.23,1.29-.24.39-.54.71-.89,1.01-.6.52-1.22,1.04-1.84,1.55,0,0,0,0-.02,0h0Z"/>
      <circle class="cls-2" cx="553.75" cy="645" r="1"/>
      <g class="cls-3">
        <path class="cls-4" d="M557.08,644.25c.41,0,.75.34.75.75s-.34.75-.75.75-.75-.34-.75-.75.34-.75.75-.75M557.08,644c-.55,0-1,.45-1,1s.45,1,1,1,1-.45,1-1-.45-1-1-1h0Z"/>
      </g>
      <g class="cls-3">
        <path class="cls-4" d="M560.42,644.25c.41,0,.75.34.75.75s-.34.75-.75.75-.75-.34-.75-.75.34-.75.75-.75M560.42,644c-.55,0-1,.45-1,1s.45,1,1,1,1-.45,1-1-.45-1-1-1h0Z"/>
      </g>
      <g class="cls-3">
        <path class="cls-4" d="M563.75,644.25c.41,0,.75.34.75.75s-.34.75-.75.75-.75-.34-.75-.75.34-.75.75-.75M563.75,644c-.55,0-1,.45-1,1s.45,1,1,1,1-.45,1-1-.45-1-1-1h0Z"/>
      </g>
    </g>
    <g>
      <rect class="cls-1" x="464.25" y="533" width="57" height="57" rx="9.3" ry="9.3"/>
      <path class="cls-2" d="M510.21,546c-.36-.3-.72-.59-1.07-.89-.37-.32-.75-.66-1.11-.99-.26-.25-.49-.53-.64-.86-.29-.63-.25-1.23.2-1.78.44-.54,1.32-.66,1.9-.13.24.22.4.5.53.79.01.03.02.05.03.08.03.08.1.11.18.11s.14-.04.18-.11c.06-.13.11-.26.18-.39.15-.27.35-.51.64-.66.34-.18.7-.2,1.05-.08.52.18.8.57.92,1.07.11.46.01.88-.23,1.29-.24.39-.54.71-.89,1.01-.6.52-1.22,1.04-1.84,1.55,0,0,0,0-.02,0h0Z"/>
      <circle class="cls-2" cx="487.75" cy="582" r="1"/>
      <g class="cls-3">
        <path class="cls-4" d="M491.08,581.25c.41,0,.75.34.75.75s-.34.75-.75.75-.75-.34-.75-.75.34-.75.75-.75M491.08,581c-.55,0-1,.45-1,1s.45,1,1,1,1-.45,1-1-.45-1-1-1h0Z"/>
      </g>
      <g class="cls-3">
        <path class="cls-4" d="M494.42,581.25c.41,0,.75.34.75.75s-.34.75-.75.75-.75-.34-.75-.75.34-.75.75-.75M494.42,581c-.55,0-1,.45-1,1s.45,1,1,1,1-.45,1-1-.45-1-1-1h0Z"/>
      </g>
      <g class="cls-3">
        <path class="cls-4" d="M497.75,581.25c.41,0,.75.34.75.75s-.34.75-.75.75-.75-.34-.75-.75.34-.75.75-.75M497.75,581c-.55,0-1,.45-1,1s.45,1,1,1,1-.45,1-1-.45-1-1-1h0Z"/>
      </g>
    </g>
    <g>
      <rect class="cls-1" x="385.25" y="482" width="57" height="57" rx="9.3" ry="9.3"/>
      <path class="cls-2" d="M431.21,495c-.36-.3-.72-.59-1.07-.89-.37-.32-.75-.66-1.11-.99-.26-.25-.49-.53-.64-.86-.29-.63-.25-1.23.2-1.78.44-.54,1.32-.66,1.9-.13.24.22.4.5.53.79.01.03.02.05.03.08.03.08.1.11.18.11s.14-.04.18-.11c.06-.13.11-.26.18-.39.15-.27.35-.51.64-.66.34-.18.7-.2,1.05-.08.52.18.8.57.92,1.07.11.46.01.88-.23,1.29-.24.39-.54.71-.89,1.01-.6.52-1.22,1.04-1.84,1.55,0,0,0,0-.02,0h0Z"/>
      <circle class="cls-2" cx="408.75" cy="531" r="1"/>
      <g class="cls-3">
        <path class="cls-4" d="M412.08,530.25c.41,0,.75.34.75.75s-.34.75-.75.75-.75-.34-.75-.75.34-.75.75-.75M412.08,530c-.55,0-1,.45-1,1s.45,1,1,1,1-.45,1-1-.45-1-1-1h0Z"/>
      </g>
      <g class="cls-3">
        <path class="cls-4" d="M415.42,530.25c.41,0,.75.34.75.75s-.34.75-.75.75-.75-.34-.75-.75.34-.75.75-.75M415.42,530c-.55,0-1,.45-1,1s.45,1,1,1,1-.45,1-1-.45-1-1-1h0Z"/>
      </g>
      <g class="cls-3">
        <path class="cls-4" d="M418.75,530.25c.41,0,.75.34.75.75s-.34.75-.75.75-.75-.34-.75-.75.34-.75.75-.75M418.75,530c-.55,0-1,.45-1,1s.45,1,1,1,1-.45,1-1-.45-1-1-1h0Z"/>
      </g>
    </g>
    <g>
      <rect class="cls-1" x="307.25" y="495" width="57" height="57" rx="9.3" ry="9.3"/>
      <path class="cls-2" d="M353.21,508c-.36-.3-.72-.59-1.07-.89-.37-.32-.75-.66-1.11-.99-.26-.25-.49-.53-.64-.86-.29-.63-.25-1.23.2-1.78.44-.54,1.32-.66,1.9-.13.24.22.4.5.53.79.01.03.02.05.03.08.03.08.1.11.18.11s.14-.04.18-.11c.06-.13.11-.26.18-.39.15-.27.35-.51.64-.66.34-.18.7-.2,1.05-.08.52.18.8.57.92,1.07.11.46.01.88-.23,1.29-.24.39-.54.71-.89,1.01-.6.52-1.22,1.04-1.84,1.55,0,0,0,0-.02,0h0Z"/>
      <circle class="cls-2" cx="330.75" cy="544" r="1"/>
      <g class="cls-3">
        <path class="cls-4" d="M334.08,543.25c.41,0,.75.34.75.75s-.34.75-.75.75-.75-.34-.75-.75.34-.75.75-.75M334.08,543c-.55,0-1,.45-1,1s.45,1,1,1,1-.45,1-1-.45-1-1-1h0Z"/>
      </g>
      <g class="cls-3">
        <path class="cls-4" d="M337.42,543.25c.41,0,.75.34.75.75s-.34.75-.75.75-.75-.34-.75-.75.34-.75.75-.75M337.42,543c-.55,0-1,.45-1,1s.45,1,1,1,1-.45,1-1-.45-1-1-1h0Z"/>
      </g>
      <g class="cls-3">
        <path class="cls-4" d="M340.75,543.25c.41,0,.75.34.75.75s-.34.75-.75.75-.75-.34-.75-.75.34-.75.75-.75M340.75,543c-.55,0-1,.45-1,1s.45,1,1,1,1-.45,1-1-.45-1-1-1h0Z"/>
      </g>
    </g>
    <g>
      <rect class="cls-1" x="268.25" y="420" width="57" height="57" rx="9.3" ry="9.3"/>
      <path class="cls-2" d="M314.21,433c-.36-.3-.72-.59-1.07-.89-.37-.32-.75-.66-1.11-.99-.26-.25-.49-.53-.64-.86-.29-.63-.25-1.23.2-1.78.44-.54,1.32-.66,1.9-.13.24.22.4.5.53.79.01.03.02.05.03.08.03.08.1.11.18.11s.14-.04.18-.11c.06-.13.11-.26.18-.39.15-.27.35-.51.64-.66.34-.18.7-.2,1.05-.08.52.18.8.57.92,1.07.11.46.01.88-.23,1.29-.24.39-.54.71-.89,1.01-.6.52-1.22,1.04-1.84,1.55,0,0,0,0-.02,0h0Z"/>
      <circle class="cls-2" cx="291.75" cy="469" r="1"/>
      <g class="cls-3">
        <path class="cls-4" d="M295.08,468.25c.41,0,.75.34.75.75s-.34.75-.75.75-.75-.34-.75-.75.34-.75.75-.75M295.08,468c-.55,0-1,.45-1,1s.45,1,1,1,1-.45,1-1-.45-1-1-1h0Z"/>
      </g>
      <g class="cls-3">
        <path class="cls-4" d="M298.42,468.25c.41,0,.75.34.75.75s-.34.75-.75.75-.75-.34-.75-.75.34-.75.75-.75M298.42,468c-.55,0-1,.45-1,1s.45,1,1,1,1-.45,1-1-.45-1-1-1h0Z"/>
      </g>
      <g class="cls-3">
        <path class="cls-4" d="M301.75,468.25c.41,0,.75.34.75.75s-.34.75-.75.75-.75-.34-.75-.75.34-.75.75-.75M301.75,468c-.55,0-1,.45-1,1s.45,1,1,1,1-.45,1-1-.45-1-1-1h0Z"/>
      </g>
    </g>
    <g>
      <rect class="cls-1" x="361.25" y="404" width="57" height="57" rx="9.3" ry="9.3"/>
      <path class="cls-2" d="M407.21,417c-.36-.3-.72-.59-1.07-.89-.37-.32-.75-.66-1.11-.99-.26-.25-.49-.53-.64-.86-.29-.63-.25-1.23.2-1.78.44-.54,1.32-.66,1.9-.13.24.22.4.5.53.79.01.03.02.05.03.08.03.08.1.11.18.11s.14-.04.18-.11c.06-.13.11-.26.18-.39.15-.27.35-.51.64-.66.34-.18.7-.2,1.05-.08.52.18.8.57.92,1.07.11.46.01.88-.23,1.29-.24.39-.54.71-.89,1.01-.6.52-1.22,1.04-1.84,1.55,0,0,0,0-.02,0h0Z"/>
      <circle class="cls-2" cx="384.75" cy="453" r="1"/>
      <g class="cls-3">
        <path class="cls-4" d="M388.08,452.25c.41,0,.75.34.75.75s-.34.75-.75.75-.75-.34-.75-.75.34-.75.75-.75M388.08,452c-.55,0-1,.45-1,1s.45,1,1,1,1-.45,1-1-.45-1-1-1h0Z"/>
      </g>
      <g class="cls-3">
        <path class="cls-4" d="M391.42,452.25c.41,0,.75.34.75.75s-.34.75-.75.75-.75-.34-.75-.75.34-.75.75-.75M391.42,452c-.55,0-1,.45-1,1s.45,1,1,1,1-.45,1-1-.45-1-1-1h0Z"/>
      </g>
      <g class="cls-3">
        <path class="cls-4" d="M394.75,452.25c.41,0,.75.34.75.75s-.34.75-.75.75-.75-.34-.75-.75.34-.75.75-.75M394.75,452c-.55,0-1,.45-1,1s.45,1,1,1,1-.45,1-1-.45-1-1-1h0Z"/>
      </g>
    </g>
    <g>
      <rect class="cls-1" x="325.25" y="320" width="57" height="57" rx="9.3" ry="9.3"/>
      <path class="cls-2" d="M371.21,333c-.36-.3-.72-.59-1.07-.89-.37-.32-.75-.66-1.11-.99-.26-.25-.49-.53-.64-.86-.29-.63-.25-1.23.2-1.78.44-.54,1.32-.66,1.9-.13.24.22.4.5.53.79.01.03.02.05.03.08.03.08.1.11.18.11s.14-.04.18-.11c.06-.13.11-.26.18-.39.15-.27.35-.51.64-.66.34-.18.7-.2,1.05-.08.52.18.8.57.92,1.07.11.46.01.88-.23,1.29-.24.39-.54.71-.89,1.01-.6.52-1.22,1.04-1.84,1.55,0,0,0,0-.02,0h0Z"/>
      <circle class="cls-2" cx="348.75" cy="369" r="1"/>
      <g class="cls-3">
        <path class="cls-4" d="M352.08,368.25c.41,0,.75.34.75.75s-.34.75-.75.75-.75-.34-.75-.75.34-.75.75-.75M352.08,368c-.55,0-1,.45-1,1s.45,1,1,1,1-.45,1-1-.45-1-1-1h0Z"/>
      </g>
      <g class="cls-3">
        <path class="cls-4" d="M355.42,368.25c.41,0,.75.34.75.75s-.34.75-.75.75-.75-.34-.75-.75.34-.75.75-.75M355.42,368c-.55,0-1,.45-1,1s.45,1,1,1,1-.45,1-1-.45-1-1-1h0Z"/>
      </g>
      <g class="cls-3">
        <path class="cls-4" d="M358.75,368.25c.41,0,.75.34.75.75s-.34.75-.75.75-.75-.34-.75-.75.34-.75.75-.75M358.75,368c-.55,0-1,.45-1,1s.45,1,1,1,1-.45,1-1-.45-1-1-1h0Z"/>
      </g>
    </g>
    <g>
      <rect class="cls-1" x="239.25" y="349" width="57" height="57" rx="9.3" ry="9.3"/>
      <path class="cls-2" d="M285.21,362c-.36-.3-.72-.59-1.07-.89-.37-.32-.75-.66-1.11-.99-.26-.25-.49-.53-.64-.86-.29-.63-.25-1.23.2-1.78.44-.54,1.32-.66,1.9-.13.24.22.4.5.53.79.01.03.02.05.03.08.03.08.1.11.18.11s.14-.04.18-.11c.06-.13.11-.26.18-.39.15-.27.35-.51.64-.66.34-.18.7-.2,1.05-.08.52.18.8.57.92,1.07.11.46.01.88-.23,1.29-.24.39-.54.71-.89,1.01-.6.52-1.22,1.04-1.84,1.55,0,0,0,0-.02,0h0Z"/>
      <circle class="cls-2" cx="262.75" cy="398" r="1"/>
      <g class="cls-3">
        <path class="cls-4" d="M266.08,397.25c.41,0,.75.34.75.75s-.34.75-.75.75-.75-.34-.75-.75.34-.75.75-.75M266.08,397c-.55,0-1,.45-1,1s.45,1,1,1,1-.45,1-1-.45-1-1-1h0Z"/>
      </g>
      <g class="cls-3">
        <path class="cls-4" d="M269.42,397.25c.41,0,.75.34.75.75s-.34.75-.75.75-.75-.34-.75-.75.34-.75.75-.75M269.42,397c-.55,0-1,.45-1,1s.45,1,1,1,1-.45,1-1-.45-1-1-1h0Z"/>
      </g>
      <g class="cls-3">
        <path class="cls-4" d="M272.75,397.25c.41,0,.75.34.75.75s-.34.75-.75.75-.75-.34-.75-.75.34-.75.75-.75M272.75,397c-.55,0-1,.45-1,1s.45,1,1,1,1-.45,1-1-.45-1-1-1h0Z"/>
      </g>
    </g>
    <g>
      <rect class="cls-1" x="239.25" y="273" width="57" height="57" rx="9.3" ry="9.3"/>
      <path class="cls-2" d="M285.21,286c-.36-.3-.72-.59-1.07-.89-.37-.32-.75-.66-1.11-.99-.26-.25-.49-.53-.64-.86-.29-.63-.25-1.23.2-1.78.44-.54,1.32-.66,1.9-.13.24.22.4.5.53.79.01.03.02.05.03.08.03.08.1.11.18.11s.14-.04.18-.11c.06-.13.11-.26.18-.39.15-.27.35-.51.64-.66.34-.18.7-.2,1.05-.08.52.18.8.57.92,1.07.11.46.01.88-.23,1.29-.24.39-.54.71-.89,1.01-.6.52-1.22,1.04-1.84,1.55,0,0,0,0-.02,0h0Z"/>
      <circle class="cls-2" cx="262.75" cy="322" r="1"/>
      <g class="cls-3">
        <path class="cls-4" d="M266.08,321.25c.41,0,.75.34.75.75s-.34.75-.75.75-.75-.34-.75-.75.34-.75.75-.75M266.08,321c-.55,0-1,.45-1,1s.45,1,1,1,1-.45,1-1-.45-1-1-1h0Z"/>
      </g>
      <g class="cls-3">
        <path class="cls-4" d="M269.42,321.25c.41,0,.75.34.75.75s-.34.75-.75.75-.75-.34-.75-.75.34-.75.75-.75M269.42,321c-.55,0-1,.45-1,1s.45,1,1,1,1-.45,1-1-.45-1-1-1h0Z"/>
      </g>
      <g class="cls-3">
        <path class="cls-4" d="M272.75,321.25c.41,0,.75.34.75.75s-.34.75-.75.75-.75-.34-.75-.75.34-.75.75-.75M272.75,321c-.55,0-1,.45-1,1s.45,1,1,1,1-.45,1-1-.45-1-1-1h0Z"/>
      </g>
    </g>
    <g>
      <rect class="cls-1" x="157.25" y="267" width="57" height="57" rx="9.3" ry="9.3"/>
      <path class="cls-2" d="M203.21,280c-.36-.3-.72-.59-1.07-.89-.37-.32-.75-.66-1.11-.99-.26-.25-.49-.53-.64-.86-.29-.63-.25-1.23.2-1.78.44-.54,1.32-.66,1.9-.13.24.22.4.5.53.79.01.03.02.05.03.08.03.08.1.11.18.11s.14-.04.18-.11c.06-.13.11-.26.18-.39.15-.27.35-.51.64-.66.34-.18.7-.2,1.05-.08.52.18.8.57.92,1.07.11.46.01.88-.23,1.29-.24.39-.54.71-.89,1.01-.6.52-1.22,1.04-1.84,1.55,0,0,0,0-.02,0h0Z"/>
      <circle class="cls-2" cx="180.75" cy="316" r="1"/>
      <g class="cls-3">
        <path class="cls-4" d="M184.08,315.25c.41,0,.75.34.75.75s-.34.75-.75.75-.75-.34-.75-.75.34-.75.75-.75M184.08,315c-.55,0-1,.45-1,1s.45,1,1,1,1-.45,1-1-.45-1-1-1h0Z"/>
      </g>
      <g class="cls-3">
        <path class="cls-4" d="M187.42,315.25c.41,0,.75.34.75.75s-.34.75-.75.75-.75-.34-.75-.75.34-.75.75-.75M187.42,315c-.55,0-1,.45-1,1s.45,1,1,1,1-.45,1-1-.45-1-1-1h0Z"/>
      </g>
      <g class="cls-3">
        <path class="cls-4" d="M190.75,315.25c.41,0,.75.34.75.75s-.34.75-.75.75-.75-.34-.75-.75.34-.75.75-.75M190.75,315c-.55,0-1,.45-1,1s.45,1,1,1,1-.45,1-1-.45-1-1-1h0Z"/>
      </g>
    </g>
    <g>
      <rect class="cls-1" x="160.25" y="353" width="57" height="57" rx="9.3" ry="9.3"/>
      <path class="cls-2" d="M206.21,366c-.36-.3-.72-.59-1.07-.89-.37-.32-.75-.66-1.11-.99-.26-.25-.49-.53-.64-.86-.29-.63-.25-1.23.2-1.78.44-.54,1.32-.66,1.9-.13.24.22.4.5.53.79.01.03.02.05.03.08.03.08.1.11.18.11s.14-.04.18-.11c.06-.13.11-.26.18-.39.15-.27.35-.51.64-.66.34-.18.7-.2,1.05-.08.52.18.8.57.92,1.07.11.46.01.88-.23,1.29-.24.39-.54.71-.89,1.01-.6.52-1.22,1.04-1.84,1.55,0,0,0,0-.02,0h0Z"/>
      <circle class="cls-2" cx="183.75" cy="402" r="1"/>
      <g class="cls-3">
        <path class="cls-4" d="M187.08,401.25c.41,0,.75.34.75.75s-.34.75-.75.75-.75-.34-.75-.75.34-.75.75-.75M187.08,401c-.55,0-1,.45-1,1s.45,1,1,1,1-.45,1-1-.45-1-1-1h0Z"/>
      </g>
      <g class="cls-3">
        <path class="cls-4" d="M190.42,401.25c.41,0,.75.34.75.75s-.34.75-.75.75-.75-.34-.75-.75.34-.75.75-.75M190.42,401c-.55,0-1,.45-1,1s.45,1,1,1,1-.45,1-1-.45-1-1-1h0Z"/>
      </g>
      <g class="cls-3">
        <path class="cls-4" d="M193.75,401.25c.41,0,.75.34.75.75s-.34.75-.75.75-.75-.34-.75-.75.34-.75.75-.75M193.75,401c-.55,0-1,.45-1,1s.45,1,1,1,1-.45,1-1-.45-1-1-1h0Z"/>
      </g>
    </g>
    <g>
      <rect class="cls-1" x="460.25" y="410" width="57" height="57" rx="9.3" ry="9.3"/>
      <path class="cls-2" d="M506.21,423c-.36-.3-.72-.59-1.07-.89-.37-.32-.75-.66-1.11-.99-.26-.25-.49-.53-.64-.86-.29-.63-.25-1.23.2-1.78.44-.54,1.32-.66,1.9-.13.24.22.4.5.53.79.01.03.02.05.03.08.03.08.1.11.18.11s.14-.04.18-.11c.06-.13.11-.26.18-.39.15-.27.35-.51.64-.66.34-.18.7-.2,1.05-.08.52.18.8.57.92,1.07.11.46.01.88-.23,1.29-.24.39-.54.71-.89,1.01-.6.52-1.22,1.04-1.84,1.55,0,0,0,0-.02,0h0Z"/>
      <circle class="cls-2" cx="483.75" cy="459" r="1"/>
      <g class="cls-3">
        <path class="cls-4" d="M487.08,458.25c.41,0,.75.34.75.75s-.34.75-.75.75-.75-.34-.75-.75.34-.75.75-.75M487.08,458c-.55,0-1,.45-1,1s.45,1,1,1,1-.45,1-1-.45-1-1-1h0Z"/>
      </g>
      <g class="cls-3">
        <path class="cls-4" d="M490.42,458.25c.41,0,.75.34.75.75s-.34.75-.75.75-.75-.34-.75-.75.34-.75.75-.75M490.42,458c-.55,0-1,.45-1,1s.45,1,1,1,1-.45,1-1-.45-1-1-1h0Z"/>
      </g>
      <g class="cls-3">
        <path class="cls-4" d="M493.75,458.25c.41,0,.75.34.75.75s-.34.75-.75.75-.75-.34-.75-.75.34-.75.75-.75M493.75,458c-.55,0-1,.45-1,1s.45,1,1,1,1-.45,1-1-.45-1-1-1h0Z"/>
      </g>
    </g>
    <g>
      <rect class="cls-1" x="428.25" y="325" width="57" height="57" rx="9.3" ry="9.3"/>
      <path class="cls-2" d="M474.21,338c-.36-.3-.72-.59-1.07-.89-.37-.32-.75-.66-1.11-.99-.26-.25-.49-.53-.64-.86-.29-.63-.25-1.23.2-1.78.44-.54,1.32-.66,1.9-.13.24.22.4.5.53.79.01.03.02.05.03.08.03.08.1.11.18.11s.14-.04.18-.11c.06-.13.11-.26.18-.39.15-.27.35-.51.64-.66.34-.18.7-.2,1.05-.08.52.18.8.57.92,1.07.11.46.01.88-.23,1.29-.24.39-.54.71-.89,1.01-.6.52-1.22,1.04-1.84,1.55,0,0,0,0-.02,0h0Z"/>
      <circle class="cls-2" cx="451.75" cy="374" r="1"/>
      <g class="cls-3">
        <path class="cls-4" d="M455.08,373.25c.41,0,.75.34.75.75s-.34.75-.75.75-.75-.34-.75-.75.34-.75.75-.75M455.08,373c-.55,0-1,.45-1,1s.45,1,1,1,1-.45,1-1-.45-1-1-1h0Z"/>
      </g>
      <g class="cls-3">
        <path class="cls-4" d="M458.42,373.25c.41,0,.75.34.75.75s-.34.75-.75.75-.75-.34-.75-.75.34-.75.75-.75M458.42,373c-.55,0-1,.45-1,1s.45,1,1,1,1-.45,1-1-.45-1-1-1h0Z"/>
      </g>
      <g class="cls-3">
        <path class="cls-4" d="M461.75,373.25c.41,0,.75.34.75.75s-.34.75-.75.75-.75-.34-.75-.75.34-.75.75-.75M461.75,373c-.55,0-1,.45-1,1s.45,1,1,1,1-.45,1-1-.45-1-1-1h0Z"/>
      </g>
    </g>
    <g>
      <rect class="cls-1" x="513.25" y="318" width="57" height="57" rx="9.3" ry="9.3"/>
      <path class="cls-2" d="M559.21,331c-.36-.3-.72-.59-1.07-.89-.37-.32-.75-.66-1.11-.99-.26-.25-.49-.53-.64-.86-.29-.63-.25-1.23.2-1.78.44-.54,1.32-.66,1.9-.13.24.22.4.5.53.79.01.03.02.05.03.08.03.08.1.11.18.11s.14-.04.18-.11c.06-.13.11-.26.18-.39.15-.27.35-.51.64-.66.34-.18.7-.2,1.05-.08.52.18.8.57.92,1.07.11.46.01.88-.23,1.29-.24.39-.54.71-.89,1.01-.6.52-1.22,1.04-1.84,1.55,0,0,0,0-.02,0h0Z"/>
      <circle class="cls-2" cx="536.75" cy="367" r="1"/>
      <g class="cls-3">
        <path class="cls-4" d="M540.08,366.25c.41,0,.75.34.75.75s-.34.75-.75.75-.75-.34-.75-.75.34-.75.75-.75M540.08,366c-.55,0-1,.45-1,1s.45,1,1,1,1-.45,1-1-.45-1-1-1h0Z"/>
      </g>
      <g class="cls-3">
        <path class="cls-4" d="M543.42,366.25c.41,0,.75.34.75.75s-.34.75-.75.75-.75-.34-.75-.75.34-.75.75-.75M543.42,366c-.55,0-1,.45-1,1s.45,1,1,1,1-.45,1-1-.45-1-1-1h0Z"/>
      </g>
      <g class="cls-3">
        <path class="cls-4" d="M546.75,366.25c.41,0,.75.34.75.75s-.34.75-.75.75-.75-.34-.75-.75.34-.75.75-.75M546.75,366c-.55,0-1,.45-1,1s.45,1,1,1,1-.45,1-1-.45-1-1-1h0Z"/>
      </g>
    </g>
    <g>
      <rect class="cls-1" x="576.25" y="226" width="57" height="57" rx="9.3" ry="9.3"/>
      <path class="cls-2" d="M622.21,239c-.36-.3-.72-.59-1.07-.89-.37-.32-.75-.66-1.11-.99-.26-.25-.49-.53-.64-.86-.29-.63-.25-1.23.2-1.78.44-.54,1.32-.66,1.9-.13.24.22.4.5.53.79.01.03.02.05.03.08.03.08.1.11.18.11s.14-.04.18-.11c.06-.13.11-.26.18-.39.15-.27.35-.51.64-.66.34-.18.7-.2,1.05-.08.52.18.8.57.92,1.07.11.46.01.88-.23,1.29-.24.39-.54.71-.89,1.01-.6.52-1.22,1.04-1.84,1.55,0,0,0,0-.02,0h0Z"/>
      <circle class="cls-2" cx="599.75" cy="275" r="1"/>
      <g class="cls-3">
        <path class="cls-4" d="M603.08,274.25c.41,0,.75.34.75.75s-.34.75-.75.75-.75-.34-.75-.75.34-.75.75-.75M603.08,274c-.55,0-1,.45-1,1s.45,1,1,1,1-.45,1-1-.45-1-1-1h0Z"/>
      </g>
      <g class="cls-3">
        <path class="cls-4" d="M606.42,274.25c.41,0,.75.34.75.75s-.34.75-.75.75-.75-.34-.75-.75.34-.75.75-.75M606.42,274c-.55,0-1,.45-1,1s.45,1,1,1,1-.45,1-1-.45-1-1-1h0Z"/>
      </g>
      <g class="cls-3">
        <path class="cls-4" d="M609.75,274.25c.41,0,.75.34.75.75s-.34.75-.75.75-.75-.34-.75-.75.34-.75.75-.75M609.75,274c-.55,0-1,.45-1,1s.45,1,1,1,1-.45,1-1-.45-1-1-1h0Z"/>
      </g>
    </g>
    <g>
      <rect class="cls-1" x="492.25" y="236" width="57" height="57" rx="9.3" ry="9.3"/>
      <path class="cls-2" d="M538.21,249c-.36-.3-.72-.59-1.07-.89-.37-.32-.75-.66-1.11-.99-.26-.25-.49-.53-.64-.86-.29-.63-.25-1.23.2-1.78.44-.54,1.32-.66,1.9-.13.24.22.4.5.53.79.01.03.02.05.03.08.03.08.1.11.18.11s.14-.04.18-.11c.06-.13.11-.26.18-.39.15-.27.35-.51.64-.66.34-.18.7-.2,1.05-.08.52.18.8.57.92,1.07.11.46.01.88-.23,1.29-.24.39-.54.71-.89,1.01-.6.52-1.22,1.04-1.84,1.55,0,0,0,0-.02,0h0Z"/>
      <circle class="cls-2" cx="515.75" cy="285" r="1"/>
      <g class="cls-3">
        <path class="cls-4" d="M519.08,284.25c.41,0,.75.34.75.75s-.34.75-.75.75-.75-.34-.75-.75.34-.75.75-.75M519.08,284c-.55,0-1,.45-1,1s.45,1,1,1,1-.45,1-1-.45-1-1-1h0Z"/>
      </g>
      <g class="cls-3">
        <path class="cls-4" d="M522.42,284.25c.41,0,.75.34.75.75s-.34.75-.75.75-.75-.34-.75-.75.34-.75.75-.75M522.42,284c-.55,0-1,.45-1,1s.45,1,1,1,1-.45,1-1-.45-1-1-1h0Z"/>
      </g>
      <g class="cls-3">
        <path class="cls-4" d="M525.75,284.25c.41,0,.75.34.75.75s-.34.75-.75.75-.75-.34-.75-.75.34-.75.75-.75M525.75,284c-.55,0-1,.45-1,1s.45,1,1,1,1-.45,1-1-.45-1-1-1h0Z"/>
      </g>
    </g>
    <g>
      <rect class="cls-1" x="412.25" y="237" width="57" height="57" rx="9.3" ry="9.3"/>
      <path class="cls-2" d="M458.21,250c-.36-.3-.72-.59-1.07-.89-.37-.32-.75-.66-1.11-.99-.26-.25-.49-.53-.64-.86-.29-.63-.25-1.23.2-1.78.44-.54,1.32-.66,1.9-.13.24.22.4.5.53.79.01.03.02.05.03.08.03.08.1.11.18.11s.14-.04.18-.11c.06-.13.11-.26.18-.39.15-.27.35-.51.64-.66.34-.18.7-.2,1.05-.08.52.18.8.57.92,1.07.11.46.01.88-.23,1.29-.24.39-.54.71-.89,1.01-.6.52-1.22,1.04-1.84,1.55,0,0,0,0-.02,0h0Z"/>
      <circle class="cls-2" cx="435.75" cy="286" r="1"/>
      <g class="cls-3">
        <path class="cls-4" d="M439.08,285.25c.41,0,.75.34.75.75s-.34.75-.75.75-.75-.34-.75-.75.34-.75.75-.75M439.08,285c-.55,0-1,.45-1,1s.45,1,1,1,1-.45,1-1-.45-1-1-1h0Z"/>
      </g>
      <g class="cls-3">
        <path class="cls-4" d="M442.42,285.25c.41,0,.75.34.75.75s-.34.75-.75.75-.75-.34-.75-.75.34-.75.75-.75M442.42,285c-.55,0-1,.45-1,1s.45,1,1,1,1-.45,1-1-.45-1-1-1h0Z"/>
      </g>
      <g class="cls-3">
        <path class="cls-4" d="M445.75,285.25c.41,0,.75.34.75.75s-.34.75-.75.75-.75-.34-.75-.75.34-.75.75-.75M445.75,285c-.55,0-1,.45-1,1s.45,1,1,1,1-.45,1-1-.45-1-1-1h0Z"/>
      </g>
    </g>
    <g>
      <rect class="cls-1" x="324.25" y="231" width="57" height="57" rx="9.3" ry="9.3"/>
      <path class="cls-2" d="M370.21,244c-.36-.3-.72-.59-1.07-.89-.37-.32-.75-.66-1.11-.99-.26-.25-.49-.53-.64-.86-.29-.63-.25-1.23.2-1.78.44-.54,1.32-.66,1.9-.13.24.22.4.5.53.79.01.03.02.05.03.08.03.08.1.11.18.11s.14-.04.18-.11c.06-.13.11-.26.18-.39.15-.27.35-.51.64-.66.34-.18.7-.2,1.05-.08.52.18.8.57.92,1.07.11.46.01.88-.23,1.29-.24.39-.54.71-.89,1.01-.6.52-1.22,1.04-1.84,1.55,0,0,0,0-.02,0h0Z"/>
      <circle class="cls-2" cx="347.75" cy="280" r="1"/>
      <g class="cls-3">
        <path class="cls-4" d="M351.08,279.25c.41,0,.75.34.75.75s-.34.75-.75.75-.75-.34-.75-.75.34-.75.75-.75M351.08,279c-.55,0-1,.45-1,1s.45,1,1,1,1-.45,1-1-.45-1-1-1h0Z"/>
      </g>
      <g class="cls-3">
        <path class="cls-4" d="M354.42,279.25c.41,0,.75.34.75.75s-.34.75-.75.75-.75-.34-.75-.75.34-.75.75-.75M354.42,279c-.55,0-1,.45-1,1s.45,1,1,1,1-.45,1-1-.45-1-1-1h0Z"/>
      </g>
      <g class="cls-3">
        <path class="cls-4" d="M357.75,279.25c.41,0,.75.34.75.75s-.34.75-.75.75-.75-.34-.75-.75.34-.75.75-.75M357.75,279c-.55,0-1,.45-1,1s.45,1,1,1,1-.45,1-1-.45-1-1-1h0Z"/>
      </g>
    </g>
    <g>
      <rect class="cls-1" x="349.25" y="154" width="57" height="57" rx="9.3" ry="9.3"/>
      <path class="cls-2" d="M395.21,167c-.36-.3-.72-.59-1.07-.89-.37-.32-.75-.66-1.11-.99-.26-.25-.49-.53-.64-.86-.29-.63-.25-1.23.2-1.78.44-.54,1.32-.66,1.9-.13.24.22.4.5.53.79.01.03.02.05.03.08.03.08.1.11.18.11s.14-.04.18-.11c.06-.13.11-.26.18-.39.15-.27.35-.51.64-.66.34-.18.7-.2,1.05-.08.52.18.8.57.92,1.07.11.46.01.88-.23,1.29-.24.39-.54.71-.89,1.01-.6.52-1.22,1.04-1.84,1.55,0,0,0,0-.02,0h0Z"/>
      <circle class="cls-2" cx="372.75" cy="203" r="1"/>
      <g class="cls-3">
        <path class="cls-4" d="M376.08,202.25c.41,0,.75.34.75.75s-.34.75-.75.75-.75-.34-.75-.75.34-.75.75-.75M376.08,202c-.55,0-1,.45-1,1s.45,1,1,1,1-.45,1-1-.45-1-1-1h0Z"/>
      </g>
      <g class="cls-3">
        <path class="cls-4" d="M379.42,202.25c.41,0,.75.34.75.75s-.34.75-.75.75-.75-.34-.75-.75.34-.75.75-.75M379.42,202c-.55,0-1,.45-1,1s.45,1,1,1,1-.45,1-1-.45-1-1-1h0Z"/>
      </g>
      <g class="cls-3">
        <path class="cls-4" d="M382.75,202.25c.41,0,.75.34.75.75s-.34.75-.75.75-.75-.34-.75-.75.34-.75.75-.75M382.75,202c-.55,0-1,.45-1,1s.45,1,1,1,1-.45,1-1-.45-1-1-1h0Z"/>
      </g>
    </g>
    <g>
      <rect class="cls-1" x="603.25" y="149" width="57" height="57" rx="9.3" ry="9.3"/>
      <path class="cls-2" d="M649.21,162c-.36-.3-.72-.59-1.07-.89-.37-.32-.75-.66-1.11-.99-.26-.25-.49-.53-.64-.86-.29-.63-.25-1.23.2-1.78.44-.54,1.32-.66,1.9-.13.24.22.4.5.53.79.01.03.02.05.03.08.03.08.1.11.18.11s.14-.04.18-.11c.06-.13.11-.26.18-.39.15-.27.35-.51.64-.66.34-.18.7-.2,1.05-.08.52.18.8.57.92,1.07.11.46.01.88-.23,1.29-.24.39-.54.71-.89,1.01-.6.52-1.22,1.04-1.84,1.55,0,0,0,0-.02,0h0Z"/>
      <circle class="cls-2" cx="626.75" cy="198" r="1"/>
      <g class="cls-3">
        <path class="cls-4" d="M630.08,197.25c.41,0,.75.34.75.75s-.34.75-.75.75-.75-.34-.75-.75.34-.75.75-.75M630.08,197c-.55,0-1,.45-1,1s.45,1,1,1,1-.45,1-1-.45-1-1-1h0Z"/>
      </g>
      <g class="cls-3">
        <path class="cls-4" d="M633.42,197.25c.41,0,.75.34.75.75s-.34.75-.75.75-.75-.34-.75-.75.34-.75.75-.75M633.42,197c-.55,0-1,.45-1,1s.45,1,1,1,1-.45,1-1-.45-1-1-1h0Z"/>
      </g>
      <g class="cls-3">
        <path class="cls-4" d="M636.75,197.25c.41,0,.75.34.75.75s-.34.75-.75.75-.75-.34-.75-.75.34-.75.75-.75M636.75,197c-.55,0-1,.45-1,1s.45,1,1,1,1-.45,1-1-.45-1-1-1h0Z"/>
      </g>
    </g>
    <g>
      <rect class="cls-1" x="518.25" y="154" width="57" height="57" rx="9.3" ry="9.3"/>
      <path class="cls-2" d="M564.21,167c-.36-.3-.72-.59-1.07-.89-.37-.32-.75-.66-1.11-.99-.26-.25-.49-.53-.64-.86-.29-.63-.25-1.23.2-1.78.44-.54,1.32-.66,1.9-.13.24.22.4.5.53.79.01.03.02.05.03.08.03.08.1.11.18.11s.14-.04.18-.11c.06-.13.11-.26.18-.39.15-.27.35-.51.64-.66.34-.18.7-.2,1.05-.08.52.18.8.57.92,1.07.11.46.01.88-.23,1.29-.24.39-.54.71-.89,1.01-.6.52-1.22,1.04-1.84,1.55,0,0,0,0-.02,0h0Z"/>
      <circle class="cls-2" cx="541.75" cy="203" r="1"/>
      <g class="cls-3">
        <path class="cls-4" d="M545.08,202.25c.41,0,.75.34.75.75s-.34.75-.75.75-.75-.34-.75-.75.34-.75.75-.75M545.08,202c-.55,0-1,.45-1,1s.45,1,1,1,1-.45,1-1-.45-1-1-1h0Z"/>
      </g>
      <g class="cls-3">
        <path class="cls-4" d="M548.42,202.25c.41,0,.75.34.75.75s-.34.75-.75.75-.75-.34-.75-.75.34-.75.75-.75M548.42,202c-.55,0-1,.45-1,1s.45,1,1,1,1-.45,1-1-.45-1-1-1h0Z"/>
      </g>
      <g class="cls-3">
        <path class="cls-4" d="M551.75,202.25c.41,0,.75.34.75.75s-.34.75-.75.75-.75-.34-.75-.75.34-.75.75-.75M551.75,202c-.55,0-1,.45-1,1s.45,1,1,1,1-.45,1-1-.45-1-1-1h0Z"/>
      </g>
    </g>
    <g>
      <rect class="cls-1" x="496.25" y="81" width="57" height="57" rx="9.3" ry="9.3"/>
      <path class="cls-2" d="M542.21,94c-.36-.3-.72-.59-1.07-.89-.37-.32-.75-.66-1.11-.99-.26-.25-.49-.53-.64-.86-.29-.63-.25-1.23.2-1.78.44-.54,1.32-.66,1.9-.13.24.22.4.5.53.79.01.03.02.05.03.08.03.08.1.11.18.11s.14-.04.18-.11c.06-.13.11-.26.18-.39.15-.27.35-.51.64-.66.34-.18.7-.2,1.05-.08.52.18.8.57.92,1.07.11.46.01.88-.23,1.29-.24.39-.54.71-.89,1.01-.6.52-1.22,1.04-1.84,1.55,0,0,0,0-.02,0h0Z"/>
      <circle class="cls-2" cx="519.75" cy="130" r="1"/>
      <g class="cls-3">
        <path class="cls-4" d="M523.08,129.25c.41,0,.75.34.75.75s-.34.75-.75.75-.75-.34-.75-.75.34-.75.75-.75M523.08,129c-.55,0-1,.45-1,1s.45,1,1,1,1-.45,1-1-.45-1-1-1h0Z"/>
      </g>
      <g class="cls-3">
        <path class="cls-4" d="M526.42,129.25c.41,0,.75.34.75.75s-.34.75-.75.75-.75-.34-.75-.75.34-.75.75-.75M526.42,129c-.55,0-1,.45-1,1s.45,1,1,1,1-.45,1-1-.45-1-1-1h0Z"/>
      </g>
      <g class="cls-3">
        <path class="cls-4" d="M529.75,129.25c.41,0,.75.34.75.75s-.34.75-.75.75-.75-.34-.75-.75.34-.75.75-.75M529.75,129c-.55,0-1,.45-1,1s.45,1,1,1,1-.45,1-1-.45-1-1-1h0Z"/>
      </g>
    </g>
    <g>
      <rect class="cls-1" x="436.25" y="159" width="57" height="57" rx="9.3" ry="9.3"/>
      <path class="cls-2" d="M482.21,172c-.36-.3-.72-.59-1.07-.89-.37-.32-.75-.66-1.11-.99-.26-.25-.49-.53-.64-.86-.29-.63-.25-1.23.2-1.78.44-.54,1.32-.66,1.9-.13.24.22.4.5.53.79.01.03.02.05.03.08.03.08.1.11.18.11s.14-.04.18-.11c.06-.13.11-.26.18-.39.15-.27.35-.51.64-.66.34-.18.7-.2,1.05-.08.52.18.8.57.92,1.07.11.46.01.88-.23,1.29-.24.39-.54.71-.89,1.01-.6.52-1.22,1.04-1.84,1.55,0,0,0,0-.02,0h0Z"/>
      <circle class="cls-2" cx="459.75" cy="208" r="1"/>
      <g class="cls-3">
        <path class="cls-4" d="M463.08,207.25c.41,0,.75.34.75.75s-.34.75-.75.75-.75-.34-.75-.75.34-.75.75-.75M463.08,207c-.55,0-1,.45-1,1s.45,1,1,1,1-.45,1-1-.45-1-1-1h0Z"/>
      </g>
      <g class="cls-3">
        <path class="cls-4" d="M466.42,207.25c.41,0,.75.34.75.75s-.34.75-.75.75-.75-.34-.75-.75.34-.75.75-.75M466.42,207c-.55,0-1,.45-1,1s.45,1,1,1,1-.45,1-1-.45-1-1-1h0Z"/>
      </g>
      <g class="cls-3">
        <path class="cls-4" d="M469.75,207.25c.41,0,.75.34.75.75s-.34.75-.75.75-.75-.34-.75-.75.34-.75.75-.75M469.75,207c-.55,0-1,.45-1,1s.45,1,1,1,1-.45,1-1-.45-1-1-1h0Z"/>
      </g>
    </g>
    <g>
      <rect class="cls-1" x="418.25" y="84" width="57" height="57" rx="9.3" ry="9.3"/>
      <path class="cls-2" d="M464.21,97c-.36-.3-.72-.59-1.07-.89-.37-.32-.75-.66-1.11-.99-.26-.25-.49-.53-.64-.86-.29-.63-.25-1.23.2-1.78.44-.54,1.32-.66,1.9-.13.24.22.4.5.53.79.01.03.02.05.03.08.03.08.1.11.18.11s.14-.04.18-.11c.06-.13.11-.26.18-.39.15-.27.35-.51.64-.66.34-.18.7-.2,1.05-.08.52.18.8.57.92,1.07.11.46.01.88-.23,1.29-.24.39-.54.71-.89,1.01-.6.52-1.22,1.04-1.84,1.55,0,0,0,0-.02,0h0Z"/>
      <circle class="cls-2" cx="441.75" cy="133" r="1"/>
      <g class="cls-3">
        <path class="cls-4" d="M445.08,132.25c.41,0,.75.34.75.75s-.34.75-.75.75-.75-.34-.75-.75.34-.75.75-.75M445.08,132c-.55,0-1,.45-1,1s.45,1,1,1,1-.45,1-1-.45-1-1-1h0Z"/>
      </g>
      <g class="cls-3">
        <path class="cls-4" d="M448.42,132.25c.41,0,.75.34.75.75s-.34.75-.75.75-.75-.34-.75-.75.34-.75.75-.75M448.42,132c-.55,0-1,.45-1,1s.45,1,1,1,1-.45,1-1-.45-1-1-1h0Z"/>
      </g>
      <g class="cls-3">
        <path class="cls-4" d="M451.75,132.25c.41,0,.75.34.75.75s-.34.75-.75.75-.75-.34-.75-.75.34-.75.75-.75M451.75,132c-.55,0-1,.45-1,1s.45,1,1,1,1-.45,1-1-.45-1-1-1h0Z"/>
      </g>
    </g>
    <g>
      <rect class="cls-1" x="576.25" y="74" width="57" height="57" rx="9.3" ry="9.3"/>
      <path class="cls-2" d="M622.21,87c-.36-.3-.72-.59-1.07-.89-.37-.32-.75-.66-1.11-.99-.26-.25-.49-.53-.64-.86-.29-.63-.25-1.23.2-1.78.44-.54,1.32-.66,1.9-.13.24.22.4.5.53.79.01.03.02.05.03.08.03.08.1.11.18.11s.14-.04.18-.11c.06-.13.11-.26.18-.39.15-.27.35-.51.64-.66.34-.18.7-.2,1.05-.08.52.18.8.57.92,1.07.11.46.01.88-.23,1.29-.24.39-.54.71-.89,1.01-.6.52-1.22,1.04-1.84,1.55,0,0,0,0-.02,0h0Z"/>
      <circle class="cls-2" cx="599.75" cy="123" r="1"/>
      <g class="cls-3">
        <path class="cls-4" d="M603.08,122.25c.41,0,.75.34.75.75s-.34.75-.75.75-.75-.34-.75-.75.34-.75.75-.75M603.08,122c-.55,0-1,.45-1,1s.45,1,1,1,1-.45,1-1-.45-1-1-1h0Z"/>
      </g>
      <g class="cls-3">
        <path class="cls-4" d="M606.42,122.25c.41,0,.75.34.75.75s-.34.75-.75.75-.75-.34-.75-.75.34-.75.75-.75M606.42,122c-.55,0-1,.45-1,1s.45,1,1,1,1-.45,1-1-.45-1-1-1h0Z"/>
      </g>
      <g class="cls-3">
        <path class="cls-4" d="M609.75,122.25c.41,0,.75.34.75.75s-.34.75-.75.75-.75-.34-.75-.75.34-.75.75-.75M609.75,122c-.55,0-1,.45-1,1s.45,1,1,1,1-.45,1-1-.45-1-1-1h0Z"/>
      </g>
    </g>
    <g>
      <rect class="cls-1" x="726.25" y="669" width="57" height="57" rx="9.3" ry="9.3"/>
      <path class="cls-2" d="M772.21,682c-.36-.3-.72-.59-1.07-.89-.37-.32-.75-.66-1.11-.99-.26-.25-.49-.53-.64-.86-.29-.63-.25-1.23.2-1.78.44-.54,1.32-.66,1.9-.13.24.22.4.5.53.79.01.03.02.05.03.08.03.08.1.11.18.11s.14-.04.18-.11c.06-.13.11-.26.18-.39.15-.27.35-.51.64-.66.34-.18.7-.2,1.05-.08.52.18.8.57.92,1.07.11.46.01.88-.23,1.29-.24.39-.54.71-.89,1.01-.6.52-1.22,1.04-1.84,1.55,0,0,0,0-.02,0h0Z"/>
      <circle class="cls-2" cx="749.75" cy="718" r="1"/>
      <g class="cls-3">
        <path class="cls-4" d="M753.08,717.25c.41,0,.75.34.75.75s-.34.75-.75.75-.75-.34-.75-.75.34-.75.75-.75M753.08,717c-.55,0-1,.45-1,1s.45,1,1,1,1-.45,1-1-.45-1-1-1h0Z"/>
      </g>
      <g class="cls-3">
        <path class="cls-4" d="M756.42,717.25c.41,0,.75.34.75.75s-.34.75-.75.75-.75-.34-.75-.75.34-.75.75-.75M756.42,717c-.55,0-1,.45-1,1s.45,1,1,1,1-.45,1-1-.45-1-1-1h0Z"/>
      </g>
      <g class="cls-3">
        <path class="cls-4" d="M759.75,717.25c.41,0,.75.34.75.75s-.34.75-.75.75-.75-.34-.75-.75.34-.75.75-.75M759.75,717c-.55,0-1,.45-1,1s.45,1,1,1,1-.45,1-1-.45-1-1-1h0Z"/>
      </g>
    </g>
    <g>
      <rect class="cls-1" x="685.25" y="594" width="57" height="57" rx="9.3" ry="9.3"/>
      <path class="cls-2" d="M731.21,607c-.36-.3-.72-.59-1.07-.89-.37-.32-.75-.66-1.11-.99-.26-.25-.49-.53-.64-.86-.29-.63-.25-1.23.2-1.78.44-.54,1.32-.66,1.9-.13.24.22.4.5.53.79.01.03.02.05.03.08.03.08.1.11.18.11s.14-.04.18-.11c.06-.13.11-.26.18-.39.15-.27.35-.51.64-.66.34-.18.7-.2,1.05-.08.52.18.8.57.92,1.07.11.46.01.88-.23,1.29-.24.39-.54.71-.89,1.01-.6.52-1.22,1.04-1.84,1.55,0,0,0,0-.02,0h0Z"/>
      <circle class="cls-2" cx="708.75" cy="643" r="1"/>
      <g class="cls-3">
        <path class="cls-4" d="M712.08,642.25c.41,0,.75.34.75.75s-.34.75-.75.75-.75-.34-.75-.75.34-.75.75-.75M712.08,642c-.55,0-1,.45-1,1s.45,1,1,1,1-.45,1-1-.45-1-1-1h0Z"/>
      </g>
      <g class="cls-3">
        <path class="cls-4" d="M715.42,642.25c.41,0,.75.34.75.75s-.34.75-.75.75-.75-.34-.75-.75.34-.75.75-.75M715.42,642c-.55,0-1,.45-1,1s.45,1,1,1,1-.45,1-1-.45-1-1-1h0Z"/>
      </g>
      <g class="cls-3">
        <path class="cls-4" d="M718.75,642.25c.41,0,.75.34.75.75s-.34.75-.75.75-.75-.34-.75-.75.34-.75.75-.75M718.75,642c-.55,0-1,.45-1,1s.45,1,1,1,1-.45,1-1-.45-1-1-1h0Z"/>
      </g>
    </g>
    <g>
      <rect class="cls-1" x="767.25" y="565" width="57" height="57" rx="9.3" ry="9.3"/>
      <path class="cls-2" d="M813.21,578c-.36-.3-.72-.59-1.07-.89-.37-.32-.75-.66-1.11-.99-.26-.25-.49-.53-.64-.86-.29-.63-.25-1.23.2-1.78.44-.54,1.32-.66,1.9-.13.24.22.4.5.53.79.01.03.02.05.03.08.03.08.1.11.18.11s.14-.04.18-.11c.06-.13.11-.26.18-.39.15-.27.35-.51.64-.66.34-.18.7-.2,1.05-.08.52.18.8.57.92,1.07.11.46.01.88-.23,1.29-.24.39-.54.71-.89,1.01-.6.52-1.22,1.04-1.84,1.55,0,0,0,0-.02,0h0Z"/>
      <circle class="cls-2" cx="790.75" cy="614" r="1"/>
      <g class="cls-3">
        <path class="cls-4" d="M794.08,613.25c.41,0,.75.34.75.75s-.34.75-.75.75-.75-.34-.75-.75.34-.75.75-.75M794.08,613c-.55,0-1,.45-1,1s.45,1,1,1,1-.45,1-1-.45-1-1-1h0Z"/>
      </g>
      <g class="cls-3">
        <path class="cls-4" d="M797.42,613.25c.41,0,.75.34.75.75s-.34.75-.75.75-.75-.34-.75-.75.34-.75.75-.75M797.42,613c-.55,0-1,.45-1,1s.45,1,1,1,1-.45,1-1-.45-1-1-1h0Z"/>
      </g>
      <g class="cls-3">
        <path class="cls-4" d="M800.75,613.25c.41,0,.75.34.75.75s-.34.75-.75.75-.75-.34-.75-.75.34-.75.75-.75M800.75,613c-.55,0-1,.45-1,1s.45,1,1,1,1-.45,1-1-.45-1-1-1h0Z"/>
      </g>
    </g>
    <g>
      <rect class="cls-1" x="658.25" y="510" width="57" height="57" rx="9.3" ry="9.3"/>
      <path class="cls-2" d="M704.21,523c-.36-.3-.72-.59-1.07-.89-.37-.32-.75-.66-1.11-.99-.26-.25-.49-.53-.64-.86-.29-.63-.25-1.23.2-1.78.44-.54,1.32-.66,1.9-.13.24.22.4.5.53.79.01.03.02.05.03.08.03.08.1.11.18.11s.14-.04.18-.11c.06-.13.11-.26.18-.39.15-.27.35-.51.64-.66.34-.18.7-.2,1.05-.08.52.18.8.57.92,1.07.11.46.01.88-.23,1.29-.24.39-.54.71-.89,1.01-.6.52-1.22,1.04-1.84,1.55,0,0,0,0-.02,0h0Z"/>
      <circle class="cls-2" cx="681.75" cy="559" r="1"/>
      <g class="cls-3">
        <path class="cls-4" d="M685.08,558.25c.41,0,.75.34.75.75s-.34.75-.75.75-.75-.34-.75-.75.34-.75.75-.75M685.08,558c-.55,0-1,.45-1,1s.45,1,1,1,1-.45,1-1-.45-1-1-1h0Z"/>
      </g>
      <g class="cls-3">
        <path class="cls-4" d="M688.42,558.25c.41,0,.75.34.75.75s-.34.75-.75.75-.75-.34-.75-.75.34-.75.75-.75M688.42,558c-.55,0-1,.45-1,1s.45,1,1,1,1-.45,1-1-.45-1-1-1h0Z"/>
      </g>
      <g class="cls-3">
        <path class="cls-4" d="M691.75,558.25c.41,0,.75.34.75.75s-.34.75-.75.75-.75-.34-.75-.75.34-.75.75-.75M691.75,558c-.55,0-1,.45-1,1s.45,1,1,1,1-.45,1-1-.45-1-1-1h0Z"/>
      </g>
    </g>
    <g>
      <rect class="cls-1" x="805.25" y="638" width="57" height="57" rx="9.3" ry="9.3"/>
      <path class="cls-2" d="M851.21,651c-.36-.3-.72-.59-1.07-.89-.37-.32-.75-.66-1.11-.99-.26-.25-.49-.53-.64-.86-.29-.63-.25-1.23.2-1.78.44-.54,1.32-.66,1.9-.13.24.22.4.5.53.79.01.03.02.05.03.08.03.08.1.11.18.11s.14-.04.18-.11c.06-.13.11-.26.18-.39.15-.27.35-.51.64-.66.34-.18.7-.2,1.05-.08.52.18.8.57.92,1.07.11.46.01.88-.23,1.29-.24.39-.54.71-.89,1.01-.6.52-1.22,1.04-1.84,1.55,0,0,0,0-.02,0h0Z"/>
      <circle class="cls-2" cx="828.75" cy="687" r="1"/>
      <g class="cls-3">
        <path class="cls-4" d="M832.08,686.25c.41,0,.75.34.75.75s-.34.75-.75.75-.75-.34-.75-.75.34-.75.75-.75M832.08,686c-.55,0-1,.45-1,1s.45,1,1,1,1-.45,1-1-.45-1-1-1h0Z"/>
      </g>
      <g class="cls-3">
        <path class="cls-4" d="M835.42,686.25c.41,0,.75.34.75.75s-.34.75-.75.75-.75-.34-.75-.75.34-.75.75-.75M835.42,686c-.55,0-1,.45-1,1s.45,1,1,1,1-.45,1-1-.45-1-1-1h0Z"/>
      </g>
      <g class="cls-3">
        <path class="cls-4" d="M838.75,686.25c.41,0,.75.34.75.75s-.34.75-.75.75-.75-.34-.75-.75.34-.75.75-.75M838.75,686c-.55,0-1,.45-1,1s.45,1,1,1,1-.45,1-1-.45-1-1-1h0Z"/>
      </g>
    </g>
    <g>
      <rect class="cls-1" x="740.25" y="489" width="57" height="57" rx="9.3" ry="9.3"/>
      <path class="cls-2" d="M786.21,502c-.36-.3-.72-.59-1.07-.89-.37-.32-.75-.66-1.11-.99-.26-.25-.49-.53-.64-.86-.29-.63-.25-1.23.2-1.78.44-.54,1.32-.66,1.9-.13.24.22.4.5.53.79.01.03.02.05.03.08.03.08.1.11.18.11s.14-.04.18-.11c.06-.13.11-.26.18-.39.15-.27.35-.51.64-.66.34-.18.7-.2,1.05-.08.52.18.8.57.92,1.07.11.46.01.88-.23,1.29-.24.39-.54.71-.89,1.01-.6.52-1.22,1.04-1.84,1.55,0,0,0,0-.02,0h0Z"/>
      <circle class="cls-2" cx="763.75" cy="538" r="1"/>
      <g class="cls-3">
        <path class="cls-4" d="M767.08,537.25c.41,0,.75.34.75.75s-.34.75-.75.75-.75-.34-.75-.75.34-.75.75-.75M767.08,537c-.55,0-1,.45-1,1s.45,1,1,1,1-.45,1-1-.45-1-1-1h0Z"/>
      </g>
      <g class="cls-3">
        <path class="cls-4" d="M770.42,537.25c.41,0,.75.34.75.75s-.34.75-.75.75-.75-.34-.75-.75.34-.75.75-.75M770.42,537c-.55,0-1,.45-1,1s.45,1,1,1,1-.45,1-1-.45-1-1-1h0Z"/>
      </g>
      <g class="cls-3">
        <path class="cls-4" d="M773.75,537.25c.41,0,.75.34.75.75s-.34.75-.75.75-.75-.34-.75-.75.34-.75.75-.75M773.75,537c-.55,0-1,.45-1,1s.45,1,1,1,1-.45,1-1-.45-1-1-1h0Z"/>
      </g>
    </g>
    <g>
      <rect class="cls-1" x="829.25" y="489" width="57" height="57" rx="9.3" ry="9.3"/>
      <path class="cls-2" d="M875.21,502c-.36-.3-.72-.59-1.07-.89-.37-.32-.75-.66-1.11-.99-.26-.25-.49-.53-.64-.86-.29-.63-.25-1.23.2-1.78.44-.54,1.32-.66,1.9-.13.24.22.4.5.53.79.01.03.02.05.03.08.03.08.1.11.18.11s.14-.04.18-.11c.06-.13.11-.26.18-.39.15-.27.35-.51.64-.66.34-.18.7-.2,1.05-.08.52.18.8.57.92,1.07.11.46.01.88-.23,1.29-.24.39-.54.71-.89,1.01-.6.52-1.22,1.04-1.84,1.55,0,0,0,0-.02,0h0Z"/>
      <circle class="cls-2" cx="852.75" cy="538" r="1"/>
      <g class="cls-3">
        <path class="cls-4" d="M856.08,537.25c.41,0,.75.34.75.75s-.34.75-.75.75-.75-.34-.75-.75.34-.75.75-.75M856.08,537c-.55,0-1,.45-1,1s.45,1,1,1,1-.45,1-1-.45-1-1-1h0Z"/>
      </g>
      <g class="cls-3">
        <path class="cls-4" d="M859.42,537.25c.41,0,.75.34.75.75s-.34.75-.75.75-.75-.34-.75-.75.34-.75.75-.75M859.42,537c-.55,0-1,.45-1,1s.45,1,1,1,1-.45,1-1-.45-1-1-1h0Z"/>
      </g>
      <g class="cls-3">
        <path class="cls-4" d="M862.75,537.25c.41,0,.75.34.75.75s-.34.75-.75.75-.75-.34-.75-.75.34-.75.75-.75M862.75,537c-.55,0-1,.45-1,1s.45,1,1,1,1-.45,1-1-.45-1-1-1h0Z"/>
      </g>
    </g>
    <g>
      <rect class="cls-1" x="640.25" y="439" width="57" height="57" rx="9.3" ry="9.3"/>
      <path class="cls-2" d="M686.21,452c-.36-.3-.72-.59-1.07-.89-.37-.32-.75-.66-1.11-.99-.26-.25-.49-.53-.64-.86-.29-.63-.25-1.23.2-1.78.44-.54,1.32-.66,1.9-.13.24.22.4.5.53.79.01.03.02.05.03.08.03.08.1.11.18.11s.14-.04.18-.11c.06-.13.11-.26.18-.39.15-.27.35-.51.64-.66.34-.18.7-.2,1.05-.08.52.18.8.57.92,1.07.11.46.01.88-.23,1.29-.24.39-.54.71-.89,1.01-.6.52-1.22,1.04-1.84,1.55,0,0,0,0-.02,0h0Z"/>
      <circle class="cls-2" cx="663.75" cy="488" r="1"/>
      <g class="cls-3">
        <path class="cls-4" d="M667.08,487.25c.41,0,.75.34.75.75s-.34.75-.75.75-.75-.34-.75-.75.34-.75.75-.75M667.08,487c-.55,0-1,.45-1,1s.45,1,1,1,1-.45,1-1-.45-1-1-1h0Z"/>
      </g>
      <g class="cls-3">
        <path class="cls-4" d="M670.42,487.25c.41,0,.75.34.75.75s-.34.75-.75.75-.75-.34-.75-.75.34-.75.75-.75M670.42,487c-.55,0-1,.45-1,1s.45,1,1,1,1-.45,1-1-.45-1-1-1h0Z"/>
      </g>
      <g class="cls-3">
        <path class="cls-4" d="M673.75,487.25c.41,0,.75.34.75.75s-.34.75-.75.75-.75-.34-.75-.75.34-.75.75-.75M673.75,487c-.55,0-1,.45-1,1s.45,1,1,1,1-.45,1-1-.45-1-1-1h0Z"/>
      </g>
    </g>
    <g>
      <rect class="cls-1" x="645.25" y="369" width="57" height="57" rx="9.3" ry="9.3"/>
      <path class="cls-2" d="M691.21,382c-.36-.3-.72-.59-1.07-.89-.37-.32-.75-.66-1.11-.99-.26-.25-.49-.53-.64-.86-.29-.63-.25-1.23.2-1.78.44-.54,1.32-.66,1.9-.13.24.22.4.5.53.79.01.03.02.05.03.08.03.08.1.11.18.11s.14-.04.18-.11c.06-.13.11-.26.18-.39.15-.27.35-.51.64-.66.34-.18.7-.2,1.05-.08.52.18.8.57.92,1.07.11.46.01.88-.23,1.29-.24.39-.54.71-.89,1.01-.6.52-1.22,1.04-1.84,1.55,0,0,0,0-.02,0h0Z"/>
      <circle class="cls-2" cx="668.75" cy="418" r="1"/>
      <g class="cls-3">
        <path class="cls-4" d="M672.08,417.25c.41,0,.75.34.75.75s-.34.75-.75.75-.75-.34-.75-.75.34-.75.75-.75M672.08,417c-.55,0-1,.45-1,1s.45,1,1,1,1-.45,1-1-.45-1-1-1h0Z"/>
      </g>
      <g class="cls-3">
        <path class="cls-4" d="M675.42,417.25c.41,0,.75.34.75.75s-.34.75-.75.75-.75-.34-.75-.75.34-.75.75-.75M675.42,417c-.55,0-1,.45-1,1s.45,1,1,1,1-.45,1-1-.45-1-1-1h0Z"/>
      </g>
      <g class="cls-3">
        <path class="cls-4" d="M678.75,417.25c.41,0,.75.34.75.75s-.34.75-.75.75-.75-.34-.75-.75.34-.75.75-.75M678.75,417c-.55,0-1,.45-1,1s.45,1,1,1,1-.45,1-1-.45-1-1-1h0Z"/>
      </g>
    </g>
    <g>
      <rect class="cls-1" x="732.25" y="413" width="57" height="57" rx="9.3" ry="9.3"/>
      <path class="cls-2" d="M778.21,426c-.36-.3-.72-.59-1.07-.89-.37-.32-.75-.66-1.11-.99-.26-.25-.49-.53-.64-.86-.29-.63-.25-1.23.2-1.78.44-.54,1.32-.66,1.9-.13.24.22.4.5.53.79.01.03.02.05.03.08.03.08.1.11.18.11s.14-.04.18-.11c.06-.13.11-.26.18-.39.15-.27.35-.51.64-.66.34-.18.7-.2,1.05-.08.52.18.8.57.92,1.07.11.46.01.88-.23,1.29-.24.39-.54.71-.89,1.01-.6.52-1.22,1.04-1.84,1.55,0,0,0,0-.02,0h0Z"/>
      <circle class="cls-2" cx="755.75" cy="462" r="1"/>
      <g class="cls-3">
        <path class="cls-4" d="M759.08,461.25c.41,0,.75.34.75.75s-.34.75-.75.75-.75-.34-.75-.75.34-.75.75-.75M759.08,461c-.55,0-1,.45-1,1s.45,1,1,1,1-.45,1-1-.45-1-1-1h0Z"/>
      </g>
      <g class="cls-3">
        <path class="cls-4" d="M762.42,461.25c.41,0,.75.34.75.75s-.34.75-.75.75-.75-.34-.75-.75.34-.75.75-.75M762.42,461c-.55,0-1,.45-1,1s.45,1,1,1,1-.45,1-1-.45-1-1-1h0Z"/>
      </g>
      <g class="cls-3">
        <path class="cls-4" d="M765.75,461.25c.41,0,.75.34.75.75s-.34.75-.75.75-.75-.34-.75-.75.34-.75.75-.75M765.75,461c-.55,0-1,.45-1,1s.45,1,1,1,1-.45,1-1-.45-1-1-1h0Z"/>
      </g>
    </g>
    <g>
      <rect class="cls-1" x="826.25" y="413" width="57" height="57" rx="9.3" ry="9.3"/>
      <path class="cls-2" d="M872.21,426c-.36-.3-.72-.59-1.07-.89-.37-.32-.75-.66-1.11-.99-.26-.25-.49-.53-.64-.86-.29-.63-.25-1.23.2-1.78.44-.54,1.32-.66,1.9-.13.24.22.4.5.53.79.01.03.02.05.03.08.03.08.1.11.18.11s.14-.04.18-.11c.06-.13.11-.26.18-.39.15-.27.35-.51.64-.66.34-.18.7-.2,1.05-.08.52.18.8.57.92,1.07.11.46.01.88-.23,1.29-.24.39-.54.71-.89,1.01-.6.52-1.22,1.04-1.84,1.55,0,0,0,0-.02,0h0Z"/>
      <circle class="cls-2" cx="849.75" cy="462" r="1"/>
      <g class="cls-3">
        <path class="cls-4" d="M853.08,461.25c.41,0,.75.34.75.75s-.34.75-.75.75-.75-.34-.75-.75.34-.75.75-.75M853.08,461c-.55,0-1,.45-1,1s.45,1,1,1,1-.45,1-1-.45-1-1-1h0Z"/>
      </g>
      <g class="cls-3">
        <path class="cls-4" d="M856.42,461.25c.41,0,.75.34.75.75s-.34.75-.75.75-.75-.34-.75-.75.34-.75.75-.75M856.42,461c-.55,0-1,.45-1,1s.45,1,1,1,1-.45,1-1-.45-1-1-1h0Z"/>
      </g>
      <g class="cls-3">
        <path class="cls-4" d="M859.75,461.25c.41,0,.75.34.75.75s-.34.75-.75.75-.75-.34-.75-.75.34-.75.75-.75M859.75,461c-.55,0-1,.45-1,1s.45,1,1,1,1-.45,1-1-.45-1-1-1h0Z"/>
      </g>
    </g>
    <g>
      <rect class="cls-1" x="901.25" y="547" width="57" height="57" rx="9.3" ry="9.3"/>
      <path class="cls-2" d="M947.21,560c-.36-.3-.72-.59-1.07-.89-.37-.32-.75-.66-1.11-.99-.26-.25-.49-.53-.64-.86-.29-.63-.25-1.23.2-1.78.44-.54,1.32-.66,1.9-.13.24.22.4.5.53.79.01.03.02.05.03.08.03.08.1.11.18.11s.14-.04.18-.11c.06-.13.11-.26.18-.39.15-.27.35-.51.64-.66.34-.18.7-.2,1.05-.08.52.18.8.57.92,1.07.11.46.01.88-.23,1.29-.24.39-.54.71-.89,1.01-.6.52-1.22,1.04-1.84,1.55,0,0,0,0-.02,0h0Z"/>
      <circle class="cls-2" cx="924.75" cy="596" r="1"/>
      <g class="cls-3">
        <path class="cls-4" d="M928.08,595.25c.41,0,.75.34.75.75s-.34.75-.75.75-.75-.34-.75-.75.34-.75.75-.75M928.08,595c-.55,0-1,.45-1,1s.45,1,1,1,1-.45,1-1-.45-1-1-1h0Z"/>
      </g>
      <g class="cls-3">
        <path class="cls-4" d="M931.42,595.25c.41,0,.75.34.75.75s-.34.75-.75.75-.75-.34-.75-.75.34-.75.75-.75M931.42,595c-.55,0-1,.45-1,1s.45,1,1,1,1-.45,1-1-.45-1-1-1h0Z"/>
      </g>
      <g class="cls-3">
        <path class="cls-4" d="M934.75,595.25c.41,0,.75.34.75.75s-.34.75-.75.75-.75-.34-.75-.75.34-.75.75-.75M934.75,595c-.55,0-1,.45-1,1s.45,1,1,1,1-.45,1-1-.45-1-1-1h0Z"/>
      </g>
    </g>
    <g>
      <rect class="cls-1" x="938.25" y="477" width="57" height="57" rx="9.3" ry="9.3"/>
      <path class="cls-2" d="M984.21,490c-.36-.3-.72-.59-1.07-.89-.37-.32-.75-.66-1.11-.99-.26-.25-.49-.53-.64-.86-.29-.63-.25-1.23.2-1.78.44-.54,1.32-.66,1.9-.13.24.22.4.5.53.79.01.03.02.05.03.08.03.08.1.11.18.11s.14-.04.18-.11c.06-.13.11-.26.18-.39.15-.27.35-.51.64-.66.34-.18.7-.2,1.05-.08.52.18.8.57.92,1.07.11.46.01.88-.23,1.29-.24.39-.54.71-.89,1.01-.6.52-1.22,1.04-1.84,1.55,0,0,0,0-.02,0h0Z"/>
      <circle class="cls-2" cx="961.75" cy="526" r="1"/>
      <g class="cls-3">
        <path class="cls-4" d="M965.08,525.25c.41,0,.75.34.75.75s-.34.75-.75.75-.75-.34-.75-.75.34-.75.75-.75M965.08,525c-.55,0-1,.45-1,1s.45,1,1,1,1-.45,1-1-.45-1-1-1h0Z"/>
      </g>
      <g class="cls-3">
        <path class="cls-4" d="M968.42,525.25c.41,0,.75.34.75.75s-.34.75-.75.75-.75-.34-.75-.75.34-.75.75-.75M968.42,525c-.55,0-1,.45-1,1s.45,1,1,1,1-.45,1-1-.45-1-1-1h0Z"/>
      </g>
      <g class="cls-3">
        <path class="cls-4" d="M971.75,525.25c.41,0,.75.34.75.75s-.34.75-.75.75-.75-.34-.75-.75.34-.75.75-.75M971.75,525c-.55,0-1,.45-1,1s.45,1,1,1,1-.45,1-1-.45-1-1-1h0Z"/>
      </g>
    </g>
    <g>
      <rect class="cls-1" x="998.25" y="581" width="57" height="57" rx="9.3" ry="9.3"/>
      <path class="cls-2" d="M1044.21,594c-.36-.3-.72-.59-1.07-.89-.37-.32-.75-.66-1.11-.99-.26-.25-.49-.53-.64-.86-.29-.63-.25-1.23.2-1.78.44-.54,1.32-.66,1.9-.13.24.22.4.5.53.79.01.03.02.05.03.08.03.08.1.11.18.11s.14-.04.18-.11c.06-.13.11-.26.18-.39.15-.27.35-.51.64-.66.34-.18.7-.2,1.05-.08.52.18.8.57.92,1.07.11.46.01.88-.23,1.29-.24.39-.54.71-.89,1.01-.6.52-1.22,1.04-1.84,1.55,0,0,0,0-.02,0h0Z"/>
      <circle class="cls-2" cx="1021.75" cy="630" r="1"/>
      <g class="cls-3">
        <path class="cls-4" d="M1025.08,629.25c.41,0,.75.34.75.75s-.34.75-.75.75-.75-.34-.75-.75.34-.75.75-.75M1025.08,629c-.55,0-1,.45-1,1s.45,1,1,1,1-.45,1-1-.45-1-1-1h0Z"/>
      </g>
      <g class="cls-3">
        <path class="cls-4" d="M1028.42,629.25c.41,0,.75.34.75.75s-.34.75-.75.75-.75-.34-.75-.75.34-.75.75-.75M1028.42,629c-.55,0-1,.45-1,1s.45,1,1,1,1-.45,1-1-.45-1-1-1h0Z"/>
      </g>
      <g class="cls-3">
        <path class="cls-4" d="M1031.75,629.25c.41,0,.75.34.75.75s-.34.75-.75.75-.75-.34-.75-.75.34-.75.75-.75M1031.75,629c-.55,0-1,.45-1,1s.45,1,1,1,1-.45,1-1-.45-1-1-1h0Z"/>
      </g>
    </g>
    <g>
      <rect class="cls-1" x="1030.25" y="667" width="57" height="57" rx="9.3" ry="9.3"/>
      <path class="cls-2" d="M1076.21,680c-.36-.3-.72-.59-1.07-.89-.37-.32-.75-.66-1.11-.99-.26-.25-.49-.53-.64-.86-.29-.63-.25-1.23.2-1.78.44-.54,1.32-.66,1.9-.13.24.22.4.5.53.79.01.03.02.05.03.08.03.08.1.11.18.11s.14-.04.18-.11c.06-.13.11-.26.18-.39.15-.27.35-.51.64-.66.34-.18.7-.2,1.05-.08.52.18.8.57.92,1.07.11.46.01.88-.23,1.29-.24.39-.54.71-.89,1.01-.6.52-1.22,1.04-1.84,1.55,0,0,0,0-.02,0h0Z"/>
      <circle class="cls-2" cx="1053.75" cy="716" r="1"/>
      <g class="cls-3">
        <path class="cls-4" d="M1057.08,715.25c.41,0,.75.34.75.75s-.34.75-.75.75-.75-.34-.75-.75.34-.75.75-.75M1057.08,715c-.55,0-1,.45-1,1s.45,1,1,1,1-.45,1-1-.45-1-1-1h0Z"/>
      </g>
      <g class="cls-3">
        <path class="cls-4" d="M1060.42,715.25c.41,0,.75.34.75.75s-.34.75-.75.75-.75-.34-.75-.75.34-.75.75-.75M1060.42,715c-.55,0-1,.45-1,1s.45,1,1,1,1-.45,1-1-.45-1-1-1h0Z"/>
      </g>
      <g class="cls-3">
        <path class="cls-4" d="M1063.75,715.25c.41,0,.75.34.75.75s-.34.75-.75.75-.75-.34-.75-.75.34-.75.75-.75M1063.75,715c-.55,0-1,.45-1,1s.45,1,1,1,1-.45,1-1-.45-1-1-1h0Z"/>
      </g>
    </g>
    <g>
      <rect class="cls-1" x="1115.25" y="705" width="57" height="57" rx="9.3" ry="9.3"/>
      <path class="cls-2" d="M1161.21,718c-.36-.3-.72-.59-1.07-.89-.37-.32-.75-.66-1.11-.99-.26-.25-.49-.53-.64-.86-.29-.63-.25-1.23.2-1.78.44-.54,1.32-.66,1.9-.13.24.22.4.5.53.79.01.03.02.05.03.08.03.08.1.11.18.11s.14-.04.18-.11c.06-.13.11-.26.18-.39.15-.27.35-.51.64-.66.34-.18.7-.2,1.05-.08.52.18.8.57.92,1.07.11.46.01.88-.23,1.29-.24.39-.54.71-.89,1.01-.6.52-1.22,1.04-1.84,1.55,0,0,0,0-.02,0h0Z"/>
      <circle class="cls-2" cx="1138.75" cy="754" r="1"/>
      <g class="cls-3">
        <path class="cls-4" d="M1142.08,753.25c.41,0,.75.34.75.75s-.34.75-.75.75-.75-.34-.75-.75.34-.75.75-.75M1142.08,753c-.55,0-1,.45-1,1s.45,1,1,1,1-.45,1-1-.45-1-1-1h0Z"/>
      </g>
      <g class="cls-3">
        <path class="cls-4" d="M1145.42,753.25c.41,0,.75.34.75.75s-.34.75-.75.75-.75-.34-.75-.75.34-.75.75-.75M1145.42,753c-.55,0-1,.45-1,1s.45,1,1,1,1-.45,1-1-.45-1-1-1h0Z"/>
      </g>
      <g class="cls-3">
        <path class="cls-4" d="M1148.75,753.25c.41,0,.75.34.75.75s-.34.75-.75.75-.75-.34-.75-.75.34-.75.75-.75M1148.75,753c-.55,0-1,.45-1,1s.45,1,1,1,1-.45,1-1-.45-1-1-1h0Z"/>
      </g>
    </g>
    <g>
      <rect class="cls-1" x="1102.25" y="589" width="57" height="57" rx="9.3" ry="9.3"/>
      <path class="cls-2" d="M1148.21,602c-.36-.3-.72-.59-1.07-.89-.37-.32-.75-.66-1.11-.99-.26-.25-.49-.53-.64-.86-.29-.63-.25-1.23.2-1.78.44-.54,1.32-.66,1.9-.13.24.22.4.5.53.79.01.03.02.05.03.08.03.08.1.11.18.11s.14-.04.18-.11c.06-.13.11-.26.18-.39.15-.27.35-.51.64-.66.34-.18.7-.2,1.05-.08.52.18.8.57.92,1.07.11.46.01.88-.23,1.29-.24.39-.54.71-.89,1.01-.6.52-1.22,1.04-1.84,1.55,0,0,0,0-.02,0h0Z"/>
      <circle class="cls-2" cx="1125.75" cy="638" r="1"/>
      <g class="cls-3">
        <path class="cls-4" d="M1129.08,637.25c.41,0,.75.34.75.75s-.34.75-.75.75-.75-.34-.75-.75.34-.75.75-.75M1129.08,637c-.55,0-1,.45-1,1s.45,1,1,1,1-.45,1-1-.45-1-1-1h0Z"/>
      </g>
      <g class="cls-3">
        <path class="cls-4" d="M1132.42,637.25c.41,0,.75.34.75.75s-.34.75-.75.75-.75-.34-.75-.75.34-.75.75-.75M1132.42,637c-.55,0-1,.45-1,1s.45,1,1,1,1-.45,1-1-.45-1-1-1h0Z"/>
      </g>
      <g class="cls-3">
        <path class="cls-4" d="M1135.75,637.25c.41,0,.75.34.75.75s-.34.75-.75.75-.75-.34-.75-.75.34-.75.75-.75M1135.75,637c-.55,0-1,.45-1,1s.45,1,1,1,1-.45,1-1-.45-1-1-1h0Z"/>
      </g>
    </g>
    <g>
      <rect class="cls-1" x="1195.25" y="631" width="57" height="57" rx="9.3" ry="9.3"/>
      <path class="cls-2" d="M1241.21,644c-.36-.3-.72-.59-1.07-.89-.37-.32-.75-.66-1.11-.99-.26-.25-.49-.53-.64-.86-.29-.63-.25-1.23.2-1.78.44-.54,1.32-.66,1.9-.13.24.22.4.5.53.79.01.03.02.05.03.08.03.08.1.11.18.11s.14-.04.18-.11c.06-.13.11-.26.18-.39.15-.27.35-.51.64-.66.34-.18.7-.2,1.05-.08.52.18.8.57.92,1.07.11.46.01.88-.23,1.29-.24.39-.54.71-.89,1.01-.6.52-1.22,1.04-1.84,1.55,0,0,0,0-.02,0h0Z"/>
      <circle class="cls-2" cx="1218.75" cy="680" r="1"/>
      <g class="cls-3">
        <path class="cls-4" d="M1222.08,679.25c.41,0,.75.34.75.75s-.34.75-.75.75-.75-.34-.75-.75.34-.75.75-.75M1222.08,679c-.55,0-1,.45-1,1s.45,1,1,1,1-.45,1-1-.45-1-1-1h0Z"/>
      </g>
      <g class="cls-3">
        <path class="cls-4" d="M1225.42,679.25c.41,0,.75.34.75.75s-.34.75-.75.75-.75-.34-.75-.75.34-.75.75-.75M1225.42,679c-.55,0-1,.45-1,1s.45,1,1,1,1-.45,1-1-.45-1-1-1h0Z"/>
      </g>
      <g class="cls-3">
        <path class="cls-4" d="M1228.75,679.25c.41,0,.75.34.75.75s-.34.75-.75.75-.75-.34-.75-.75.34-.75.75-.75M1228.75,679c-.55,0-1,.45-1,1s.45,1,1,1,1-.45,1-1-.45-1-1-1h0Z"/>
      </g>
    </g>
    <g>
      <rect class="cls-1" x="1196.25" y="715" width="57" height="57" rx="9.3" ry="9.3"/>
      <path class="cls-2" d="M1242.21,728c-.36-.3-.72-.59-1.07-.89-.37-.32-.75-.66-1.11-.99-.26-.25-.49-.53-.64-.86-.29-.63-.25-1.23.2-1.78.44-.54,1.32-.66,1.9-.13.24.22.4.5.53.79.01.03.02.05.03.08.03.08.1.11.18.11s.14-.04.18-.11c.06-.13.11-.26.18-.39.15-.27.35-.51.64-.66.34-.18.7-.2,1.05-.08.52.18.8.57.92,1.07.11.46.01.88-.23,1.29-.24.39-.54.71-.89,1.01-.6.52-1.22,1.04-1.84,1.55,0,0,0,0-.02,0h0Z"/>
      <circle class="cls-2" cx="1219.75" cy="764" r="1"/>
      <g class="cls-3">
        <path class="cls-4" d="M1223.08,763.25c.41,0,.75.34.75.75s-.34.75-.75.75-.75-.34-.75-.75.34-.75.75-.75M1223.08,763c-.55,0-1,.45-1,1s.45,1,1,1,1-.45,1-1-.45-1-1-1h0Z"/>
      </g>
      <g class="cls-3">
        <path class="cls-4" d="M1226.42,763.25c.41,0,.75.34.75.75s-.34.75-.75.75-.75-.34-.75-.75.34-.75.75-.75M1226.42,763c-.55,0-1,.45-1,1s.45,1,1,1,1-.45,1-1-.45-1-1-1h0Z"/>
      </g>
      <g class="cls-3">
        <path class="cls-4" d="M1229.75,763.25c.41,0,.75.34.75.75s-.34.75-.75.75-.75-.34-.75-.75.34-.75.75-.75M1229.75,763c-.55,0-1,.45-1,1s.45,1,1,1,1-.45,1-1-.45-1-1-1h0Z"/>
      </g>
    </g>
    <g>
      <rect class="cls-1" x="1015.25" y="497" width="57" height="57" rx="9.3" ry="9.3"/>
      <path class="cls-2" d="M1061.21,510c-.36-.3-.72-.59-1.07-.89-.37-.32-.75-.66-1.11-.99-.26-.25-.49-.53-.64-.86-.29-.63-.25-1.23.2-1.78.44-.54,1.32-.66,1.9-.13.24.22.4.5.53.79.01.03.02.05.03.08.03.08.1.11.18.11s.14-.04.18-.11c.06-.13.11-.26.18-.39.15-.27.35-.51.64-.66.34-.18.7-.2,1.05-.08.52.18.8.57.92,1.07.11.46.01.88-.23,1.29-.24.39-.54.71-.89,1.01-.6.52-1.22,1.04-1.84,1.55,0,0,0,0-.02,0h0Z"/>
      <circle class="cls-2" cx="1038.75" cy="546" r="1"/>
      <g class="cls-3">
        <path class="cls-4" d="M1042.08,545.25c.41,0,.75.34.75.75s-.34.75-.75.75-.75-.34-.75-.75.34-.75.75-.75M1042.08,545c-.55,0-1,.45-1,1s.45,1,1,1,1-.45,1-1-.45-1-1-1h0Z"/>
      </g>
      <g class="cls-3">
        <path class="cls-4" d="M1045.42,545.25c.41,0,.75.34.75.75s-.34.75-.75.75-.75-.34-.75-.75.34-.75.75-.75M1045.42,545c-.55,0-1,.45-1,1s.45,1,1,1,1-.45,1-1-.45-1-1-1h0Z"/>
      </g>
      <g class="cls-3">
        <path class="cls-4" d="M1048.75,545.25c.41,0,.75.34.75.75s-.34.75-.75.75-.75-.34-.75-.75.34-.75.75-.75M1048.75,545c-.55,0-1,.45-1,1s.45,1,1,1,1-.45,1-1-.45-1-1-1h0Z"/>
      </g>
    </g>
    <g>
      <rect class="cls-1" x="1088.25" y="448" width="57" height="57" rx="9.3" ry="9.3"/>
      <path class="cls-2" d="M1134.21,461c-.36-.3-.72-.59-1.07-.89-.37-.32-.75-.66-1.11-.99-.26-.25-.49-.53-.64-.86-.29-.63-.25-1.23.2-1.78.44-.54,1.32-.66,1.9-.13.24.22.4.5.53.79.01.03.02.05.03.08.03.08.1.11.18.11s.14-.04.18-.11c.06-.13.11-.26.18-.39.15-.27.35-.51.64-.66.34-.18.7-.2,1.05-.08.52.18.8.57.92,1.07.11.46.01.88-.23,1.29-.24.39-.54.71-.89,1.01-.6.52-1.22,1.04-1.84,1.55,0,0,0,0-.02,0h0Z"/>
      <circle class="cls-2" cx="1111.75" cy="497" r="1"/>
      <g class="cls-3">
        <path class="cls-4" d="M1115.08,496.25c.41,0,.75.34.75.75s-.34.75-.75.75-.75-.34-.75-.75.34-.75.75-.75M1115.08,496c-.55,0-1,.45-1,1s.45,1,1,1,1-.45,1-1-.45-1-1-1h0Z"/>
      </g>
      <g class="cls-3">
        <path class="cls-4" d="M1118.42,496.25c.41,0,.75.34.75.75s-.34.75-.75.75-.75-.34-.75-.75.34-.75.75-.75M1118.42,496c-.55,0-1,.45-1,1s.45,1,1,1,1-.45,1-1-.45-1-1-1h0Z"/>
      </g>
      <g class="cls-3">
        <path class="cls-4" d="M1121.75,496.25c.41,0,.75.34.75.75s-.34.75-.75.75-.75-.34-.75-.75.34-.75.75-.75M1121.75,496c-.55,0-1,.45-1,1s.45,1,1,1,1-.45,1-1-.45-1-1-1h0Z"/>
      </g>
    </g>
    <g>
      <rect class="cls-1" x="909.25" y="400" width="57" height="57" rx="9.3" ry="9.3"/>
      <path class="cls-2" d="M955.21,413c-.36-.3-.72-.59-1.07-.89-.37-.32-.75-.66-1.11-.99-.26-.25-.49-.53-.64-.86-.29-.63-.25-1.23.2-1.78.44-.54,1.32-.66,1.9-.13.24.22.4.5.53.79.01.03.02.05.03.08.03.08.1.11.18.11s.14-.04.18-.11c.06-.13.11-.26.18-.39.15-.27.35-.51.64-.66.34-.18.7-.2,1.05-.08.52.18.8.57.92,1.07.11.46.01.88-.23,1.29-.24.39-.54.71-.89,1.01-.6.52-1.22,1.04-1.84,1.55,0,0,0,0-.02,0h0Z"/>
      <circle class="cls-2" cx="932.75" cy="449" r="1"/>
      <g class="cls-3">
        <path class="cls-4" d="M936.08,448.25c.41,0,.75.34.75.75s-.34.75-.75.75-.75-.34-.75-.75.34-.75.75-.75M936.08,448c-.55,0-1,.45-1,1s.45,1,1,1,1-.45,1-1-.45-1-1-1h0Z"/>
      </g>
      <g class="cls-3">
        <path class="cls-4" d="M939.42,448.25c.41,0,.75.34.75.75s-.34.75-.75.75-.75-.34-.75-.75.34-.75.75-.75M939.42,448c-.55,0-1,.45-1,1s.45,1,1,1,1-.45,1-1-.45-1-1-1h0Z"/>
      </g>
      <g class="cls-3">
        <path class="cls-4" d="M942.75,448.25c.41,0,.75.34.75.75s-.34.75-.75.75-.75-.34-.75-.75.34-.75.75-.75M942.75,448c-.55,0-1,.45-1,1s.45,1,1,1,1-.45,1-1-.45-1-1-1h0Z"/>
      </g>
    </g>
    <g>
      <rect class="cls-1" x="1108.25" y="217" width="57" height="57" rx="9.3" ry="9.3"/>
      <path class="cls-2" d="M1154.21,230c-.36-.3-.72-.59-1.07-.89-.37-.32-.75-.66-1.11-.99-.26-.25-.49-.53-.64-.86-.29-.63-.25-1.23.2-1.78.44-.54,1.32-.66,1.9-.13.24.22.4.5.53.79.01.03.02.05.03.08.03.08.1.11.18.11s.14-.04.18-.11c.06-.13.11-.26.18-.39.15-.27.35-.51.64-.66.34-.18.7-.2,1.05-.08.52.18.8.57.92,1.07.11.46.01.88-.23,1.29-.24.39-.54.71-.89,1.01-.6.52-1.22,1.04-1.84,1.55,0,0,0,0-.02,0h0Z"/>
      <circle class="cls-2" cx="1131.75" cy="266" r="1"/>
      <g class="cls-3">
        <path class="cls-4" d="M1135.08,265.25c.41,0,.75.34.75.75s-.34.75-.75.75-.75-.34-.75-.75.34-.75.75-.75M1135.08,265c-.55,0-1,.45-1,1s.45,1,1,1,1-.45,1-1-.45-1-1-1h0Z"/>
      </g>
      <g class="cls-3">
        <path class="cls-4" d="M1138.42,265.25c.41,0,.75.34.75.75s-.34.75-.75.75-.75-.34-.75-.75.34-.75.75-.75M1138.42,265c-.55,0-1,.45-1,1s.45,1,1,1,1-.45,1-1-.45-1-1-1h0Z"/>
      </g>
      <g class="cls-3">
        <path class="cls-4" d="M1141.75,265.25c.41,0,.75.34.75.75s-.34.75-.75.75-.75-.34-.75-.75.34-.75.75-.75M1141.75,265c-.55,0-1,.45-1,1s.45,1,1,1,1-.45,1-1-.45-1-1-1h0Z"/>
      </g>
    </g>
    <g>
      <rect class="cls-1" x="1158.25" y="288" width="57" height="57" rx="9.3" ry="9.3"/>
      <path class="cls-2" d="M1204.21,301c-.36-.3-.72-.59-1.07-.89-.37-.32-.75-.66-1.11-.99-.26-.25-.49-.53-.64-.86-.29-.63-.25-1.23.2-1.78.44-.54,1.32-.66,1.9-.13.24.22.4.5.53.79.01.03.02.05.03.08.03.08.1.11.18.11s.14-.04.18-.11c.06-.13.11-.26.18-.39.15-.27.35-.51.64-.66.34-.18.7-.2,1.05-.08.52.18.8.57.92,1.07.11.46.01.88-.23,1.29-.24.39-.54.71-.89,1.01-.6.52-1.22,1.04-1.84,1.55,0,0,0,0-.02,0h0Z"/>
      <circle class="cls-2" cx="1181.75" cy="337" r="1"/>
      <g class="cls-3">
        <path class="cls-4" d="M1185.08,336.25c.41,0,.75.34.75.75s-.34.75-.75.75-.75-.34-.75-.75.34-.75.75-.75M1185.08,336c-.55,0-1,.45-1,1s.45,1,1,1,1-.45,1-1-.45-1-1-1h0Z"/>
      </g>
      <g class="cls-3">
        <path class="cls-4" d="M1188.42,336.25c.41,0,.75.34.75.75s-.34.75-.75.75-.75-.34-.75-.75.34-.75.75-.75M1188.42,336c-.55,0-1,.45-1,1s.45,1,1,1,1-.45,1-1-.45-1-1-1h0Z"/>
      </g>
      <g class="cls-3">
        <path class="cls-4" d="M1191.75,336.25c.41,0,.75.34.75.75s-.34.75-.75.75-.75-.34-.75-.75.34-.75.75-.75M1191.75,336c-.55,0-1,.45-1,1s.45,1,1,1,1-.45,1-1-.45-1-1-1h0Z"/>
      </g>
    </g>
    <g>
      <rect class="cls-1" x="1157.25" y="373" width="57" height="57" rx="9.3" ry="9.3"/>
      <path class="cls-2" d="M1203.21,386c-.36-.3-.72-.59-1.07-.89-.37-.32-.75-.66-1.11-.99-.26-.25-.49-.53-.64-.86-.29-.63-.25-1.23.2-1.78.44-.54,1.32-.66,1.9-.13.24.22.4.5.53.79.01.03.02.05.03.08.03.08.1.11.18.11s.14-.04.18-.11c.06-.13.11-.26.18-.39.15-.27.35-.51.64-.66.34-.18.7-.2,1.05-.08.52.18.8.57.92,1.07.11.46.01.88-.23,1.29-.24.39-.54.71-.89,1.01-.6.52-1.22,1.04-1.84,1.55,0,0,0,0-.02,0h0Z"/>
      <circle class="cls-2" cx="1180.75" cy="422" r="1"/>
      <g class="cls-3">
        <path class="cls-4" d="M1184.08,421.25c.41,0,.75.34.75.75s-.34.75-.75.75-.75-.34-.75-.75.34-.75.75-.75M1184.08,421c-.55,0-1,.45-1,1s.45,1,1,1,1-.45,1-1-.45-1-1-1h0Z"/>
      </g>
      <g class="cls-3">
        <path class="cls-4" d="M1187.42,421.25c.41,0,.75.34.75.75s-.34.75-.75.75-.75-.34-.75-.75.34-.75.75-.75M1187.42,421c-.55,0-1,.45-1,1s.45,1,1,1,1-.45,1-1-.45-1-1-1h0Z"/>
      </g>
      <g class="cls-3">
        <path class="cls-4" d="M1190.75,421.25c.41,0,.75.34.75.75s-.34.75-.75.75-.75-.34-.75-.75.34-.75.75-.75M1190.75,421c-.55,0-1,.45-1,1s.45,1,1,1,1-.45,1-1-.45-1-1-1h0Z"/>
      </g>
    </g>
    <g>
      <rect class="cls-1" x="1080.25" y="295" width="57" height="57" rx="9.3" ry="9.3"/>
      <path class="cls-2" d="M1126.21,308c-.36-.3-.72-.59-1.07-.89-.37-.32-.75-.66-1.11-.99-.26-.25-.49-.53-.64-.86-.29-.63-.25-1.23.2-1.78.44-.54,1.32-.66,1.9-.13.24.22.4.5.53.79.01.03.02.05.03.08.03.08.1.11.18.11s.14-.04.18-.11c.06-.13.11-.26.18-.39.15-.27.35-.51.64-.66.34-.18.7-.2,1.05-.08.52.18.8.57.92,1.07.11.46.01.88-.23,1.29-.24.39-.54.71-.89,1.01-.6.52-1.22,1.04-1.84,1.55,0,0,0,0-.02,0h0Z"/>
      <circle class="cls-2" cx="1103.75" cy="344" r="1"/>
      <g class="cls-3">
        <path class="cls-4" d="M1107.08,343.25c.41,0,.75.34.75.75s-.34.75-.75.75-.75-.34-.75-.75.34-.75.75-.75M1107.08,343c-.55,0-1,.45-1,1s.45,1,1,1,1-.45,1-1-.45-1-1-1h0Z"/>
      </g>
      <g class="cls-3">
        <path class="cls-4" d="M1110.42,343.25c.41,0,.75.34.75.75s-.34.75-.75.75-.75-.34-.75-.75.34-.75.75-.75M1110.42,343c-.55,0-1,.45-1,1s.45,1,1,1,1-.45,1-1-.45-1-1-1h0Z"/>
      </g>
      <g class="cls-3">
        <path class="cls-4" d="M1113.75,343.25c.41,0,.75.34.75.75s-.34.75-.75.75-.75-.34-.75-.75.34-.75.75-.75M1113.75,343c-.55,0-1,.45-1,1s.45,1,1,1,1-.45,1-1-.45-1-1-1h0Z"/>
      </g>
    </g>
    <g>
      <rect class="cls-1" x="1005.25" y="226" width="57" height="57" rx="9.3" ry="9.3"/>
      <path class="cls-2" d="M1051.21,239c-.36-.3-.72-.59-1.07-.89-.37-.32-.75-.66-1.11-.99-.26-.25-.49-.53-.64-.86-.29-.63-.25-1.23.2-1.78.44-.54,1.32-.66,1.9-.13.24.22.4.5.53.79.01.03.02.05.03.08.03.08.1.11.18.11s.14-.04.18-.11c.06-.13.11-.26.18-.39.15-.27.35-.51.64-.66.34-.18.7-.2,1.05-.08.52.18.8.57.92,1.07.11.46.01.88-.23,1.29-.24.39-.54.71-.89,1.01-.6.52-1.22,1.04-1.84,1.55,0,0,0,0-.02,0h0Z"/>
      <circle class="cls-2" cx="1028.75" cy="275" r="1"/>
      <g class="cls-3">
        <path class="cls-4" d="M1032.08,274.25c.41,0,.75.34.75.75s-.34.75-.75.75-.75-.34-.75-.75.34-.75.75-.75M1032.08,274c-.55,0-1,.45-1,1s.45,1,1,1,1-.45,1-1-.45-1-1-1h0Z"/>
      </g>
      <g class="cls-3">
        <path class="cls-4" d="M1035.42,274.25c.41,0,.75.34.75.75s-.34.75-.75.75-.75-.34-.75-.75.34-.75.75-.75M1035.42,274c-.55,0-1,.45-1,1s.45,1,1,1,1-.45,1-1-.45-1-1-1h0Z"/>
      </g>
      <g class="cls-3">
        <path class="cls-4" d="M1038.75,274.25c.41,0,.75.34.75.75s-.34.75-.75.75-.75-.34-.75-.75.34-.75.75-.75M1038.75,274c-.55,0-1,.45-1,1s.45,1,1,1,1-.45,1-1-.45-1-1-1h0Z"/>
      </g>
    </g>
    <g>
      <rect class="cls-1" x="1232.25" y="309" width="57" height="57" rx="9.3" ry="9.3"/>
      <path class="cls-2" d="M1278.21,322c-.36-.3-.72-.59-1.07-.89-.37-.32-.75-.66-1.11-.99-.26-.25-.49-.53-.64-.86-.29-.63-.25-1.23.2-1.78.44-.54,1.32-.66,1.9-.13.24.22.4.5.53.79.01.03.02.05.03.08.03.08.1.11.18.11s.14-.04.18-.11c.06-.13.11-.26.18-.39.15-.27.35-.51.64-.66.34-.18.7-.2,1.05-.08.52.18.8.57.92,1.07.11.46.01.88-.23,1.29-.24.39-.54.71-.89,1.01-.6.52-1.22,1.04-1.84,1.55,0,0,0,0-.02,0h0Z"/>
      <circle class="cls-2" cx="1255.75" cy="358" r="1"/>
      <g class="cls-3">
        <path class="cls-4" d="M1259.08,357.25c.41,0,.75.34.75.75s-.34.75-.75.75-.75-.34-.75-.75.34-.75.75-.75M1259.08,357c-.55,0-1,.45-1,1s.45,1,1,1,1-.45,1-1-.45-1-1-1h0Z"/>
      </g>
      <g class="cls-3">
        <path class="cls-4" d="M1262.42,357.25c.41,0,.75.34.75.75s-.34.75-.75.75-.75-.34-.75-.75.34-.75.75-.75M1262.42,357c-.55,0-1,.45-1,1s.45,1,1,1,1-.45,1-1-.45-1-1-1h0Z"/>
      </g>
      <g class="cls-3">
        <path class="cls-4" d="M1265.75,357.25c.41,0,.75.34.75.75s-.34.75-.75.75-.75-.34-.75-.75.34-.75.75-.75M1265.75,357c-.55,0-1,.45-1,1s.45,1,1,1,1-.45,1-1-.45-1-1-1h0Z"/>
      </g>
    </g>
    <g>
      <rect class="cls-1" x="960.25" y="140" width="57" height="57" rx="9.3" ry="9.3"/>
      <path class="cls-2" d="M1006.21,153c-.36-.3-.72-.59-1.07-.89-.37-.32-.75-.66-1.11-.99-.26-.25-.49-.53-.64-.86-.29-.63-.25-1.23.2-1.78.44-.54,1.32-.66,1.9-.13.24.22.4.5.53.79.01.03.02.05.03.08.03.08.1.11.18.11s.14-.04.18-.11c.06-.13.11-.26.18-.39.15-.27.35-.51.64-.66.34-.18.7-.2,1.05-.08.52.18.8.57.92,1.07.11.46.01.88-.23,1.29-.24.39-.54.71-.89,1.01-.6.52-1.22,1.04-1.84,1.55,0,0,0,0-.02,0h0Z"/>
      <circle class="cls-2" cx="983.75" cy="189" r="1"/>
      <g class="cls-3">
        <path class="cls-4" d="M987.08,188.25c.41,0,.75.34.75.75s-.34.75-.75.75-.75-.34-.75-.75.34-.75.75-.75M987.08,188c-.55,0-1,.45-1,1s.45,1,1,1,1-.45,1-1-.45-1-1-1h0Z"/>
      </g>
      <g class="cls-3">
        <path class="cls-4" d="M990.42,188.25c.41,0,.75.34.75.75s-.34.75-.75.75-.75-.34-.75-.75.34-.75.75-.75M990.42,188c-.55,0-1,.45-1,1s.45,1,1,1,1-.45,1-1-.45-1-1-1h0Z"/>
      </g>
      <g class="cls-3">
        <path class="cls-4" d="M993.75,188.25c.41,0,.75.34.75.75s-.34.75-.75.75-.75-.34-.75-.75.34-.75.75-.75M993.75,188c-.55,0-1,.45-1,1s.45,1,1,1,1-.45,1-1-.45-1-1-1h0Z"/>
      </g>
    </g>
    <g>
      <rect class="cls-1" x="923.25" y="238" width="57" height="57" rx="9.3" ry="9.3"/>
      <path class="cls-2" d="M969.21,251c-.36-.3-.72-.59-1.07-.89-.37-.32-.75-.66-1.11-.99-.26-.25-.49-.53-.64-.86-.29-.63-.25-1.23.2-1.78.44-.54,1.32-.66,1.9-.13.24.22.4.5.53.79.01.03.02.05.03.08.03.08.1.11.18.11s.14-.04.18-.11c.06-.13.11-.26.18-.39.15-.27.35-.51.64-.66.34-.18.7-.2,1.05-.08.52.18.8.57.92,1.07.11.46.01.88-.23,1.29-.24.39-.54.71-.89,1.01-.6.52-1.22,1.04-1.84,1.55,0,0,0,0-.02,0h0Z"/>
      <circle class="cls-2" cx="946.75" cy="287" r="1"/>
      <g class="cls-3">
        <path class="cls-4" d="M950.08,286.25c.41,0,.75.34.75.75s-.34.75-.75.75-.75-.34-.75-.75.34-.75.75-.75M950.08,286c-.55,0-1,.45-1,1s.45,1,1,1,1-.45,1-1-.45-1-1-1h0Z"/>
      </g>
      <g class="cls-3">
        <path class="cls-4" d="M953.42,286.25c.41,0,.75.34.75.75s-.34.75-.75.75-.75-.34-.75-.75.34-.75.75-.75M953.42,286c-.55,0-1,.45-1,1s.45,1,1,1,1-.45,1-1-.45-1-1-1h0Z"/>
      </g>
      <g class="cls-3">
        <path class="cls-4" d="M956.75,286.25c.41,0,.75.34.75.75s-.34.75-.75.75-.75-.34-.75-.75.34-.75.75-.75M956.75,286c-.55,0-1,.45-1,1s.45,1,1,1,1-.45,1-1-.45-1-1-1h0Z"/>
      </g>
    </g>
    <g>
      <rect class="cls-1" x="854.25" y="190" width="57" height="57" rx="9.3" ry="9.3"/>
      <path class="cls-2" d="M900.21,203c-.36-.3-.72-.59-1.07-.89-.37-.32-.75-.66-1.11-.99-.26-.25-.49-.53-.64-.86-.29-.63-.25-1.23.2-1.78.44-.54,1.32-.66,1.9-.13.24.22.4.5.53.79.01.03.02.05.03.08.03.08.1.11.18.11s.14-.04.18-.11c.06-.13.11-.26.18-.39.15-.27.35-.51.64-.66.34-.18.7-.2,1.05-.08.52.18.8.57.92,1.07.11.46.01.88-.23,1.29-.24.39-.54.71-.89,1.01-.6.52-1.22,1.04-1.84,1.55,0,0,0,0-.02,0h0Z"/>
      <circle class="cls-2" cx="877.75" cy="239" r="1"/>
      <g class="cls-3">
        <path class="cls-4" d="M881.08,238.25c.41,0,.75.34.75.75s-.34.75-.75.75-.75-.34-.75-.75.34-.75.75-.75M881.08,238c-.55,0-1,.45-1,1s.45,1,1,1,1-.45,1-1-.45-1-1-1h0Z"/>
      </g>
      <g class="cls-3">
        <path class="cls-4" d="M884.42,238.25c.41,0,.75.34.75.75s-.34.75-.75.75-.75-.34-.75-.75.34-.75.75-.75M884.42,238c-.55,0-1,.45-1,1s.45,1,1,1,1-.45,1-1-.45-1-1-1h0Z"/>
      </g>
      <g class="cls-3">
        <path class="cls-4" d="M887.75,238.25c.41,0,.75.34.75.75s-.34.75-.75.75-.75-.34-.75-.75.34-.75.75-.75M887.75,238c-.55,0-1,.45-1,1s.45,1,1,1,1-.45,1-1-.45-1-1-1h0Z"/>
      </g>
    </g>
    <g>
      <rect class="cls-1" x="831.25" y="335" width="57" height="57" rx="9.3" ry="9.3"/>
      <path class="cls-2" d="M877.21,348c-.36-.3-.72-.59-1.07-.89-.37-.32-.75-.66-1.11-.99-.26-.25-.49-.53-.64-.86-.29-.63-.25-1.23.2-1.78.44-.54,1.32-.66,1.9-.13.24.22.4.5.53.79.01.03.02.05.03.08.03.08.1.11.18.11s.14-.04.18-.11c.06-.13.11-.26.18-.39.15-.27.35-.51.64-.66.34-.18.7-.2,1.05-.08.52.18.8.57.92,1.07.11.46.01.88-.23,1.29-.24.39-.54.71-.89,1.01-.6.52-1.22,1.04-1.84,1.55,0,0,0,0-.02,0h0Z"/>
      <circle class="cls-2" cx="854.75" cy="384" r="1"/>
      <g class="cls-3">
        <path class="cls-4" d="M858.08,383.25c.41,0,.75.34.75.75s-.34.75-.75.75-.75-.34-.75-.75.34-.75.75-.75M858.08,383c-.55,0-1,.45-1,1s.45,1,1,1,1-.45,1-1-.45-1-1-1h0Z"/>
      </g>
      <g class="cls-3">
        <path class="cls-4" d="M861.42,383.25c.41,0,.75.34.75.75s-.34.75-.75.75-.75-.34-.75-.75.34-.75.75-.75M861.42,383c-.55,0-1,.45-1,1s.45,1,1,1,1-.45,1-1-.45-1-1-1h0Z"/>
      </g>
      <g class="cls-3">
        <path class="cls-4" d="M864.75,383.25c.41,0,.75.34.75.75s-.34.75-.75.75-.75-.34-.75-.75.34-.75.75-.75M864.75,383c-.55,0-1,.45-1,1s.45,1,1,1,1-.45,1-1-.45-1-1-1h0Z"/>
      </g>
    </g>
    <g>
      <rect class="cls-1" x="814.25" y="259" width="57" height="57" rx="9.3" ry="9.3"/>
      <path class="cls-2" d="M860.21,272c-.36-.3-.72-.59-1.07-.89-.37-.32-.75-.66-1.11-.99-.26-.25-.49-.53-.64-.86-.29-.63-.25-1.23.2-1.78.44-.54,1.32-.66,1.9-.13.24.22.4.5.53.79.01.03.02.05.03.08.03.08.1.11.18.11s.14-.04.18-.11c.06-.13.11-.26.18-.39.15-.27.35-.51.64-.66.34-.18.7-.2,1.05-.08.52.18.8.57.92,1.07.11.46.01.88-.23,1.29-.24.39-.54.71-.89,1.01-.6.52-1.22,1.04-1.84,1.55,0,0,0,0-.02,0h0Z"/>
      <circle class="cls-2" cx="837.75" cy="308" r="1"/>
      <g class="cls-3">
        <path class="cls-4" d="M841.08,307.25c.41,0,.75.34.75.75s-.34.75-.75.75-.75-.34-.75-.75.34-.75.75-.75M841.08,307c-.55,0-1,.45-1,1s.45,1,1,1,1-.45,1-1-.45-1-1-1h0Z"/>
      </g>
      <g class="cls-3">
        <path class="cls-4" d="M844.42,307.25c.41,0,.75.34.75.75s-.34.75-.75.75-.75-.34-.75-.75.34-.75.75-.75M844.42,307c-.55,0-1,.45-1,1s.45,1,1,1,1-.45,1-1-.45-1-1-1h0Z"/>
      </g>
      <g class="cls-3">
        <path class="cls-4" d="M847.75,307.25c.41,0,.75.34.75.75s-.34.75-.75.75-.75-.34-.75-.75.34-.75.75-.75M847.75,307c-.55,0-1,.45-1,1s.45,1,1,1,1-.45,1-1-.45-1-1-1h0Z"/>
      </g>
    </g>
    <g>
      <rect class="cls-1" x="736.25" y="262" width="57" height="57" rx="9.3" ry="9.3"/>
      <path class="cls-2" d="M782.21,275c-.36-.3-.72-.59-1.07-.89-.37-.32-.75-.66-1.11-.99-.26-.25-.49-.53-.64-.86-.29-.63-.25-1.23.2-1.78.44-.54,1.32-.66,1.9-.13.24.22.4.5.53.79.01.03.02.05.03.08.03.08.1.11.18.11s.14-.04.18-.11c.06-.13.11-.26.18-.39.15-.27.35-.51.64-.66.34-.18.7-.2,1.05-.08.52.18.8.57.92,1.07.11.46.01.88-.23,1.29-.24.39-.54.71-.89,1.01-.6.52-1.22,1.04-1.84,1.55,0,0,0,0-.02,0h0Z"/>
      <circle class="cls-2" cx="759.75" cy="311" r="1"/>
      <g class="cls-3">
        <path class="cls-4" d="M763.08,310.25c.41,0,.75.34.75.75s-.34.75-.75.75-.75-.34-.75-.75.34-.75.75-.75M763.08,310c-.55,0-1,.45-1,1s.45,1,1,1,1-.45,1-1-.45-1-1-1h0Z"/>
      </g>
      <g class="cls-3">
        <path class="cls-4" d="M766.42,310.25c.41,0,.75.34.75.75s-.34.75-.75.75-.75-.34-.75-.75.34-.75.75-.75M766.42,310c-.55,0-1,.45-1,1s.45,1,1,1,1-.45,1-1-.45-1-1-1h0Z"/>
      </g>
      <g class="cls-3">
        <path class="cls-4" d="M769.75,310.25c.41,0,.75.34.75.75s-.34.75-.75.75-.75-.34-.75-.75.34-.75.75-.75M769.75,310c-.55,0-1,.45-1,1s.45,1,1,1,1-.45,1-1-.45-1-1-1h0Z"/>
      </g>
    </g>
    <g>
      <rect class="cls-1" x="603.25" y="306" width="57" height="57" rx="9.3" ry="9.3"/>
      <path class="cls-2" d="M649.21,319c-.36-.3-.72-.59-1.07-.89-.37-.32-.75-.66-1.11-.99-.26-.25-.49-.53-.64-.86-.29-.63-.25-1.23.2-1.78.44-.54,1.32-.66,1.9-.13.24.22.4.5.53.79.01.03.02.05.03.08.03.08.1.11.18.11s.14-.04.18-.11c.06-.13.11-.26.18-.39.15-.27.35-.51.64-.66.34-.18.7-.2,1.05-.08.52.18.8.57.92,1.07.11.46.01.88-.23,1.29-.24.39-.54.71-.89,1.01-.6.52-1.22,1.04-1.84,1.55,0,0,0,0-.02,0h0Z"/>
      <circle class="cls-2" cx="626.75" cy="355" r="1"/>
      <g class="cls-3">
        <path class="cls-4" d="M630.08,354.25c.41,0,.75.34.75.75s-.34.75-.75.75-.75-.34-.75-.75.34-.75.75-.75M630.08,354c-.55,0-1,.45-1,1s.45,1,1,1,1-.45,1-1-.45-1-1-1h0Z"/>
      </g>
      <g class="cls-3">
        <path class="cls-4" d="M633.42,354.25c.41,0,.75.34.75.75s-.34.75-.75.75-.75-.34-.75-.75.34-.75.75-.75M633.42,354c-.55,0-1,.45-1,1s.45,1,1,1,1-.45,1-1-.45-1-1-1h0Z"/>
      </g>
      <g class="cls-3">
        <path class="cls-4" d="M636.75,354.25c.41,0,.75.34.75.75s-.34.75-.75.75-.75-.34-.75-.75.34-.75.75-.75M636.75,354c-.55,0-1,.45-1,1s.45,1,1,1,1-.45,1-1-.45-1-1-1h0Z"/>
      </g>
    </g>
    <g>
      <rect class="cls-1" x="834.25" y="119" width="57" height="57" rx="9.3" ry="9.3"/>
      <path class="cls-2" d="M880.21,132c-.36-.3-.72-.59-1.07-.89-.37-.32-.75-.66-1.11-.99-.26-.25-.49-.53-.64-.86-.29-.63-.25-1.23.2-1.78.44-.54,1.32-.66,1.9-.13.24.22.4.5.53.79.01.03.02.05.03.08.03.08.1.11.18.11s.14-.04.18-.11c.06-.13.11-.26.18-.39.15-.27.35-.51.64-.66.34-.18.7-.2,1.05-.08.52.18.8.57.92,1.07.11.46.01.88-.23,1.29-.24.39-.54.71-.89,1.01-.6.52-1.22,1.04-1.84,1.55,0,0,0,0-.02,0h0Z"/>
      <circle class="cls-2" cx="857.75" cy="168" r="1"/>
      <g class="cls-3">
        <path class="cls-4" d="M861.08,167.25c.41,0,.75.34.75.75s-.34.75-.75.75-.75-.34-.75-.75.34-.75.75-.75M861.08,167c-.55,0-1,.45-1,1s.45,1,1,1,1-.45,1-1-.45-1-1-1h0Z"/>
      </g>
      <g class="cls-3">
        <path class="cls-4" d="M864.42,167.25c.41,0,.75.34.75.75s-.34.75-.75.75-.75-.34-.75-.75.34-.75.75-.75M864.42,167c-.55,0-1,.45-1,1s.45,1,1,1,1-.45,1-1-.45-1-1-1h0Z"/>
      </g>
      <g class="cls-3">
        <path class="cls-4" d="M867.75,167.25c.41,0,.75.34.75.75s-.34.75-.75.75-.75-.34-.75-.75.34-.75.75-.75M867.75,167c-.55,0-1,.45-1,1s.45,1,1,1,1-.45,1-1-.45-1-1-1h0Z"/>
      </g>
    </g>
    <g>
      <rect class="cls-1" x="722.25" y="161" width="57" height="57" rx="9.3" ry="9.3"/>
      <path class="cls-2" d="M768.21,174c-.36-.3-.72-.59-1.07-.89-.37-.32-.75-.66-1.11-.99-.26-.25-.49-.53-.64-.86-.29-.63-.25-1.23.2-1.78.44-.54,1.32-.66,1.9-.13.24.22.4.5.53.79.01.03.02.05.03.08.03.08.1.11.18.11s.14-.04.18-.11c.06-.13.11-.26.18-.39.15-.27.35-.51.64-.66.34-.18.7-.2,1.05-.08.52.18.8.57.92,1.07.11.46.01.88-.23,1.29-.24.39-.54.71-.89,1.01-.6.52-1.22,1.04-1.84,1.55,0,0,0,0-.02,0h0Z"/>
      <circle class="cls-2" cx="745.75" cy="210" r="1"/>
      <g class="cls-3">
        <path class="cls-4" d="M749.08,209.25c.41,0,.75.34.75.75s-.34.75-.75.75-.75-.34-.75-.75.34-.75.75-.75M749.08,209c-.55,0-1,.45-1,1s.45,1,1,1,1-.45,1-1-.45-1-1-1h0Z"/>
      </g>
      <g class="cls-3">
        <path class="cls-4" d="M752.42,209.25c.41,0,.75.34.75.75s-.34.75-.75.75-.75-.34-.75-.75.34-.75.75-.75M752.42,209c-.55,0-1,.45-1,1s.45,1,1,1,1-.45,1-1-.45-1-1-1h0Z"/>
      </g>
      <g class="cls-3">
        <path class="cls-4" d="M755.75,209.25c.41,0,.75.34.75.75s-.34.75-.75.75-.75-.34-.75-.75.34-.75.75-.75M755.75,209c-.55,0-1,.45-1,1s.45,1,1,1,1-.45,1-1-.45-1-1-1h0Z"/>
      </g>
    </g>
    <g>
      <rect class="cls-1" x="747.25" y="337" width="57" height="57" rx="9.3" ry="9.3"/>
      <path class="cls-2" d="M793.21,350c-.36-.3-.72-.59-1.07-.89-.37-.32-.75-.66-1.11-.99-.26-.25-.49-.53-.64-.86-.29-.63-.25-1.23.2-1.78.44-.54,1.32-.66,1.9-.13.24.22.4.5.53.79.01.03.02.05.03.08.03.08.1.11.18.11s.14-.04.18-.11c.06-.13.11-.26.18-.39.15-.27.35-.51.64-.66.34-.18.7-.2,1.05-.08.52.18.8.57.92,1.07.11.46.01.88-.23,1.29-.24.39-.54.71-.89,1.01-.6.52-1.22,1.04-1.84,1.55,0,0,0,0-.02,0h0Z"/>
      <circle class="cls-2" cx="770.75" cy="386" r="1"/>
      <g class="cls-3">
        <path class="cls-4" d="M774.08,385.25c.41,0,.75.34.75.75s-.34.75-.75.75-.75-.34-.75-.75.34-.75.75-.75M774.08,385c-.55,0-1,.45-1,1s.45,1,1,1,1-.45,1-1-.45-1-1-1h0Z"/>
      </g>
      <g class="cls-3">
        <path class="cls-4" d="M777.42,385.25c.41,0,.75.34.75.75s-.34.75-.75.75-.75-.34-.75-.75.34-.75.75-.75M777.42,385c-.55,0-1,.45-1,1s.45,1,1,1,1-.45,1-1-.45-1-1-1h0Z"/>
      </g>
      <g class="cls-3">
        <path class="cls-4" d="M780.75,385.25c.41,0,.75.34.75.75s-.34.75-.75.75-.75-.34-.75-.75.34-.75.75-.75M780.75,385c-.55,0-1,.45-1,1s.45,1,1,1,1-.45,1-1-.45-1-1-1h0Z"/>
      </g>
    </g>
    <g>
      <rect class="cls-1" x="1072.25" y="377" width="57" height="57" rx="9.3" ry="9.3"/>
      <path class="cls-2" d="M1118.21,390c-.36-.3-.72-.59-1.07-.89-.37-.32-.75-.66-1.11-.99-.26-.25-.49-.53-.64-.86-.29-.63-.25-1.23.2-1.78.44-.54,1.32-.66,1.9-.13.24.22.4.5.53.79.01.03.02.05.03.08.03.08.1.11.18.11s.14-.04.18-.11c.06-.13.11-.26.18-.39.15-.27.35-.51.64-.66.34-.18.7-.2,1.05-.08.52.18.8.57.92,1.07.11.46.01.88-.23,1.29-.24.39-.54.71-.89,1.01-.6.52-1.22,1.04-1.84,1.55,0,0,0,0-.02,0h0Z"/>
      <circle class="cls-2" cx="1095.75" cy="426" r="1"/>
      <g class="cls-3">
        <path class="cls-4" d="M1099.08,425.25c.41,0,.75.34.75.75s-.34.75-.75.75-.75-.34-.75-.75.34-.75.75-.75M1099.08,425c-.55,0-1,.45-1,1s.45,1,1,1,1-.45,1-1-.45-1-1-1h0Z"/>
      </g>
      <g class="cls-3">
        <path class="cls-4" d="M1102.42,425.25c.41,0,.75.34.75.75s-.34.75-.75.75-.75-.34-.75-.75.34-.75.75-.75M1102.42,425c-.55,0-1,.45-1,1s.45,1,1,1,1-.45,1-1-.45-1-1-1h0Z"/>
      </g>
      <g class="cls-3">
        <path class="cls-4" d="M1105.75,425.25c.41,0,.75.34.75.75s-.34.75-.75.75-.75-.34-.75-.75.34-.75.75-.75M1105.75,425c-.55,0-1,.45-1,1s.45,1,1,1,1-.45,1-1-.45-1-1-1h0Z"/>
      </g>
    </g>
    <g>
      <rect class="cls-1" x="993.25" y="395" width="57" height="57" rx="9.3" ry="9.3"/>
      <path class="cls-2" d="M1039.21,408c-.36-.3-.72-.59-1.07-.89-.37-.32-.75-.66-1.11-.99-.26-.25-.49-.53-.64-.86-.29-.63-.25-1.23.2-1.78.44-.54,1.32-.66,1.9-.13.24.22.4.5.53.79.01.03.02.05.03.08.03.08.1.11.18.11s.14-.04.18-.11c.06-.13.11-.26.18-.39.15-.27.35-.51.64-.66.34-.18.7-.2,1.05-.08.52.18.8.57.92,1.07.11.46.01.88-.23,1.29-.24.39-.54.71-.89,1.01-.6.52-1.22,1.04-1.84,1.55,0,0,0,0-.02,0h0Z"/>
      <circle class="cls-2" cx="1016.75" cy="444" r="1"/>
      <g class="cls-3">
        <path class="cls-4" d="M1020.08,443.25c.41,0,.75.34.75.75s-.34.75-.75.75-.75-.34-.75-.75.34-.75.75-.75M1020.08,443c-.55,0-1,.45-1,1s.45,1,1,1,1-.45,1-1-.45-1-1-1h0Z"/>
      </g>
      <g class="cls-3">
        <path class="cls-4" d="M1023.42,443.25c.41,0,.75.34.75.75s-.34.75-.75.75-.75-.34-.75-.75.34-.75.75-.75M1023.42,443c-.55,0-1,.45-1,1s.45,1,1,1,1-.45,1-1-.45-1-1-1h0Z"/>
      </g>
      <g class="cls-3">
        <path class="cls-4" d="M1026.75,443.25c.41,0,.75.34.75.75s-.34.75-.75.75-.75-.34-.75-.75.34-.75.75-.75M1026.75,443c-.55,0-1,.45-1,1s.45,1,1,1,1-.45,1-1-.45-1-1-1h0Z"/>
      </g>
    </g>
    <g>
      <rect class="cls-1" x="914.25" y="318" width="57" height="57" rx="9.3" ry="9.3"/>
      <path class="cls-2" d="M960.21,331c-.36-.3-.72-.59-1.07-.89-.37-.32-.75-.66-1.11-.99-.26-.25-.49-.53-.64-.86-.29-.63-.25-1.23.2-1.78.44-.54,1.32-.66,1.9-.13.24.22.4.5.53.79.01.03.02.05.03.08.03.08.1.11.18.11s.14-.04.18-.11c.06-.13.11-.26.18-.39.15-.27.35-.51.64-.66.34-.18.7-.2,1.05-.08.52.18.8.57.92,1.07.11.46.01.88-.23,1.29-.24.39-.54.71-.89,1.01-.6.52-1.22,1.04-1.84,1.55,0,0,0,0-.02,0h0Z"/>
      <circle class="cls-2" cx="937.75" cy="367" r="1"/>
      <g class="cls-3">
        <path class="cls-4" d="M941.08,366.25c.41,0,.75.34.75.75s-.34.75-.75.75-.75-.34-.75-.75.34-.75.75-.75M941.08,366c-.55,0-1,.45-1,1s.45,1,1,1,1-.45,1-1-.45-1-1-1h0Z"/>
      </g>
      <g class="cls-3">
        <path class="cls-4" d="M944.42,366.25c.41,0,.75.34.75.75s-.34.75-.75.75-.75-.34-.75-.75.34-.75.75-.75M944.42,366c-.55,0-1,.45-1,1s.45,1,1,1,1-.45,1-1-.45-1-1-1h0Z"/>
      </g>
      <g class="cls-3">
        <path class="cls-4" d="M947.75,366.25c.41,0,.75.34.75.75s-.34.75-.75.75-.75-.34-.75-.75.34-.75.75-.75M947.75,366c-.55,0-1,.45-1,1s.45,1,1,1,1-.45,1-1-.45-1-1-1h0Z"/>
      </g>
    </g>
    <g>
      <rect class="cls-1" x="997.25" y="306" width="57" height="57" rx="9.3" ry="9.3"/>
      <path class="cls-2" d="M1043.21,319c-.36-.3-.72-.59-1.07-.89-.37-.32-.75-.66-1.11-.99-.26-.25-.49-.53-.64-.86-.29-.63-.25-1.23.2-1.78.44-.54,1.32-.66,1.9-.13.24.22.4.5.53.79.01.03.02.05.03.08.03.08.1.11.18.11s.14-.04.18-.11c.06-.13.11-.26.18-.39.15-.27.35-.51.64-.66.34-.18.7-.2,1.05-.08.52.18.8.57.92,1.07.11.46.01.88-.23,1.29-.24.39-.54.71-.89,1.01-.6.52-1.22,1.04-1.84,1.55,0,0,0,0-.02,0h0Z"/>
      <circle class="cls-2" cx="1020.75" cy="355" r="1"/>
      <g class="cls-3">
        <path class="cls-4" d="M1024.08,354.25c.41,0,.75.34.75.75s-.34.75-.75.75-.75-.34-.75-.75.34-.75.75-.75M1024.08,354c-.55,0-1,.45-1,1s.45,1,1,1,1-.45,1-1-.45-1-1-1h0Z"/>
      </g>
      <g class="cls-3">
        <path class="cls-4" d="M1027.42,354.25c.41,0,.75.34.75.75s-.34.75-.75.75-.75-.34-.75-.75.34-.75.75-.75M1027.42,354c-.55,0-1,.45-1,1s.45,1,1,1,1-.45,1-1-.45-1-1-1h0Z"/>
      </g>
      <g class="cls-3">
        <path class="cls-4" d="M1030.75,354.25c.41,0,.75.34.75.75s-.34.75-.75.75-.75-.34-.75-.75.34-.75.75-.75M1030.75,354c-.55,0-1,.45-1,1s.45,1,1,1,1-.45,1-1-.45-1-1-1h0Z"/>
      </g>
    </g>
  </g>
</svg>