<?xml version="1.0" encoding="UTF-8"?>
<svg id="MAP" xmlns="http://www.w3.org/2000/svg" viewBox="0 0 1440 900">
  <defs>
    <style>
      .cls-1 {
        fill: none;
        stroke: #bfbfbf;
        stroke-linecap: round;
        stroke-linejoin: round;
        stroke-width: .75px;
      }
    </style>
  </defs>
  <path id="outline" class="cls-1" d="M476.63,809.47l1.17,2.33h-4.26l-1.17-2.33h4.26ZM479.95,809.47l.47,2.33h-2.62l-.47-2.33h2.62ZM465.02,802.47h-3.79,3.79ZM473.54,794.88l.93,2.33h2.62l1.69,5.25,1.17,2.33,3.56,2.33h1.17l-1.63,2.33h-1.46l-5.42-2.33-1.69,2.33h-3.56l-4.26-2.33,2.62-2.33h1.4l.76-2.33h2.1v-2.33h-2.86l.76-2.92,2.1-2.33ZM457.44,778.55l.47,5.25h-2.16v-2.92l1.69-2.33ZM460.76,752.89h-2.62.47v-4.67h1.69l.93,2.33h-1.17l.7,2.33ZM1142.48,742.97h9.33v5.25l-1.75,4.67h-1.75l-.58,2.33h-3.5l-1.75-4.67-.58-2.33-1.75-5.25h2.33ZM1227.06,742.97l1.75,2.92,2.33-2.92,1.75,5.25-3.5,4.67h-1.17v2.33l-4.67,2.33-.58,2.33-1.75,4.67-2.92,2.33-2.33,2.33-1.75-2.33h-5.25l-1.17-2.33,2.92-4.67,3.5-2.33,4.08-2.33,4.67-4.67.58-2.33,1.17-2.33,1.17-2.92h1.17ZM1234.05,726.64h3.5v4.67h4.08l2.33-2.33,1.17,2.33v2.33l-1.17,2.33h-2.33l-1.17,4.67-2.33,2.33-2.33,2.92h-1.75l1.75-5.25-.58-2.33h-4.08v-2.33h2.33l1.17-4.67-1.17-4.67-1.75-2.33-2.92-2.33,1.17-2.33,2.92,2.33h0l1.17,2.33v2.33ZM290.22,682.31v-.58.58ZM1211.31,670.65v.58h-1.17l.58-1.17.58.58ZM1209.56,674.15v1.17l-1.75-1.17-1.75-1.17-1.17-.58-1.17-1.17h-.58l-1.17-1.17-.58-1.17v-.58h.58l1.75,1.17.58.58,1.17,1.17,1.17.58,2.33,1.75.58.58ZM1216.56,663.07l.58.58h-1.17l.58-.58ZM1214.81,659.57h-1.17l.58-.58.58.58ZM1244.55,661.32h-2.33l-.58-1.17,1.17-.58v-.58l.58-.58h1.17l1.75,1.17v1.75h-1.75ZM1249.22,655.48l-1.17,1.17h-1.75l1.17-1.17h1.17l.58-.58h1.17l-1.17.58ZM1212.47,654.9l-1.17,1.17h0v-1.75l1.17.58ZM1209.56,650.53v.76h.58l.58,1.28-1.17.58-.58-.93v-.47l-.58-1.22h1.17ZM846.77,650.82l.58.47-.58,1.28-.58,1.17-.58-.58-.58-.93-.58.35.58,2.33v1.17l-.58,1.17-.58,1.17v1.17l-.58,1.75-1.17,4.67-.58,1.17v1.17l-1.17,2.92-.58,1.75-.58,2.33-.58,1.75-.58,2.92-.58,1.75-.58,2.33-1.75.58h-2.33l-1.17,1.17h-1.17l-1.17-1.17-2.33-.58v-1.17l-1.17-1.17-.58-4.08v-1.17l-.58-1.75v-1.75l.58-.58v-1.17h1.17l.58-1.17h0l1.75-2.92-.58-1.17.58-.58-1.17-1.17v-.58l-.58-1.75v-3.5l1.17-1.75.58-1.17v-.58h1.17l.58-1.17h1.17l1.17-.58h1.17l.58-.58,2.33-1.28v-.76l1.17.29.58-1.22v-1.17h.58v-2.16h1.17l1.17-.47.58-2.1-.58-.99,1.75-.7,1.17.23v.93l.58.52.58,2.8.58,2.16v.93l.58,1.22ZM1136.65,647.03l1.17,1.63,2.33-.23,2.33,2.1.58,4.96,1.75,4.08-.58,1.75,1.17,1.75,4.08,3.5,3.5,1.17v2.33l1.75,1.17,1.17,4.08,3.5,1.17.58,2.33,1.75,1.75,2.92,2.92,1.75,3.5.58,5.83,1.17,2.33-1.17,9.92-1.75,5.25-2.92,2.33-2.33,4.67-1.17,2.33-1.75,4.67v4.67l-1.75,2.33h-6.42l-1.75,2.33-2.92,2.33-2.33-2.33-.58-2.33-4.67,4.67-2.92-2.33h-2.92l-3.5-2.33-2.33-2.33v-2.33l-1.75-4.67h-1.75l-.58-2.33-.58-2.33-2.33,2.33.58-4.67h.58l-.58-2.33-1.75,2.33-2.33,2.33-1.75,2.33h-1.75v-2.33l-2.92-4.67-.58-2.33-4.67-2.33-1.17,2.33-3.5-2.33h-6.42l-5.25,2.33h-4.08l-6.42,2.33-1.75,4.67-4.67-2.33-6.42,2.33h-2.92l-2.92,2.33h-4.67l-2.92-2.33h-1.75v-2.33h2.33v-7l-2.33-4.67v-3.5l-2.33-4.67-.58-2.33-1.17-2.92,1.17-.58v-2.92l-2.33-4.67,1.17-2.92v-2.92l2.33-.58.58-1.75,2.33-1.17,4.08-2.92,2.33.58,11.08-4.08,1.75-1.75.58-1.75,1.75-1.17-.58-2.92,1.75-1.75h2.92l2.33-3.5,3.5-4.49,3.5-.23,1.17-1.92,2.92,3.09,5.25,1.22-.58-2.16,1.17-2.39,1.17-.93.58-2.16,2.33-.93h2.92l1.75-.7.58-1.63,6.42,1.17,5.25.93v2.86l-2.33,1.4v1.69l-1.17,2.57,4.67,3.21,2.33,1.17,1.75,1.75h2.33l1.17,1.75,1.75,1.17,2.92-.58,1.75-4.67.58-3.5-.58-3.79,1.17-1.69-.58-2.62.58-1.17,1.17-3.56h1.75l.58,2.62,1.17.47.58,3.09v2.86ZM1194.98,637.29h-1.17l-1.17-.93v-.76l1.17.76h1.17v.93ZM1065.49,635.59h-1.75l-1.75-1.4h-1.17l.58-1.17,1.75-.47,2.92,2.1-.58.93ZM1186.81,632.56l1.17.47h1.17l1.17.47.58.7-.58.47-1.17-.47h-1.75l-.58-.7v-.93ZM1077.16,635.59l-1.75.29h-1.17l.58-2.16,1.17-.7,1.75-.47,1.17-.99.58-1.17,2.33-.47h2.33l-.58,1.63-3.5.99-.58.47-2.33,2.57ZM1192.06,632.1v.93l-1.17-.93-.58-2.16v-.47l.58.93v.93l1.17.76ZM1068.41,630.4l-1.75,1.17-3.5-.7,1.17-1.4h2.33l1.75.93ZM1052.66,630.87l-1.75.47.58-1.4.58-.7,1.17.7-.58.93ZM1060.83,630.4l-6.42,1.69-.58-1.69,1.17-.93,1.75,1.4,1.17-1.63,2.92.23v.93ZM1079.49,629.47l-2.33.47.58-.7,1.75.23ZM1049.74,629.94l-1.17.93-1.75-.93,1.75-1.17,1.17,1.17ZM1181.56,629.94l-.58.47-.58-.93-1.17-.23.58-.47h1.17l.58,1.17ZM1187.39,629.47v.93l-2.33-1.63-1.17-.99.58-.47,1.17.99.58.47,1.17.7ZM1120.9,629.47l-2.33.47,1.17-2.62,2.92-.7v2.16l-1.75.7ZM1179.23,625.68l1.17,1.4-1.75-.93-.58-.93-1.17-.7.58-.52,1.75,1.22v.47ZM1020,621.89l2.33.93,1.75-.47,1.17.7h1.75l1.17,1.92,5.25.23,1.75-1.69,1.17.99h.58l2.33.7h1.17l1.17,2.1,1.17.47,2.33-.47,1.17.99v2.1h-2.33l-1.17-.93-2.33.47-2.33-.47-3.5-.23-1.75-.93-2.33-.99-2.92.47-2.92-.7-2.92-.47v-.93l-1.75-.7-.58-1.46.58-1.63ZM1175.15,623.52l-.58,1.46-1.17-.47v-1.46l-1.75-.7,1.17-1.4,1.17,1.4,1.17,1.17ZM1162.9,619.73v1.22l-4.08,2.1h-2.92l-4.08-1.63v-.7l2.92.23,3.5-.23h1.75l.58-1.46,1.75-.47-.58-2.16,2.33.52.58,1.4-1.75,1.17ZM1166.98,616.64l-1.75.99-.58-2.16,2.33,1.17ZM1085.91,614.54l-1.17.93-2.33-1.17v-.93l2.33-.52,1.17.99v.7ZM1093.49,612.15l3.5,1.22.58,1.17-.58.93-2.33-1.17h-4.67l-1.17-1.92,3.5.47,1.17-.7ZM1027,612.38l-.58,1.46h-1.17v-2.16l1.75.7ZM1022.33,612.15l-.58.7-2.33-.7-.58-1.87h-1.17v-1.69h2.33l.58,2.16,1.75,1.4ZM997.83,606.49l1.17,2.57-1.17-.47-.58-1.17.58-.93ZM1104.57,605.27l.58.52h1.75l1.17,2.1-.58.7.58,2.16,1.17.93.58,1.17.58,1.46h1.17l2.92-2.62v-1.4l1.75.47.58-1.69,1.75-.93,2.92.93,3.5,1.69h1.17l2.92.93,6.42,2.62h1.17l1.75,1.17h1.75l1.17,1.69,2.33,1.4v2.16l2.33.23,1.75,1.4h1.17l1.75,2.16h-2.92l1.17,2.57,1.75,1.69.58,1.63,5.83,4.72v1.22l-2.92-.76h-3.5l-1.17-.93-.58-1.17-3.5-3.56-.58-1.17-4.67-1.46-1.17.47-2.92,2.62.58,1.17-2.92,1.46-1.17-.93-2.33.47-1.17-.47-3.5-2.86h-2.92v-2.16l-.58-.93.58-1.17-1.75-1.92-1.17-2.33-2.33-1.46-1.17-.47-3.5-1.17h-1.75l-2.92-1.69-2.33-1.4-1.17,1.87h-1.17l.58-1.87-1.17-1.17.58-.99,1.17-1.17-3.5-1.17-.58-.99-.58-.93-2.33-.23,1.17-1.87,1.75-.23,1.75-.99,2.33.47ZM536.82,603.87l2.39.47-.23,1.69-1.46,2.1-4.96.93-.93-.93v-2.33l.93-1.92,2.33.47,1.92-.47ZM1013.58,599.37l-.58.23h-.58v-.23h1.17ZM1078.91,600.54l-1.75,1.69-2.33.47-1.75-.47-4.08-.52-2.33.52-1.17-.52-1.75,1.46-.58,1.17,1.17,2.16,1.17,1.4,1.17.23,1.75-1.63h1.75v-.47h2.33l-1.17,2.1-1.75.47-1.17,1.69,1.17.47,1.75,2.62-.58,1.63,1.17.47v1.69l-1.75.47-.58,1.17-1.17-.7v-1.69l-1.75-1.87v-2.39l-1.17-.47-1.17,1.17.58.99v4.26l-.58,2.62-1.17.7-1.75-.7.58-3.09v-1.69l-.58-1.63-1.17.23v-2.39l1.17-2.57v-1.69l1.17-1.87.58-4.55,2.33-.47.58-1.63,5.83,1.17,3.5.47,1.75-.47,1.75-2.1.58.47-.58,1.63ZM1088.82,598.91l-1.75,1.63,1.75-.93v1.87l1.75,1.22-3.5-.99-.58-2.1.58-1.69,1.75.99ZM717.87,592.49l-1.17,1.17-.58-.47.58-1.17h1.17v.47ZM988.5,586.83l2.33.47h2.92l1.17.93,1.17,2.62,2.92,1.63,2.92,2.62.58,1.17h1.17l1.75,1.63,2.33,1.46v1.17l4.08,1.17.58.99-.58,3.09.58.7,2.33.47.58,2.62,1.17,1.17,2.33.47,1.17,2.62v1.63l-1.17,6.42-1.17-1.17-2.33,1.17-2.92-3.09h-.58l-3.5-2.86v-.93l-2.33-1.17-2.33-3.56v-.7l-1.17-3.56-1.75-1.69-.58-.7-1.75-.93-1.17-3.79-.58-1.46-2.92-1.17v-1.63l-2.33-2.62h-.58l-3.5-3.09-1.17-2.39,1.17-.47,1.17.76ZM1060.83,587.77l-2.92.93,1.17,1.17-2.92.99.58,1.63h-1.75l1.17,2.62,1.17,1.17-.58,1.63,2.33,1.46,1.17,1.63h-2.33l-1.17.47-1.17,1.69v2.1l-1.17,2.16-1.75.7v3.56l-1.75,2.62-.58.7-3.5,1.4-.58-1.87-2.33-.23-1.75-1.46-1.75,1.46h-2.33v-1.46h-4.67l-.58-2.1v-2.86l-2.33-1.87-1.17-1.69-.58-3.32.58-2.1,2.33-1.69.58,1.22,3.5.47.58-3.09,1.17-1.17,4.08-.99,2.92-3.32.58-.93h1.17v-.47l.58-.23,1.17-.47v-.47.47h.58l1.17-.93,1.75-2.86,1.17-.93,2.33-.52,1.17.52.58,1.63,2.33.47,1.75,2.16ZM943.01,584.44l-2.33.7-1.17-.47-1.17-2.39v-4.26l1.17-4.02.58-.7,1.75,1.17,1.17,2.62,1.75,3.32-.58,2.1-1.17,1.92ZM1082.99,575.4l.58,3.32.58,2.16-1.75,1.4-1.75-1.4v1.4l.58,2.39-.58,1.4-1.17-.93-2.33-.7-1.17-.93v-1.69l.58-1.4-.58-.7-1.75-.52v1.22l-1.17-1.22-1.17.99v-.99l-1.75,2.62-.58-.47,1.17-3.09,2.33-.23,1.17-1.87,2.33,1.87,1.75-2.62,1.17.52,1.17-.52v-2.1l2.33,2.1ZM1077.74,571.9l-.58,1.87-1.75-.47,1.17-1.4h1.17ZM1075.99,571.14l-1.75.76,1.17-2.16.58,1.4ZM1062.57,570.68l-1.75,1.22h-.58l1.75-2.16.58.93ZM500.07,569.74l-.47.47v.93h.47v.76h-3.09.52l.47-.29h.47v-1.4h-.47v-.47h1.63v-.23h.47v.23ZM1073.66,574.47l-.58.93-1.17-1.4-.58-1.63,1.17-.47.58-2.39,1.17.23-1.17,2.62.58,2.1ZM486.83,569.51h-.99.52v-.47l.47.47ZM491.09,569.04l-.47.47h-1.22v-.47h1.22v-.47h.47v.47ZM500.54,568.58v-.47h.76l-.52.47h-.23ZM1079.49,569.74v.93l-1.17-.47-1.17-1.63,1.75-.99.58,2.16ZM1071.91,569.74l-2.33.93v-3.79l3.5,1.69-1.17,1.17ZM497.51,565.95v-.47l.47-.23v.7h-.47ZM477.33,565.25v.7l-.23-.47v-.23h-.47.7ZM475.23,565.49l.47.47-.47-.47-.23-.23h-.52l.52-.47v.47l.23.23ZM1080.66,567.35l.58,1.69-1.17-.47-.58-1.69-2.33-1.63-.58-.93h2.92l1.17.93v2.1ZM472.37,564.32v.47l-.93-.47.47-.52.47.52ZM504.8,562.63h-.47l-.47-.47v-.47h.47v.47h.47v.47ZM499.61,562.16h-.47v-.93l.47.47v.47ZM1068.41,563.8l-1.75.99-1.75-3.79h1.75l1.75,1.17v1.63ZM500.07,560.53h-.47v-.99l.47-.47v1.46ZM500.54,557.9v.47l-.47-.47h-.47l-.47-.47v-.76h.47v.29h.47v.47l.47.47ZM499.14,555.75h-.47v-.47l-.23-.47v-.23h.7v1.17ZM499.14,553.65h-.47v-.47h.47v.47ZM499.14,551.95v.47h-1.17l.47.23h-.47v.52l-.47-.52v-.7h.47v.47h.47v-.93h.23v.47h.47ZM496.28,550.55v.47-.47ZM497.97,549.85h-.99v-.47h.99v.47ZM494.88,548.86v.52l-.47-.52h-.23v-.47h.23v.47h.47ZM493.19,548.16h-.47.47ZM497.51,547.7v.47h-.52v-.47h.52ZM492.02,547.7v-.47.47ZM488,547.23h.47v.47h-.7v-.47h.23ZM494.18,546.76h.23-.23ZM485.84,546.3h-.23l.23-.23h.52v.23h-.52ZM494.18,546.3h-.99.52v-.23h.47v.23ZM493.19,546.06l.52-.47v.47h-.52ZM488.47,545.07v.52-.52h.47-.47ZM489.4,545.07h-.47.47ZM481.35,545.07h3.79l.47.52v.47h-.47l-.47.23v.47h-4.26v-.47l.47-.23-.47-.47.47-.52v-.47l.47.47ZM452.19,546.06l-.47,1.17-.7-.47h-1.4l-.23.93-.47-.47h-.99l-1.17-1.17h-.93l.47-.99,1.17-.47,3.09.99,1.63.47ZM1068.99,559.07l1.17.47,1.17-1.17,1.17.47.58,1.69,1.17-.99,1.17,2.62,1.17.47-.58,1.69-1.75-1.69-.58-1.4-1.75-1.69-1.75.99-1.17-.99-1.17,1.46-2.33-1.46v-.7l1.17-.93-2.92-.93-.58-3.32,1.75-1.22v-4.72l.58-2.62,1.75-.47,2.33.99,1.17,2.8,1.17.99-1.17,1.63-2.92,4.26,1.17,3.79ZM437.31,542.04l-.52.47-.23-.47h.76ZM463.33,539.88l3.09.93,2.39-.47,2.1.93h1.46l.47,1.22,1.63-.47,2.62,2.1-.47,1.46-4.26-.52-2.16.99h-1.63l-1.46,1.63-.7-1.4-.93-.23h-2.62l-1.63-.47-1.69.47-1.4-.47.47-1.46,1.69.93h3.03l.52-1.17-.99-.47.47-1.63-2.1-.52,2.1-1.4ZM1033.99,543.91l-2.33,2.16-2.92-.99-.58-2.57,2.33-2.16,4.08-.7,1.17,1.63-1.17.76-.58,1.87ZM462.4,536.09l-.23.47-.47.47h-1.4v-.93h1.87v-.47h.23v.47ZM466.65,533.93h-.7.7ZM465.95,533.47v.47l-.47-.47h.47ZM462.86,531.83l.47.47h-.47l-.47-.47v.47h-.23v-.47h.7ZM460.06,531.13v.7l-.52.47h-.47l-.47.47v-.47l.47-.47h.47l.52-.47h-.52l-.47-.23h.99ZM459.07,531.13h-.47l-.47-.47h.47l.47.47ZM440.81,530.14l2.16,1.69h1.63l3.79,2.1.99.99,4.49,1.17.93,1.4,1.22.23,1.87.99.23.93-2.1.7-3.85-.47-2.1.47-2.16-.47,1.69-1.63-.7-.76-2.16.23-1.4-1.17-.76-2.1-1.4.47-2.39-.47-1.87-1.22-3.79-.47-.47-1.63h-2.16l-2.33,1.63h-1.92l-1.63,1.17.47-1.63.93-1.17,2.39-1.46,3.09-.47,5.19.47,2.1.47ZM456.97,530.67h-.47v-.99h-.47v-.7h-.29v-.47h-.47v-.93l.76,1.4v.7h.47l.47.99ZM453.88,528.04l-.23.47v-.47h-.47v-.47h.47l.23.47ZM457.9,526.35v.52-.99l.23.47h-.23ZM447.46,525.88v.47h.47v-.47h.47v1.22l-.47.47h-.47v-.47h.47-.47v-.23l-.23-.52.23-.47.47-.47v.47h-.47ZM455.28,525.88h-.47v.47-.93l-.47-.47v-.23h-.47v-.47h.47v.47l.47.23v.47l.47.47ZM448.92,522.79l-.52.52v-.52h.99-.47ZM447.46,524.25v.47l.47.23h-.7l-.47.47v-.47h-.47l-.47-.23h-.47l.47-.47v.47h.47v-.47h-.47v-.47h.47v-1.22h.93v1.22h.23v.47ZM1068.41,528.97l-1.75,3.32-1.75-.93-1.17-2.16v-1.17l2.92-5.25,1.75-.7,1.17,1.69-1.17,5.19ZM451.49,521.62l.23.47h.47l.52.47v1.69h-.52v-.47h.52v-1.22h-.52v-.47h-.7v-.47h-.47v-.47.47h.47ZM847.93,519.99h-1.17v-.99h.58l.58.99ZM447.23,516.9v.47h-1.4l-.7.47h-.99l-.47-.47h.47l.47.47.52-.47.23-.47.47.47h.93l.47-.47ZM447.46,516.43h.93l.52.47.47.47.23.47.47.47-.47.23-.23.47v.99l-.47-.47h.47v-1.22l.23-.47h-.23l-.47-.47-.52-.47v-.47h-1.17.23ZM633.99,513.58v.47l-.93-.47h.93v-.47.47ZM641.57,513.58h-.23l-.47-.47h-.47l.47-.47v-.47h.7l.47.47v.47l-.47.47ZM636.62,512.64h-.52l-.47-.47h.47v-.23l.52.23v.47ZM639.18,510.95v.47l-.47.76-.47.47h-.47l-.47-.7v-.52h1.4v-.47l.47-.47h.23v.47h-.23ZM645.6,512.18l-.47.47v-.47l.47-.23v-.52l.23-.47v-.47l.47-.47h.47v1.4l-.47.52-.7.23ZM634.46,510.95l-.47-.93v-.23h.47l.47.23-.47.47v.47ZM340.55,508.85l-.47,1.17-.82-.23.41-1.4.87.47ZM647.23,509.78h-.47v-.47l.47-.47h.47l.29-.47v.93h-.29l-.47.47ZM1101.07,494.85l-1.17,1.63-1.17,4.32-1.17.93-.58-1.92-1.75-1.63,1.17-1.17v-1.69l-2.92.7v-2.1l3.5-2.86,1.17,1.17,1.75.47,1.17,2.16ZM1107.49,489.2l2.33,2.1-5.25,2.16-1.75,2.1v-2.1l.58-2.86,2.33.47,1.75-1.87ZM793.69,488.44h-1.75l-1.75-1.4,2.33-1.17,2.92-.47-1.17,2.57-.58.47ZM769.78,486.8l-2.92.23-1.17-.7h-2.33v-1.46h1.75v.99h4.67v.93ZM734.78,483.71v.47-.93.47ZM738.28,474.26l-1.17,4.02.58,1.17-.58,1.17-2.33-.7-6.42-3.56,1.17-1.63h1.17l1.75.93,4.67-.47,1.17-.93ZM694.65,472.57v.47-.47l-.47.47v-.47h.47ZM694.18,472.11l-.47-.23v-.47h.47l.47-.47.23.47-.7.7ZM699.61,468.31h.99v.93h-.52v.7l-.93.52v-.52h-.7v-.7h-1.4l1.4-1.4h.7l.47.47ZM703.17,467.61v.7l-.93-.47h-.47v-.7h.93l.47.47ZM1128.48,484.18l-1.17,2.16-2.33.7-.58-1.17-1.17.93h-1.75l-1.17,2.1-2.92-.47-2.92,2.16-1.75,2.62-2.33-1.92v-1.17l1.17-1.22-2.33-.93-2.33,1.22-2.33.47-2.92.47-2.92.93-1.17-1.4,2.33-1.22,3.5-3.03h1.75l4.67-.76,1.75.76,4.08-4.78,5.25-2.1,1.75-2.16,1.17-1.63,2.33-5.48-1.17-4.26,2.92-2.1,2.33,1.63,1.17,1.63.58,3.09-1.17,2.16-.58,2.62-1.17.23v5.19l-1.17,1.63v1.69l.58,1.4ZM719.61,470.94l-2.92.93-1.17-1.4.58-4.32-1.17-1.63,2.33-.93,1.17-1.22,1.17.52.58,2.57v2.16l-.58,3.32ZM719.61,458.57l-1.17,3.32-1.17-.7-.58-1.87v-1.69l1.75-1.63.58.47.58,2.1ZM1142.48,453.85l-1.17,1.17-3.5.52-1.17,2.57-.58,1.22-4.67-2.39h-1.17l-1.17,1.17-1.75-1.17-.58,1.17,2.33,1.22-3.5,1.87.58-1.87-1.17-1.22v-1.63l3.5-2.16h1.17l.58-2.1.58-1.69.58-3.09-.58-2.1,1.17-1.17,3.5,4.26,2.33,2.1,1.75.23h1.17l1.75,3.09ZM501.3,443.64h-2.62l-.23-1.63,2.86-1.87v3.5ZM514.54,437.28v.47-.47,1.17h-.47v-.47h.47v-.23l-.47-.47v-.47h.47v.47ZM683.04,427.08l.47.23-.47-.23ZM682.11,426.14h-.23v-.47l.23.47ZM496.98,426.61l-.7,1.17-4.26-1.63v-2.16l4.96,2.62ZM303.86,427.08l1.28,4.26-6.01-3.09-3.38-2.1-5.13-5.25.41-2.1,8.11,3.09,2.16,3.79,2.57,1.4ZM515.01,422.82l1.22,2.86h3.5l3.32.93-.93,2.86v4.26l3.56,2.1-1.4,3.09-5.48-3.32-.93,2.16-2.16-3.56h-6.59l-3.56.47v-1.17l1.4-3.56,4.26-9.74,1.69-3.09,2.1-1.17,1.22,2.16-1.22,4.72ZM1135.48,438.45l-4.08.93.58-2.1v-2.62l.58-1.63-1.17-3.79,1.17-3.56-.58-5.02,1.17-3.03-2.33-3.79.58-5.72v-1.63l3.5-2.62,1.17,3.56-.58,6.42,1.17,2.1,1.17,5.95,1.17,3.79-2.33.47-1.17,1.17-1.75,6.42,1.75,2.57v2.16ZM172.03,404.8l-2.99.93.43-2.57,2.56,1.63ZM279.07,406.49l-1.69.93-1.69-2.16.41-3.09,3.85.99-.87,3.32ZM676.16,401.71l-1.17.99.7-1.69.47.7ZM180.97,399.37l-2.54.23-.85-1.69,2.98-.47.41,1.92ZM667.18,395.81v1.4l2.1-.93h1.46l1.63,3.09v2.1l-2.16,1.22.99,5.89-.99,2.62-3.79,2.1-3.79,2.16-1.87.47-3.32-1.63,2.62-4.02.7-2.86-2.39-1.46.7-.7-.47-3.79,4.32.23v-2.8l.93-1.69,3.32-1.4ZM723.11,395.11v2.1h-1.75l-.58-2.62,1.17-.47,1.17.99ZM282.11,395.35l-1.28.93-1.28-.47.82-2.86,1.75,2.39ZM727.78,395.11l-1.17,2.33-1.17-.7h-.58l-.58-2.62,1.75-.93,2.33-1.63.58.47v1.63l-1.17,1.46ZM278.26,395.35l-1.28,1.87-2.16-.93.47-2.16v-3.79l2.97,5.02ZM672.37,389.4l-2.16,1.4.52-2.1.47.23,1.17.47ZM275.69,388.7l-2.16,1.17-.41-3.79,2.16.47.41,2.16ZM270.56,388.23l-1.28.7-1.28-3.79h1.75l.82,3.09ZM670.74,384.67l.7,1.4-1.22-.47-1.63-1.63.7-.99h1.46v1.69ZM716.7,386.77l-1.17,1.46v-.47l1.17-2.16h2.33l1.75-2.62h1.17l.58,2.16-1.75.93-4.08.7ZM748.2,385.14l-1.75.47-.58-2.16,1.75-2.1h1.75l-1.17,1.17v2.62ZM214.68,381.35l.87,2.62-6.01,3.27-1.69-2.57,1.69-2.16,1.75.47,3.38-1.63ZM272.72,383.45l-1.69.99-.87-4.26,1.69-.52.87,2.16v1.63ZM268.87,382.28l-2.57.7-1.28-3.79h1.69l3.03,1.22-.87,1.87ZM669.75,380.88l-1.63,1.4v-3.09l2.62-.93-.99,2.62ZM759.28,379.66l-1.17,1.69.58-1.17-.58-2.16,2.92-.93-.58,2.1-1.17.47ZM680.42,377.09l-.47,1.63-2.39,2.16.23,1.4,4.32.23h1.87l.23,1.46-1.17,3.27-2.16,2.62.99,2.16,1.63.93,1.17,1.63.47,2.62.99,2.39,2.1.93,2.16,4.26.23,3.09,3.56.7.7.93.47,1.69-.47,1.63-2.16,2.62v1.17l.99,1.46-.99.7-2.1.93-3.79-.47-2.86.93-2.62-.47-2.57.93-.47,1.69-1.22-.93-2.1.47-1.46,1.17-.7-.7,2.86-3.09.93-1.63,2.16-1.22-.99-.93-1.17.47-.47-1.4-2.16.47-.47-1.17,3.09-1.69.47-1.4-.47-3.32,3.79-1.46v-1.17l-2.1-4.72.93-2.16-3.09,1.46-2.62-1.92,1.92-2.33-1.46-2.16h-.7l-.93-2.16.93-1.87h-1.87l-.7-1.17.7-.52.93-2.57-.93-.7.47-2.16,1.63-.93v-1.69l.47-2.1,1.46.47,4.96-.47ZM761.61,375.87l-1.17.76v-2.16l1.17,1.4ZM752.86,366.88l-.58,1.17-1.17-1.63,1.75.47ZM174.17,369.04l-2.99.47-2.56-2.16,3.84-1.4,1.71,3.09ZM442.97,354.11l-.93,2.8h-2.16l.93-3.79,2.16.99ZM432.3,353.64l-3.09,1.17.52-4.49,4.26-.99.7,1.69-2.39,2.62ZM163.93,348.16l-2.13.23-4.26-2.39,1.28-1.87,5.12,4.02ZM435.62,341.28l4.26,2.16-2.57,2.57-4.78-2.1-2.8-.47-4.32,4.26-4.26-6.42-.47-3.79,1.17-8.28,1.92-1.63,4.26,5.66,5.48,3.32,2.1,4.72ZM643.44,325.88l.76.93-.52,1.69,4.02,2.62-.47,1.17.47,2.1-1.4,2.16-2.86,3.79-1.4-.47-2.16,1.4-1.17,1.22-4.72,1.63v1.4l-2.62.76-4.72-1.22-1.69-1.63-4.72-.47,1.46-1.22-.52-2.57-.93-1.46-.23-1.63h-3.56l1.46-1.17,2.33-.52-.23-1.17.7-1.87-2.1-.76-1.22.52h-3.79l3.32-5.25,1.22-2.1h1.87l1.69,1.17,2.1,3.56-.93,1.17,3.56,1.46.23-1.92-.23-2.39,2.86,2.39v-2.39l1.63-.93,3.09.47,1.63,1.22.47-1.69,1.69.47.93-1.4-.47-1.17,1.63-.52.99,2.16,2.57.47ZM454.81,316.43l-3.79,1.4-2.1-3.79,2.57-5.19,4.26.47.29,4.96-1.22,2.16ZM738.86,308.32l-2.33.52,1.75-3.09v-1.22l2.92-.47v2.62l-2.33,1.63ZM737.7,304.07l-.58,2.62-2.33-.47,2.33-2.86.58.7ZM844.43,304.07l-2.92,1.46-1.75-1.92,1.75-4.49,1.75-.47,2.33,1.63-1.17,3.79ZM745.86,299.11l-.58,2.39-2.92-.76,2.33-3.03,1.17,1.4ZM391.99,304.07l-2.1,3.56-3.79-.93-5.48-2.62,2.16-5.89,2.16-3.09,5.89,5.66,1.17,3.32ZM1217.14,296.02l-1.17,1.69-3.5-2.16,1.75-1.63,2.92,2.1ZM526.15,299.34l-3.09,1.4-1.63-2.57-3.09-1.22.47-4.26,1.69-1.87,4.26,1.87,3.09,2.86.47,2.16-2.16,1.63ZM878.26,295.55l-2.33,1.4-2.33-1.87-2.33-3.32,2.33-2.16,4.67,5.95ZM608.39,288.67l-5.42,1.46,2.33-4.32,2.62-.47,1.63-1.63,1.46,4.26-2.62.7ZM1256.8,284.18l-4.67,1.17-1.75-.93-4.08,2.16.58-4.26,3.5-2.86h5.25l2.33,2.57-1.17,2.16ZM401.5,296.02l1.17,1.69,2.16-.76,2.1,2.39,1.46,4.26-.93,4.02,1.63,1.69,1.4-5.95,1.22-2.62,3.56,2.86,1.17,4.72-1.63,2.62.47,3.09,2.8,3.79,1.46-1.63,2.86-5.25.47-5.42,2.57-2.62-1.63-3.09-.47-4.72h3.79l5.19,2.62,4.26,4.26.23,3.79-2.1,2.1-1.69-.23,1.46,4.49,2.33,3.56-.7,3.79-4.72,3.32-2.62,3.09-4.72-.93-.23-2.16-3.56.47,2.16,2.62-1.69,3.32-3.09,3.09h-1.63l-5.48-4.72v1.63l2.16,3.09,4.26.47,2.16.7-3.09,7.35-2.62,1.17h-4.49l.23,2.62-2.16.47.52,3.32-4.78,3.56-4.49,6.42-2.1,4.72-1.46,5.95v4.96l.93,2.1h4.32l2.1,8.57-.47,1.87,4.26-1.4,7.35,2.1,2.86,2.62,1.4,2.16,5.48,2.1,1.17,1.22,2.62.93,1.63-.47,5.25,1.63-.52,4.02.99,2.86-.47,4.26,3.03,4.26,2.16,1.69.7,2.1,2.16.47,1.4-2.1,1.17-.7,1.22-3.09-1.22-2.62-.47-5.42-1.17-4.26,4.72-2.62,2.16-1.69,2.1-4.26v-4.26l-1.87-5.66-4.26-3.79,4.02-6.88-3.09-6.65,1.63-2.16-.7-3.03-.47-4.78,1.63-1.17,5.48,1.69,4.02.47,2.39-1.69,4.72,4.26,1.63,3.79,4.78,1.22,1.4,2.57v7.35l.7,4.26,2.16-.47,3.79,4.26,4.26-3.56,1.87-2.1.23-3.79,2.16-3.79,2.16,2.1v2.62l2.1,2.16,2.62,4.72,2.1,4.96v5.72l1.69,3.79,3.09.7v2.16l1.63,1.87,2.16-.93.93,2.1,3.32.99-2.62,3.32-4.49,1.63v2.16l6.42-4.78h1.63l1.17,2.62,3.09.93,1.22,2.16-.76,2.1.76,3.32-3.85,3.56-2.57-.47-2.62,1.17-.7,2.16-3.56,2.62-4.26.47-7.58-.47h-8.05l-2.16,2.1-.93,2.62-2.62.47-2.33,2.16-3.09,4.49,5.42-3.79,4.72-2.16,3.79-.7,2.62.23,1.46,2.62-1.92,1.63-3.32,1.46.93,1.63,2.39-.93-.23,2.1,1.17,4.78,3.32,2.57,3.09.47,1.63-.93,1.46.47.23,2.62-4.96,1.63-4.32,2.16-2.1,2.62-2.16.7-1.4-1.17v-2.62l1.87-1.69,2.16-1.63-1.4-1.4-4.32,1.87-1.63-.93v2.62l-4.26,1.17-2.62,2.1-2.1.52-2.16,3.27v1.92l1.4,3.79-3.56,1.17-4.72.47-3.79,3.09.93.7-.47,2.62-2.1,3.09-.93,1.63-1.69,2.62h-2.16l-.47,2.16,1.46,1.63.7,4.26-1.69,3.32-4.26,2.16-1.17,1.63h-1.63l-1.92,2.62-5.42,4.26-1.69,4.26.7,3.79,1.92,4.26-.47.93,2.1,4.78v3.79l-1.4,2.57-1.63.23-.76-2.33-1.4-.47-.7-3.56h-1.46l-1.17-3.32.7-3.32-3.32-4.02-1.63-.7-3.56,1.63-2.86-3.09h-2.57l-2.16.99-3.32-.47-1.4,1.63-4.26,3.09-1.69-.47-2.1-2.16-1.22.93-4.26-.93-2.62.93-3.56,2.86-4.26,2.62-1.63,3.56,1.4,3.79-.47,1.17-.93,1.63-.47,2.62-.23,3.56v1.17l-.47.99.7,3.32.47.93.93,2.33,1.69,1.92.93.7.23,1.69.47.47.93,1.63h2.16l1.17.93.93.99,2.16-.47.7-.52h2.16l1.4-.93h1.69l.47.93h.7l.93-.93-.47-.7,1.4-.93.23-.47.52-1.22.93-.93-.47-.23.47-2.16v-.93l.7-.47,1.4-.47,1.69-.23,1.63-.47,1.69-.47,2.57.93.99-.47.47.47v.7l-.47,1.4-.99.76-.47.93-.23,1.17-.93.93h1.17l-1.17,3.79h-1.63l.7.52v.7l-.7,1.4.47.7-.47,2.62-.52.93-.93.47-.23,1.22.7.47.47-.47.99.47,1.63-.93.47.47h.23l1.46.47,1.63-.47,2.16-.47.93.47,1.17-.47,1.22.47h1.4l.7.93-.23.23.23.47,1.92.47.7.47-.7.47.7,2.16-.7.7-.47,1.69v3.56l-.52.47v1.63l-.47,1.22v.93l.47.47.99,1.17.7,1.69,1.4.93.23.47.99.23v1.4l.93.52.7-.52.93.76h.7l1.46-.23.47-.52,1.63-.93,1.69-.7h1.63v.23h1.46l1.63.47,1.17,1.46.99.7,2.1,1.63v-1.63l2.62-2.62h.23l.93-3.32,1.69-2.1,1.4.47,1.17-.93h2.62l5.42-3.32.52,1.63-1.69.93.7,2.39-1.63,3.09,2.1,2.57,1.46-.93v-1.63l-1.46-2.62.52-1.17,4.26-1.46-.99-1.17.99-1.17,1.17,2.33h2.16l1.4.99.7,2.1,6.18-.47,1.17,1.4,3.32.29,1.92-1.22,4.49-.93-.23,1.4,1.63,2.16,1.17-.93,1.46.47,2.1,1.17-1.87,3.09,2.1-.47,2.16.47,2.62,1.17,2.1,2.16v1.4l1.69.7,2.57,2.62-.47,1.4.47-1.4h5.95l.47-.47,3.56.93-.93,1.22.93-1.22,2.86.93,3.09,2.39,1.17,2.16,1.63.47v2.1l2.16,4.26,1.4.52v1.63l-2.57,3.09-1.69,1.17-2.1,4.26,3.79-2.1v1.63l.47.93,2.57.52h2.39l2.16-1.69.93-2.1,2.62-.52,2.1,1.69,5.48,1.63,1.4,2.16,1.17.93,1.69-.93,3.09,1.4,3.79.7,3.79-.47,4.72,2.62,4.26,3.79,1.17.47h2.16l1.87.47.76,1.22,1.4,5.19v2.16l-1.4,3.27-3.79,4.78-1.69,1.4-2.1,3.79-2.16,2.62-1.4.23-.76,1.87.47,1.69-.47,1.63.47,4.14-.93,4.08-.47,2.33-.7,1.17-.47,3.5-2.16,4.67-1.4.58-.7,2.33.47,1.75-3.09,1.75-.93,1.17h-7.58l-.47,1.17-3.32,1.75-3.56,1.75-3.32,2.33-1.69,2.92v6.42l-.93,2.92-1.63,1.17-2.16,3.5-.47,1.75-1.17.58-1.46-1.17-1.63,2.92h-.7l-.99,4.67-1.63,5.25h-2.16l-2.1,4.67h-6.42l-3.09-2.33h-3.79l.47-7.58-1.4,5.25.47,2.33,3.56,4.67h0l.7,2.33,1.46,2.33h0l-2.62,4.67h0l-4.72,2.33-5.48,2.33h-4.02v2.33l-1.17,2.33.47,2.33h-8.98l.93,4.67h3.79v5.25h-3.09l-2.1,2.33.47,2.33-1.69,2.33-3.79,2.33-2.1,4.67.7,2.33h2.1l3.09,2.33h0l-.93,2.33-3.32,2.33-2.1,4.67v2.33l-3.56,2.33-.76,2.33.52,4.67,1.63,2.33h-4.26l-3.09,2.33-.47,5.25h-3.79l-.7-2.33h3.32v-2.92l-3.32,2.92h-1.92v-2.92l-2.1-2.33h.47l-2.16-7h.47l-.93-4.67v-7h.93l.47-2.33h-2.57l2.1-4.67h-3.03l-1.22-2.33,2.16-2.33h2.1l.99,2.33.7-2.33.47-4.67h2.1l.52-2.33h-1.69l.23-2.33-.23-2.33h1.17l-.47-5.25h.99l-.99-2.33-1.17,2.33h-1.4l-.76-4.67.76-4.67h.93l.47-2.33-.93-2.33-.47-4.67h1.4l.7-2.33,1.46-4.67,1.17-2.33.47-2.33,1.17-2.33.99-5.25-.99-4.67v-2.33l.99-1.75-.52-3.5.99-1.75.7-4.67h.47l1.4-6.42-.47-1.75v-5.83l.7-.58.52-4.67-.52-2.33.52-2.33-.76-5.83-3.03-1.75-.52-1.75-11.08-5.6-2.39-2.62-1.46-1.17.52-2.62-3.32-5.66-1.46-1.22-3.32-8.52-1.63-2.1-1.4-2.62-1.22-1.17-3.56-1.69.99-1.87-1.22-2.86.23-1.46,2.62-2.33.47-2.16-2.1-1.4.47-2.16.7-3.79,1.87-1.63-.47-2.16,3.79-1.4.47-.23-.47-1.46.99-2.1,2.33-.7,2.16-3.09-.7-.93v-1.69l-.52-4.96.52-1.46-1.69-2.1-.93-.7-.93-1.92h.47l.47-.7-.93-.47v-.47l-1.22-.7-.93-.52h-.7l-.93.76-.47.47-1.22.93h-.47l-.47.7,1.4,1.46-.93,1.17h-1.63v-.7l-2.16-.99-.47-1.17h-1.17l-.47-.47h-1.69v.7l-.47-.23-1.63-.93-.52-.47.52-.7-.52-.52-.93-.93-.7-.47-1.4-.23-.23-1.4-.99-.47-.47.47.93.47v.47l-.93.47-.47-.93-.7-.47-.47-.47-.47-.76.93-.93-.47-1.17-.47-.93-2.16-1.22-.7-1.63-.47-.47-2.16-1.69v-.47h1.17l-1.17-.93-.47-.47-.47.93h-2.62l-1.63-.93-1.69-.23-.93-.47-1.63-.99-1.22.47-.93-.47-1.17-.7-1.69-.93-3.09-3.09-1.63-1.63-.47-.52-.93-.23h-1.22l-.93-.93-1.63,1.69-.76.47-1.4.47h-2.16l-.7-.47-2.1-.47-.99-.76-1.63-.47-.47-.47-3.09-.93-.23-.23-4.02-1.46-1.63-1.17-.76-.93h-.93l-1.63-.47-2.62-.7-.47-1.46-2.16-1.17-.7-.47-1.4-.47-1.69-2.16-.47-1.17,1.4-.47v-.76h-.93l1.22-1.4v-.7l-.76-.93-.47-.99v-1.17l-.93-1.17-1.63-1.92-1.22-1.63-.93-.7-1.17-1.46-.99-.7-.7-.47-.93-1.69-1.28-.93h-.82l-1.28-1.17v-.93l.82-1.22-.82-.93-1.28-.47-.41-.7-1.28-.47-.47-.99-.41-.7-1.28-.93-1.28-1.69-.82-.47-.47-1.17-.82-.47v-.93l-1.28-1.69-.47-.93v-.7l-1.28-2.16v-1.63l-1.69-.47v-.99h-1.69l-1.28-.7h-.41l-.47,2.62.47.23.41,1.63v1.46l.87,1.17h.41l1.28,1.4.82,1.22,1.28,1.17v.93l.87.47.41,1.22v.47l.47.93.82.23.47.93.82,1.69.87.47.82,1.17v1.46l2.16,3.79v1.17l.87.93.41-.47,1.28.93.41,1.22.87.93v.7l-1.28.93h-.88v-1.17l-.41-.93-1.28-.47-1.28-1.22-1.28-.93-1.28-1.17-.41-.47-.41-.47.41-1.22-.41-1.4-.47-1.69-1.28-.47-1.69-1.63h-.87l-.82-.7-2.16-.99v-.47l-1.28-.7,1.75-.93.82-.47v-1.69l-2.57-3.03-.82-.29-1.75-1.4-.41-2.1-.41-.76v-.47l-.87-.93v-.7l-1.28-1.46.47-.7-.87-.93-.41-.7-.47-.99-1.28-3.03-3.38-2.86-2.97-1.4h-2.57l-.87-2.39-3.85-4.72v-2.62l-1.69-.93-2.1-5.02-1.75-1.63-.41-4.02-1.69-1.69.82-4.26-1.28-6.36.87-3.79.87-5.95v-8.05l-2.16-5.25,1.69-.93,5.54,1.46-.41-3.79-.87-.99-1.69-.93-4.67-3.79.41-1.17-2.1-1.46h-2.57v-2.1l-2.57.47-2.57-1.63-.41-5.25-3.44-7.12-1.28.7-2.1-2.8-.47-3.79.87-3.09-1.28,1.63-1.69.99v-5.25l-3.03-2.86-2.97-4.26-2.1-.93-.47-3.79-1.28-1.63-.41-.52-1.69-1.63h-2.16l-3.79,1.17-5.13-5.19-6.01-3.79h-2.1l-5.54-2.16-3.85.47-7.23-3.79-2.57-2.57-3.44,3.09-.82,3.79h-3.85l-1.75,2.57-4.67,2.16-.41-4.02,1.28-2.39v-3.09l3.38-2.1-.82-1.69-2.57,1.69-2.57,3.32-.87,2.57-4.67,4.26,2.57,3.56-2.57,2.16-.47,2.16-6.36,3.79-.87,2.57-2.97.7-3.44,4.78-4.26,1.17-2.57,1.92-2.97.23-1.69,2.1-2.16-.7,3.85-3.79,2.16-.47,3.85-3.56,2.51-1.17,3.85-5.25.87-4.26-3.44-2.39-1.28,2.39-1.69-2.86-2.97-.93-4.26,2.16.41-5.02-2.57-3.09-3.38,1.22-4.28-3.32-.85-1.69,2.56-1.4-5.12-4.49v-1.92l4.27-5.42.43-3.32,1.28-.93,2.54,1.63,2.16-1.63,1.28-2.16,3.38.47,1.28-1.4-.41-3.79-1.69-1.17,1.69-3.09-3.85.93-1.28,1.17-3.82-.47-3.84.99-3.41-.99-1.7-2.8v-2.62l-2.56-.47-1.71-1.69,7.68-5.42,3.41-1.92,2.13-.23.44,4.26,5.54.23.87-3.27,4.26.47v-1.69l-5.13-.93-1.69-2.16-4.29-.93-.86-4.26-7.68-5.95.85-4.26,6.4-.7,3.41-4.02.41-3.32,3.44-5.19,3.38-.23,3.44-4.02,5.13-.23,3.79-4.32,5.6,1.22,1.22,3.09,4.32-.99,2.51.47-.41,2.86,10.67.47,4.67,3.09,5.6.47,3.38,1.69,4.67-1.46,3.03,2.16,3.79,2.16,6.01,1.4,1.69,2.1,6.01,3.32,2.1-.47v-2.1l2.97-2.16h1.75l.41-1.63,1.69,1.63h1.69l1.28-2.39,2.97-.93,4.72-3.32,2.57,1.22,2.1,2.1,1.75-1.63.82-5.95,2.97,3.32,1.28,4.26,1.75,2.62,1.69.7.87-4.26,2.1-1.63,1.28,5.89h2.16l1.28-3.32,3.38-.47,3.44,1.69,2.1,2.1,5.13,1.92,2.1,1.63,4.32,1.17,1.28-1.17,3.38,1.17,2.97,3.56-3.38,3.79,2.57,2.16,5.95.47,4.26-.93,2.97-1.69,1.28,2.16,3.44.7,1.75,2.62.7,3.09,1.69-.52-2.16-5.42-1.17-7.82,5.19-1.69,1.22-1.17,2.57,2.16v2.33l2.62,1.46.23,1.63h3.09l2.16,1.69,3.79,1.4,3.03-1.4,7.12.47,2.62,1.63-.47-3.32-1.69.7-1.63-3.79,4.72-.7,3.79,2.86,3.32.47,4.02-3.79.23-3.09-2.1-1.63v-3.32l-4.32-3.09-2.8-3.32.7-4.02-.7-2.1v-4.55l3.79-4.26,2.57-1.4,3.79,3.79,1.22,3.09-.23,3.09,2.33,2.1,1.92,4.26-3.09,3.32ZM1093.49,272.1l-2.33,1.63-4.08-3.32.58-2.1,5.83,3.79ZM620.23,269.48l-.23,4.02-6.18-4.72-.23-2.62h4.32l2.33,3.32ZM335.01,263.06v4.78l2.97-3.32,5.54,2.86.41,3.56,3.44-2.16.82-3.09,2.97,3.09,1.75,6.42,1.69,2.1-2.16-14.46,4.72-1.4,3.79,3.79,1.69,8.28,2.1,5.48-.7,5.19,2.16,2.86,9.22,5.66v4.26l-2.86-.93.23,6.88-5.42,1.63-5.19-.93-3.79-2.33-6.36,2.1-1.28,1.69-7.23,2.1-6.42.47-1.28-6.36-5.13-.52-3.79-1.4-2.16-3.32.41-3.09,8.11-2.1,5.54,1.4,1.75-2.62-5.54-2.1-3.85.93h-7.29l-2.1-9.45-2.97-3.32,2.1-6.18,3.44-4.26,8.52-4.96,2.16,2.8ZM617.37,261.43l-3.56,2.62-4.26-1.69,1.92-2.1,2.33-.47,3.56,1.63ZM861.93,275.2l2.33,6.82,3.5,3.79v2.86l-2.92-.23-2.33-1.4-.58,1.63-2.33-2.1-1.17.47-2.92-7.12h-4.67l-1.17-2.62,1.17-3.09,3.5-2.8-.58-5.25,1.75-3.32,5.25-3.03,4.67,2.1-.58,4.72-2.33,3.79-.58,4.78ZM912.68,262.36l-5.25,1.69,1.17-4.78,2.33-.47,1.75,3.56ZM1088.82,266.62l-5.83,2.86.58-2.86v-1.4l1.17-1.63.58-5.02,2.92.7,3.5,5.25-2.92,2.1ZM438.25,256.47l4.26,1.17,3.79-.47,3.09,1.63,2.8,4.26-2.57,3.09-3.79-.47-2.62,1.46-2.39-1.46-.93-3.79-2.1-1.17.47-4.26ZM364.29,258.57l-2.1,6.65-3.79-4.96-.52-3.56,4.32-.23,2.1,2.1ZM1083.57,266.62l-1.17,5.02-4.08-3.79-5.25-2.16,1.17-3.32-.58-3.79,2.33-.93,1.17-2.16,4.08,3.79,2.33.99,1.17,3.32-1.75,1.63.58,1.4ZM419.76,265.69l2.62,9.51,2.1-3.79-1.63-6.18,2.1-4.49,6.88-4.26,3.79.23,1.17,4.72,2.16,2.16,1.4,7.82,3.32.7,4.72-4.96,7.35,2.33,2.86,6.88,2.16.93-.47,4.72,3.56-4.02,3.27,1.92,3.09,5.42,6.88,3.32,3.32,5.72-2.62,1.63,1.46,10.67,2.1.93.23,2.86,2.16.93,4.02-.47,2.39,3.32,1.4,6.88,2.16-1.17h3.79l1.63,2.57-3.79,5.02-.47,3.03-2.16-.47-.7,4.78-4.26-2.16-4.02-7.35-3.32-.7-.47,4.96,1.4,4.26,5.48,4.26.93,9.51-.93,4.26-2.62-3.09-4.96-.47,4.49,5.72-.23,2.57-7.35-2.57-3.32-3.56h-1.92l-4.49-2.86.23-3.56-2.8-1.17-2.62-5.25-2.16,1.92-3.32-.47-4.72,1.17-4.72-2.62,2.62-6.36,3.79,1.4,4.72-.47,2.86-3.09-2.39-2.86,4.26-4.72,2.39-4.26-2.16-7.58-4.26-3.09-1.17-3.32-2.62.23v-2.86l-6.42-4.72v-3.79l-3.32.47v2.16l-7.82-1.92-4.26,2.16-8.05-2.16-1.63.99-3.09-3.09h-4.49l-4.02-4.49-1.22-4.78-.93-6.36,1.4-6.88,2.16-6.88,3.79-4.72,3.32-1.69,5.19.47-5.19,10.21ZM1136.65,258.81l-1.17,3.56-4.67-1.4-2.33-1.17,1.17-5.25,2.33-.23,4.67,4.49ZM378.52,254.31l2.1,2.16,6.42-1.46-2.1,9.04,4.26,3.09.7,3.27-1.69,5.95-3.27,1.63-2.16,4.02-2.16-.93-1.4-3.79-2.86-4.26-3.56-1.4-2.8-4.26,2.1-3.79,2.16,3.79,2.86-.23v-6.88l-2.16-4.26,3.56-1.69ZM396.78,273.5l-3.32,1.69v-5.25l-1.46-2.57v-10.91l1.46-3.09,4.96-1.69,4.02,2.16,6.42.7-3.09,6.18-2.1,5.42-4.32.47-2.57,6.88ZM1129.07,253.38l-1.75,1.17-1.17-3.32,2.92-.93v3.09ZM312.38,247.43l4.26,3.32h7.23l2.16,2.16,4.67,6.36-11.9,9.04-.47,3.09-2.57,2.1-1.69,6.42-7.64,4.49-.87-2.39-2.16-4.02-3.79-2.8-2.16.47,1.69-5.25,1.28-1.17.41-5.66,2.16-4.32v-4.26l-1.69-5.42,11.08-2.16ZM1042.74,249.12l-1.17,3.32-4.08-2.16,1.17-3.32,4.08,2.16ZM633.53,241.54l-2.62.23v-4.26l2.62-.23v4.26ZM1151.81,236.76l1.17,2.62,4.08-.47,1.75,4.26-2.92,1.22h-4.67l-6.42-5.48,1.75-2.16h5.25ZM398.18,246.03h-2.62l-6.36-4.26,2.57-6.42,4.32-.7,2.33,3.79.47,4.72-.7,2.86ZM1124.98,230.87l2.33,1.63,1.75-3.03,2.33-1.22,2.33,2.86,4.08.47,4.08,3.79-2.33,6.18-4.08-1.46-2.92,1.69-5.83,1.87-1.75-1.87-1.17,4.02-3.5-1.46-4.08-5.89,1.17-8.05,5.25-3.79,2.33,4.26ZM384.41,235.83l.52,5.72h-7.82l-.29-4.78-6.82-1.4,2.8-8.75,4.78-5.72,7.82,1.69.7,5.19.47,5.48-2.16,2.57ZM352.04,227.31l4.2,3.56,3.79-1.4,1.4,4.26-2.57,7.82-3.09,1.17-5.02-1.63-2.1,2.57h-2.57l-3.85,4.26-4.26,1.22-4.72-3.32,5.13-3.56h-8.98l-5.54-2.86,2.57-11.61,5.54-5.19,2.57,4.02,3.44-.47,2.57,5.42,2.51,2.62,7.7,1.17-2.1-3.32.82-3.79-3.38-2.57,3.38-6.88,2.57.93v7.58ZM902.76,225.68l-4.67,3.03-16.33,8.57-4.08,4.49v2.62l-2.92,1.4-1.75,4.96-3.5,2.16.58,2.57-3.5,6.42-5.83-2.1h-2.33l-1.17-3.79,4.08-4.32,1.17-5.66,2.92-.7v-2.62l1.75-5.42,4.08-2.62,2.33-3.56,2.92-1.63,5.25-4.32,2.33,1.69,5.25-1.69,7.58-7.06,2.92-2.16,3.5.7,1.17,2.16v3.56l-1.75,3.32ZM398.18,217.1l2.16,4.26,4.96-1.17,1.4,7.58-.47,3.32,2.86-1.17,6.18,5.42,2.8-1.17,2.62,2.57,7.58-5.19h5.25l6.36,2.62,2.62,3.09-.47,4.26-2.16,5.42-4.72,1.17-4.96-1.63-2.62,1.4-10.67.23-4.72-1.63-2.62.93-4.72-1.4-2.86-6.65,1.17-4.72-2.57-8.05-5.95-.93-3.32-1.69-3.09-6.88,3.56-2.1,6.42,2.1ZM327.72,221.88l-4.26,3.79-3.38-2.16-2.57,6.88h-8.98l-1.69-2.16,1.69-3.79,2.57-.93,4.67-7.58,4.72-4.72,5.54.47,2.97,8.52-1.28,1.69ZM1024.66,217.1l-3.5,5.48,4.67-.23v-2.62l9.92-.47,5.25,5.89,1.75.99,1.75,4.96-1.17,2.62.58,4.72-2.33,3.32-2.33,1.4-1.17,2.62-5.83,3.32-.58,2.1-2.33,1.69-2.33,4.26-3.5.47-2.92,5.42,4.67-.23,7.58-4.02-1.75-3.32,2.33-2.1,5.25,3.32,2.33-.23,2.33,2.33,5.25-2.1,6.42,1.4h4.08v4.26l4.08,1.69,6.42,1.63,4.67,1.69,4.08.93,4.08,3.79,4.67-.7,5.25,8.05,1.75,4.26,3.5,3.32,1.75-1.22,3.5-9.92,1.75,3.09,4.08,2.1,4.08-2.57,2.33.47,2.92,2.57,1.75-2.57,2.33-.47,1.75,1.4,1.75-.47-1.17-3.79,1.17-3.09,3.5-5.19,1.75-.23,5.83.7,4.67,2.57-.58,2.16,7.58-1.17,3.5.23,4.08,1.87,1.17,1.69-1.17,3.32,5.83,3.5,3.5,4.32,2.92-.52,7-2.1,6.42.47,5.25,3.79,1.75,3.79-1.75,3.09,4.08,2.39,1.75,2.1,2.33-2.1,5.83-1.22,1.17,1.69,7.58.93,2.92-2.62,1.75,2.16-.58,2.1,3.5,2.16v2.1h3.5l1.75-2.1-1.17-4.72-.58-4.78,7,1.46,1.17.7,9.33-.23,8.17,5.42,1.75.47,2.33,2.16,1.75.7,1.75,1.46.58,1.63,1.17.93,9.33,6.42,1.75,7.12,1.17,1.4,1.17-1.4-1.17-2.16,1.75-.7,3.5,1.69h1.75l5.83,5.89,1.75.47-2.92,2.16v1.63l-1.17.47-2.92.52-1.17,1.63v1.63l-1.17,1.22-.58,2.1,1.75.47-2.33,1.69-2.92-.7-1.75-2.16-2.33-.93-1.75-1.17-.58-3.56-2.92-1.22-1.75.99-2.33.23-1.75-2.86,1.17-2.62-3.5.47-.58,1.69,1.75,2.57-1.17,2.62-1.17,1.17-1.75,1.69-1.75.93h-4.08l.58,3.32,1.75-.7,1.17,2.86v3.79l2.33,1.87.58,2.86-1.75,2.62-5.25-1.69-.58-1.4-2.92,3.09-5.25,3.27-1.75-.23-6.42,6.42-4.08,2.86-.58,3.09-2.33-3.09-4.08-1.22-4.08,1.69-2.33,3.09v-4.02l-3.5,2.57-4.67.47-2.33,6.42-2.33,3.09v3.79l1.75-.93,1.75,1.4-1.75,2.16.58,3.32,1.17.47v2.8l-2.33-.23-1.75.76-1.17,2.57v5.95h-2.33l-2.92,2.1-1.17,4.78-2.92,2.57-1.17,4.32-4.67,4.72-.58-2.62-.58-3.56-1.17-3.32-1.17-13.24v-3.79l1.17-3.79,2.33-2.16,2.92-5.66h1.17l4.67-4.55,1.17-2.1,2.92-2.62,2.92-5.19,4.67-2.62,2.33-6.42.58-5.89-2.92.93-1.17,4.96-7,6.88-2.92-3.32-1.17-3.79-5.83.23-2.33,1.92-2.92,4.96-2.33,2.62-2.92,3.09.58,4.49-2.92-.7-1.75,2.1-1.75-.93-2.92-3.32h-2.33l-2.92-.93-1.75,1.4-4.67,1.69-5.83-1.46-7.58.47-2.33.99-2.33,3.32-3.5,2.57-.58,2.62-1.17.47-6.42,6.65-2.33,3.56-6.42,5.89,1.75,1.69h3.5l-.58,3.56,1.75,2.1,4.08-.47.58-2.57,2.92-.99,5.25,5.72-1.17.7,1.17,4.26-2.33,4.26-.58,4.02v4.55l-.58,5.66-2.92,2.86-2.33,3.56-.58,2.1-2.33,3.32-5.83,6.42-1.75,3.79-4.08,2.62-2.92.47-1.75-1.69-4.67,2.16-.58,1.63h-1.17l-2.33,3.09v2.86l-4.08,3.09-2.33,1.63v2.16l2.33,2.1,1.17,2.16,1.75,3.32.58,2.1v4.26l-.58,1.92-2.33.7-1.17-.47-2.92,1.4-2.92.47,1.17-6.12-.58-2.39,1.17-.93-.58-2.62.58-.7h-4.08l-2.33-1.4,1.75-3.79v-1.22l-2.92-1.4v-1.17l-1.17,1.17-2.92.47-4.08,2.16-.58-1.22,2.33-4.26-1.17-.93-2.33-.93-2.33,3.09-2.92,1.17-1.17,3.09h-4.08l-.58,3.09,1.17.7h2.92l.58,1.4v2.16l1.17.7,4.08-2.86,2.33,1.69h3.5l-1.17,2.57-1.17-.47-2.33.7-1.75,2.16-1.17.47-1.75,1.63-1.75,3.09,3.5,1.69,2.33,5.19-.58,1.17,2.33,2.16-1.75.93,1.75,1.69,1.17,1.17-2.92,1.4,2.92,3.79v1.22l-4.08,5.19v1.63l-1.75,1.69-1.75.47.58,1.17-1.75,4.78-6.42,4.72-1.75,2.1-2.92.99h-3.5l-.58.23-.58.93-1.17-.93-.58,1.4-5.83,2.16h-2.33l-2.33,1.63,1.17,2.16-1.75.47-.58-2.16v-2.1l-1.75.47-1.75-1.92-2.33,1.46-1.75,1.63-1.17.47-1.17,2.16-1.75,1.17-1.17,3.09.58,1.63,2.33,1.69-.58.47,2.92,3.09,1.17,1.17,3.5,3.79,1.75,4.72v3.79l-.58,3.09-.58,1.22-5.25,2.57h-1.75l.58,1.22-1.17,1.87-2.92,1.17-1.17,1.22-1.17.47v-2.86l.58-1.87-1.75-.76-1.75-.93-3.5-2.86v-1.4l-1.75-.7-1.75-1.46h-2.92l.58-2.57h-2.92v4.02l-2.92,5.89v2.16l1.17,1.63,1.17-.47.58,2.16.58.47v2.1l-.58.99,3.5,2.1h1.17l1.75,1.69,3.5,2.86.58,1.87.58,1.63-.58,1.69v2.1l1.17,1.22,1.75,4.02-2.92-.47-4.08-2.16-2.33-1.63v-1.92l-1.75-1.63v-2.86l-1.17-.93v-3.09l-1.17-1.17-1.17-1.22-1.17-2.57-1.75-1.46v-.7l-1.75-.93.58-1.69,1.17-3.79-.58-.93.58-.7v-7.35l-1.17-1.63-1.75-3.85v-1.87l-1.75-5.42-1.17,1.17-3.5,2.1-.58,1.46h-1.75l-2.33-.93,1.17-5.02-2.33-6.12-1.17-2.16-1.17-.23-.58-1.4-1.17-.52-.58-1.17-1.75-4.72-1.17-1.17-1.17.7-2.33,2.57-1.17-.47-2.33.99-2.33.47-1.75-.99-2.33.99-.58,1.17v1.63l-1.75,2.16-2.33.93-2.33,1.69-2.33,3.09-2.33,2.57-2.92,1.22-.58,1.63-1.75.93h-1.17l-1.17,1.69-2.33.47-.58,2.1.58,2.62.58,2.86-.58,2.62-1.17,1.63v5.66l-1.17-.47-1.75,2.62.58.7-2.92,1.46v1.63l-1.75.7-1.75-.7-1.17-1.63-1.17-4.02-1.75-4.32-2.92-4.49v-3.09l-1.75-2.57-2.33-4.78-.58-3.27-1.17-5.25-.58-3.79,1.17-2.86-1.17-1.4-.58-2.62-1.75,2.62-2.92,1.63-1.17-.23-4.67-4.02.58-1.17,2.33-.93-2.92-.7-1.75-1.46-1.17-2.1-2.33-.23-1.17-2.16-1.17-.93v-1.22l-1.17-.93-5.25.47-2.92-.47-.58.93-3.5-.47-1.75.7-.58-.23-.58.23-6.42-1.17-3.5-.47-2.92-.7-1.17-4.02-2.33-.7-1.75.47-2.92,1.63-2.92-.47-3.5-2.62-.58-.7-3.5-1.4-1.17-3.79-2.92-3.09h-4.67l-1.75-.23v2.1l1.75,2.86.58,2.16,2.33,3.09,1.75,1.17v2.62l2.33,4.26v-2.62l1.17-1.63,1.75.47v2.8l-1.17,1.92,1.17.7,1.17,1.46,2.33-.99,2.92.47,1.75-.93,5.25-5.89.58,1.17.58,2.62.58,1.63,1.75,1.92,4.67.7,3.5,5.19-1.17,2.62-1.17.7-1.75,2.62-1.17-.47-1.17,2.57v2.62l-2.33.47-.58.7-1.75,2.16h-1.75l-1.17.93-.58,2.16h-2.92l-2.92,1.17-1.75.47-1.75,1.69v1.4l-2.33,1.17-2.92.47-4.08,1.69-1.17,1.63-2.33-.47-1.75,1.92-2.33.23-3.5.47-2.33,1.63-2.33.47-1.75-.47-2.33-9.22v-2.16l-1.17-3.56-2.33-1.63-1.17-2.62v-1.17l-2.33-3.09-2.33-1.17-1.75-2.62v-4.72l-2.33-4.26-2.33-1.22-1.75-2.1.58-1.22-1.75-2.57-1.75-2.62-2.33-4.26-2.33-1.17,1.17-4.02v-.76.47l-2.92,5.95-2.33-3.09-.58-1.17h-1.75l2.92,3.79,1.17,4.26,4.67,8.52v2.62l1.17,2.16,1.75.7,1.75,1.87.58,2.86,1.17,6.88,2.33,3.09,1.17.23,1.17,2.1,1.75,6.18,1.17.23,1.75,1.4,2.33,1.22,1.17,2.1,2.33,1.46v1.17l2.33,1.63,1.17,2.16-.58,1.63,2.92,3.09h2.92l1.75-1.17,2.92.23,2.33-1.17h1.75l6.42-1.22,2.33-1.4,1.75.47-.58,2.16.58,2.57h-1.17l-.58,2.86-1.75,3.09-1.17,1.63-1.75,3.79-.58,1.92-3.5,4.96-4.08,4.26-2.33,2.62-4.08,2.62-3.5,2.57-4.67,5.48-1.17,1.63-1.75,1.46-.58,1.17-2.33.93v1.69l-1.75,4.26h-1.17l-1.17,4.26.58,1.17,1.75,2.16-.58,5.19.58,1.69,1.17,2.1,1.75,1.69v2.57l.58,4.78-.58,2.57,1.17,3.79-1.17,2.51-2.33,3.5-1.75.58-4.08,1.75-1.75,1.17-2.92,4.08-2.33.58-1.75,2.33-.58,2.92.58,1.17,1.75,6.42-.58,2.33v1.75l-.58,1.17-4.67,2.33-2.33,1.17-1.17,1.75,1.17,2.92-2.33,5.83-2.92,3.5-2.92,4.67-4.67,5.25-2.92,2.92-2.33,2.33h-4.67l-2.92,2.33h-11.08l-5.25,2.33-2.92-4.67-2.33-2.33h1.17l.58-2.92-.58-2.33-2.92-4.67-1.17-4.67-1.17-1.75-2.33-1.75-1.17-2.33-1.75-5.25v-3.5l-1.17-2.33v-5.25l-2.92-5.83-2.92-5.83-2.33-4.08v-6.42l.58-1.17,1.17-2.51v-4.26l2.92-2.62,1.75-2.57v-2.62l-1.75-3.32-.58-2.57,1.17-2.16-3.5-7.12,2.33-.93-2.33.47-.58-.93-.58-2.16-.58-1.63-2.33-1.69-1.75-2.1-2.33-2.16-1.17-2.1-1.75-3.56,1.75-1.22v-3.09l1.17-1.17-1.17-.47,1.17-2.62v-1.17l.58-2.16-1.17-2.57-1.75-.7-1.17-2.16-1.17.7h-3.5l-.58.47-2.33.47-2.33-1.63v-1.87l-3.38-2.86-2.33-.47-2.62.47-3.56.47h-1.17l-.99.7-2.1.47-3.32,1.69-2.62.47-.7.93-3.09-.93-5.19-.93-4.26.93-5.02,2.1-5.19-2.1-3.79-3.32-3.09-1.92-.23-.7-3.09-1.4-1.17-2.16-1.4-1.17v-1.69l-.76-2.57-2.1-.93-2.62-2.39-1.4-.93v-1.69h-1.69l-2.1-2.1v-2.16l.47-1.63-1.63-4.32,1.63-2.57v-1.46l.47-1.63,1.17-3.79v-2.16l-.7-2.1.23-3.79-.7-1.46-2.1-.23.47-3.56,1.63-1.63,2.16-5.42,2.57-2.62.23-2.62.99-2.62,3.03-2.1,1.22-2.86.93-1.4,4.26-1.22,4.26-3.79,1.22-2.57-.52-1.69v-3.03l1.69-2.62v-1.22l2.62-3.03,3.03-1.22,2.16-1.63,1.63-2.62,1.22-3.79,1.87-.47.23,1.17,1.92,1.46h2.86l4.72.47h1.17l2.16-2.16,3.09-.47.93-1.4,3.32-1.69h3.79l1.4-.7,5.95-.47,1.92.7,2.92-1.63,1.75.93,1.17-.93,4.08.47,3.5-1.17,1.17.23,1.17,5.19,1.75.93v1.69l-1.75,2.57-1.75,1.22.58,1.17,3.5,2.62h.58l2.92,1.4,2.92-.47,5.83,2.16,1.17,3.32,1.17.47,4.67.93,2.33,1.17,2.33,1.69,1.75-.47,1.75-2.86v-2.62l1.75-2.62,2.92-1.17,2.33.47,2.92.7v1.46l2.33.7,2.92.47,1.17.93,6.42,1.22,1.75.93h1.75l1.75.7,1.17-.47,2.92-1.63h4.08l1.17,1.4h5.25l1.75-.93.58-.99,1.75-5.42,2.92-5.95-.58-4.26v-2.1l1.17-.99-.58-1.17-1.75,1.17-2.92-.7-1.75,2.16-3.5.7-2.33-2.16-2.33-.7h-2.33v1.69l-2.33.7-1.75-.7-.58-1.46-1.75-.7-2.92-.47-.58-1.17v-2.62l-2.92-.93,1.17-3.79v-1.69l-2.33.47v-1.87l2.33-2.16,2.92-.23,2.92.23,1.17-.7.58-2.62,6.42.52,2.92-2.62,3.5-1.17,4.08.23,2.33.93h1.75l1.17,2.1,1.75-.47,1.75,1.46,2.92.23,3.5-.7,1.75.7,4.08-1.69.58-.7.58-1.87-1.17-3.32-4.67-2.62-2.92-3.32-4.67-2.1-2.33-2.62,2.33-.93,1.17-2.39v-2.16l1.75-1.87-.58-1.17-2.33.47-2.33,1.17-2.92.47-1.17,1.22-2.33.93v1.63l2.33,2.16,2.33-.47h1.17l-.58,1.87-2.92-.47-.58.7-2.92.93-1.17,1.69-1.17-.47v-2.86l-2.92-1.4,3.5-2.16-1.17-.7h-3.5l-1.17-2.62h-1.75l-1.17,1.22-2.33,2.1-1.75.93.58,2.16-.58,1.63-2.33.47-.58,4.32-.58,1.63h-1.17l-1.17,3.09v.7l1.17,2.16v4.02l-1.75.23-1.17,1.4-1.17.47-1.75,1.69-.58-2.62-2.92-1.17-2.33.23-1.75,2.1-1.75.99-1.75-.99v1.46l.58,1.17.58,4.26,2.92,1.69v2.57l-1.17-1.17-1.17.47v1.69l-1.75-.52,1.75,3.09-2.92.23-.58-1.17-1.75.93v-2.57l-1.17-1.46.58-1.63,1.75-.47,2.92,1.4-.58-1.4-2.33-.23h-2.33l-1.75-1.92v-.7l-1.75-2.62-.58-1.17-1.17-.93-.58-1.69.58-5.19h-.58l-1.17-1.69-1.17-.93-2.92-1.63v-.52l-2.33-1.63-2.92-1.17-2.33-2.16v-.93l-.58-1.17-.58-2.16-1.17-.93-1.17,1.4-.58.7-1.17-2.8.58-.52-1.75-.93-2.92,2.62,1.17,1.17-1.17,1.46.58,1.63,2.92,2.62.58.47,1.17,3.79,2.92,2.62,1.17.23h2.33v2.1l3.5,1.92,2.92,1.63,1.75,2.16-.58,1.17-1.17-1.63-2.92-1.22-.58.7-1.17,2.16,1.75,1.63v1.92l-1.75.7v1.46l-1.75,1.63h-1.17l1.75-4.26-1.75-3.79h-.58l-1.17-1.46-.58-1.63-2.33-.47-1.17-1.69h-1.75l-4.08-3.27-.58-.99-3.5-3.09-.58-3.79-3.5-2.1-1.17-.47-2.33,2.57-1.75.52h0l-2.92,2.57-1.75.47-4.14-1.4-1.69-.7-3.09,1.63-.47,1.22.47,1.63v2.62l-2.57,1.63-.76.93-3.56.99-2.8,4.26-.99,2.1.99,2.16.7.7-2.39,1.69-1.4,3.03h-.7l-1.46.99-1.63,2.1h-6.88l-.7.7-1.92.52-.23,1.17-.93.47-1.17-.7-1.92-3.09-2.33-.93-1.46.93-2.57-.47-.29-1.17v-3.79l-2.1-1.46.23-2.62.93-.7,1.22-5.89-.76-3.56.47-.47-.47-.76-.93-4.26,2.62-.93,1.17-1.63,2.16.93h5.19l4.26.7,2.16-.47,4.26.93,1.17-.47.93-1.17.99-4.26.23-5.95-.23-1.4-1.92-.76-.7-1.87v-.7l-1.63-1.46-.52-1.17h-1.4l-1.17-.93h-2.16l-.47-2.16-1.17-.23.7-1.4,4.26-1.22,1.4,1.69,1.22-.93,2.1.47v-2.86l-.47-2.16h1.46l.7,1.22,4.02.47v-1.69l2.86-1.4,1.4-1.17.23-3.56,3.09-.7,2.62-1.69,2.57.23v-.23h-1.4l.47-1.87,1.63-3.32,2.92.93,1.17-1.4-1.17-1.69-1.17,1.22-.58-1.69,2.92-2.62,2.92-.23,1.75,1.22v-2.16l2.33-.47.58.93,2.33-3.09v-1.63l-1.17-2.62v-2.57l-1.75-.76.58-1.63-.58-1.4v-2.62h1.17l2.92-2.39,1.75-.47,1.17.7v1.92l2.33,1.17-1.17,1.17-1.17.99-2.33,3.32-.58,3.03,1.75.52.58,1.63,2.33.93,1.75,2.16.58-1.46,1.75-.47.58-1.17h1.75l1.75,1.63h.58l.58,2.16,1.17.47v-1.17l5.25-1.92.58-.23,1.17-1.4,2.33-.7,3.5-.99.58,2.16,1.17.47,2.92-.47.58-2.62h3.5v-6.36l-.58-1.22.58-3.09.58-1.17,1.17-3.09,2.33-.7,2.33,2.16v1.63l1.17.47,2.33-1.4v-3.79l.58-2.16-2.92-.93v-1.17l-.58-3.32,1.75-.93,1.17-.99,5.25-1.17,2.92,1.17,2.33.47,1.17-.47,3.5-3.32-1.17-3.03-3.5-.23-5.83,1.17-1.75.93-6.42,2.39-1.75-3.32-1.17-.47-2.92-1.22v-1.63l.58-2.62v-3.56l-1.17-1.17.58-1.17-.58-1.92v-2.1l.58-.7.58-2.16,2.33-.47,1.17-3.09,1.75-1.17,2.33-3.79,1.17-.99.58-2.1,2.92-.7-.58-1.92v-2.1l-4.08-2.39h-1.17l-1.75.7-2.33-1.17-1.17,3.32h-1.17v2.57l-1.17.99v2.1l1.17,1.22-1.75,2.1-.58,2.16-1.75,1.17-2.33.93-1.17,1.69-2.33,2.1-1.17,3.09-1.17.7-1.17,6.88-.58,3.09.58,1.63,2.33.47,1.75,2.86,1.17,1.46v1.17l-1.75,1.63-4.08.47,4.08,1.69-4.08,3.09-1.17,1.17v5.72l-.58,2.1-1.75,4.96-1.75.52-2.33-.52-.58,1.46-.58,2.86h-3.5v-1.69l-2.33-3.32,1.75-1.4-1.75-2.16-1.17-2.8-1.17-1.46.58-2.86-1.75-1.4-.58-3.32h1.17v-.93l-3.5-.7v1.17h-1.75l-4.67,5.72-1.75.23-2.33-.23-4.08-2.62v-3.09l-1.17-2.86.58-1.4h1.17l-.58-2.62-1.17-1.17v-1.17l-.58-4.78,1.75-5.89,1.75-1.46v-1.63l2.33-.47v-1.69h2.92l2.33-1.63v-1.69l3.5-1.4,1.17-3.79,1.17-1.63,2.92-1.46v-2.1l2.92-2.16.58-2.33-.58-.99,1.75-3.79,1.75-.93-1.17-3.32,3.5-2.62,1.75-5.19,1.17-1.63,4.08-2.86v-4.02l2.33-.7,1.17-3.09,1.17-.47.58-2.39,2.33-.93,1.17-2.16,2.33-.47.58,1.4,2.92-.93v-3.79l2.33-1.4,4.08.93,2.92-3.79,1.17-2.62,2.92-.47,1.17.93-2.33,3.32,1.17,1.69,3.5-5.48.58.47-.58,4.32,1.17-.52,1.75-5.19,1.75-.7,2.33,2.1,2.92,1.22,3.5,2.57.58,1.69-4.67,3.09.58,1.17h3.5l2.33,1.4,1.17-2.57,3.5,2.86.58,2.57,6.42.47,1.75.99,5.83,4.49,5.25,5.19,4.67,2.62.58,7.12-2.33,3.56-5.83,2.57-4.67-1.87-5.25-.7-1.75-1.69-4.67-.93v1.17l5.25,5.25-1.17,5.19,1.17,2.86-.58,2.1,2.33.99,2.33,2.8,3.5,1.46,1.75-1.69-1.17-2.57h-1.75l-2.33-3.56,2.33-2.39,2.92,2.39,4.67,2.1,2.92-1.63-2.33-4.26.58-1.69,2.33-2.57,2.33-.76,2.33-3.56,3.5.52,2.33,3.03,1.75-4.72v-2.1l-2.92-2.62,1.17-3.32.58-7.35h2.92l2.33.47,2.33,2.86v2.62l-4.08.93-1.17,2.86,1.75,1.87,1.17,2.39h3.5l1.75-1.22,1.17-5.19,2.92-.7,5.25-4.26,9.92-5.95v2.39l1.17,4.02,3.5-2.62,4.67-1.4,1.75.93,1.75-2.62,3.5-1.17,2.33,2.86,4.08-2.16-2.92-6.36,2.92-2.16,7.58,1.87,1.75,1.22,5.25,3.79,4.08,2.1,3.5,4.26h1.17l1.75-4.26-1.75-1.17-1.75-3.56-3.5-3.32,1.75-8.98-2.33-.47.58-4.55,2.92-2.57,2.33-3.09,1.75-8.98,1.75-1.69,5.83-.47,4.08,2.16v4.26l-2.33,7.35,2.33,7.35-.58,3.79-.58,1.17.58,3.79-.58,6.18.58,2.8,2.92,3.09-1.17,2.62v2.86l-1.75,2.1-.58,2.16-2.92,5.66-2.92.7-2.33-2.57-2.33,1.87,4.08,2.16,5.83.23v-1.69l4.08-2.57,1.17-3.79,2.33-2.86v-4.02l-1.17-1.69.58-2.8,5.25-2.62,3.5,4.26.58,3.32,1.75-1.17-1.75-5.25-2.92-2.57-3.5-.76-2.33,1.22-3.5-.7.58-2.62-.58-2.16v-3.79l2.33-3.56-2.33-6.82-1.75-1.69,1.75-3.79,4.08-3.32,1.75-6.36.58,4.96-1.75,4.72.58,4.26,3.5,1.69,2.33-1.22-2.92-3.03-.58-2.62,2.92-1.69,1.75,2.16.58-3.79,2.92-1.63h2.33l7,6.82,3.5-.93.58,3.79-2.33,1.4v2.39l2.92,1.4-.58,5.02,2.33-1.22-1.75-7.29,1.75-3.79-2.92-2.62-1.75-3.79-2.92-.7-1.75-2.16.58-4.26-1.17-6.88,2.92-.47,5.83-.47,10.5-2.62-1.17-6.42.58-2.8,3.5-3.09,4.08-5.95,14.58-5.42-.58-1.92,5.83-1.63,4.67,3.09,7-5.72,1.17-1.63h2.92l2.33-1.69-1.17-3.79,1.17-3.03,6.42-7.58,3.5-.52,5.25,3.79-1.17,4.32,5.25,1.4.58,1.17ZM849.68,436.82l-6.42,3.32-3.5,3.03h-1.75l-.58,2.16-1.75,2.62,2.33,4.26v2.8l3.5,4.78,3.5,6.36-.58.52-2.33,5.89v3.56l1.75,1.17,1.75.52,1.75,1.63,1.75.93,2.33.7,5.25-1.17,1.17.47v-2.1l-.58-4.78.58-1.63-.58-.93-1.75-3.32-1.17-1.46,1.17-1.63,1.75.47,2.92-.93.58-1.17-2.33-1.46-.58-2.33h-2.33l-1.17,1.63-1.17-.47v-1.17l1.17-2.62-3.5-.93-1.17-2.62-1.75-2.86-1.75-.93v-1.17h1.75l.58-1.46,1.17-1.63,3.5-.47,2.33-2.39-.58-4.02-1.75-.7-1.17.7-2.33-1.17ZM756.94,458.11l-2.33.99,3.5-1.46-1.17.47ZM399.87,205.96l-1.46,3.79-7.12-.23.7-4.26,7.87.7ZM346.91,208.12l-5.95,3.56-3.85-3.09v-5.42l5.95-2.62h5.13l-1.28,7.58ZM765.11,206.43l-.58,2.62-4.08,3.32-1.75-3.32-3.5.7,1.75-6.59-1.75-3.56,5.83-1.69,1.17,3.79,2.92,4.72ZM758.69,197.45l-2.92,1.4-3.5-4.26,5.83-1.87.58,4.72ZM342.65,197.45l-4.67.47-.47-1.63,8.57-6.42,3.38,4.26-.41,2.86-6.42.47ZM392.99,202.17l-5.25,2.62-2.33-3.56-1.92-6.42v-4.96l2.16-.93,8.52,6.36-1.17,6.88ZM1010.66,180.41l-.58,4.72,3.5-1.22,4.08,5.02v5.19l-4.67,3.32-8.17,1.63-3.5,3.09-1.17-3.09,5.83-18.66h4.67ZM379.69,192.72l-.7,4.26,2.86,4.02-3.32,3.79-2.16-1.4-1.4-4.55-6.42-3.03-4.26,1.63-.7-4.72,2.86-2.39-.7-4.02-4.78-1.17.47-4.26,4.78-.99,10.91,9.04,2.57,3.79ZM744.7,170.67l4.08,7.58v5.19l8.17,5.02-.58,2.57-5.25.99-1.75,2.57v5.48l-2.33,1.17v7.35l-1.75.47-1.75,11.14-2.33,1.69-6.42-8.11-1.75-5.19,1.75-3.32v-3.09l4.08-5.42-1.75-4.26-2.33,4.49-4.67.93-3.5-5.89-1.17-5.72-2.33-8.75,1.75-4.78,5.83,1.69,1.17,3.32,2.92-5.48,3.5-.47,2.92-3.79,3.5,2.62ZM981.5,171.37l-3.5,3.56-4.67-3.09v-3.79l5.83.47,2.33,2.86ZM993.75,165.95l1.17,4.72,4.08-2.62,2.33,4.72-1.17,8.57,1.17,4.96-4.08,3.09-4.67-.93-1.75-2.39-4.67-.93-2.33-3.32v-3.56l-2.33-2.62,4.67-8.52,7.58-1.17ZM867.76,162.63v4.49l-4.67-.23,1.17-4.02,3.5-.23ZM775.03,167.12l-.58,4.72-4.67,3.79,1.17,1.92-7.58,5.42-2.92-3.79-5.83.47-6.42-5.66-1.75-3.32.58-4.72,10.5-.47,1.75,3.5v-6.36l7,.23,3.5,2.62,5.25,1.63ZM840.93,154.11l-8.17,6.59-2.33-3.79,10.5-2.8ZM884.1,154.34l-4.08,7.35-5.25-3.09,1.17-5.02,6.42-1.4,1.75,2.16ZM843.27,165.48l-3.5.93v-3.56l4.67-5.95-1.17-2.8,5.25-2.16,2.33,3.32-2.33,3.79-4.08.93-1.17,5.48ZM890.51,155.28l-3.5.93-2.33-3.09,8.17-5.89.58,4.26-2.92,3.79ZM423.32,175.63l2.1,6.18-4.26,2.86-5.19,9.45-7.58,4.96-5.72-.7-2.33-3.56-4.02-8.75,2.57-2.62,3.79-.93-2.33-2.86-2.62,1.69h-4.26l-5.25-14.23,3.79-5.42-1.17-3.32,2.62-8.57,5.89-1.4,3.32-2.86,4.26,13.07,9.97,2.57.47,4.32,2.86,9.45,3.09.7ZM988.5,164.96l-7,4.02-1.17-4.72-5.83-.47,4.08-4.26-.58-5.19,1.75-4.32,5.25-2.33,2.92-3.56,2.92,6.88,1.75,5.42v8.28l-4.08.23ZM549.59,124.25v3.27l-6.12-7.58-2.39-5.66,4.49-.7,6.18,6.36-2.16,4.32ZM477.33,106.22l14.23,3.09,2.16,6.36,4.72,2.39,1.17,4.72-3.79,5.72-6.88,6.59-.47,6.42-8.98,9.97-5.48,9.68-4.72,5.25-.7,6.36-6.42,4.32-4.26,4.96-.93,10.44-2.62,7.12-7.12,5.19-.93,5.95-3.32,2.1,1.17,4.26,3.09-.47.23,3.79-8.75,6.88-1.92-4.96-4.49,2.1-4.72-.93-3.09,2.16-6.88-1.69-5.42-.47-1.17-5.42,5.89-6.88-1.4-6.88,2.57-1.17,3.09,1.63,1.69,4.72,3.79,2.39-2.16-7.12-2.86-3.79-4.26-1.4v-4.32l2.86-6.36,5.72-.7,1.17-1.92-.47-7.12-2.86-5.19-3.56-1.22v-9.45l8.52.93,9.97-3.79-.93-3.56-4.26,1.69-4.32-3.79-2.1,4.72-5.48-.47-6.36-2.86-3.56-3.09-3.32-6.36,1.63-3.09-6.36-6.65,4.72-5.72,5.42-3.79h5.72l6.65-8.98,5.19,5.19,2.62-10.15,8.52-7.82,3.79,3.03,6.88-5.19,7.12,3.09,4.72-4.26,12.31,3.79ZM608.39,95.08l4.72,12.31,10.21,6.88-3.32,6.88-8.28,4.26-8.05-.93-4.26,4.26,12.07.47-.93,5.19,3.79.7.47-6.36,5.42-1.69,1.46,6.88,3.27,4.26,6.42.93,6.42-8.52h5.89l8.57,7.58-8.05,12.83-6.42,4.72,1.63,3.32-5.89,13.24-3.32.47-2.16,5.48.7,5.66-4.26,8.11-3.32,13.94,3.09-3.79,3.32,3.79-1.17,3.09,2.33,2.16h4.08l.7,5.42-.7,2.16-4.78-2.16-3.79,1.46-1.87,2.8v2.62l6.12,4.26.76,10.67-3.32.93-.99,4.26,2.16,2.16,3.09,2.1-1.46,2.39h-1.63l-.7-2.1h-4.02l-1.69,4.02,4.26,2.33.52,4.72h-3.09l-1.69,2.62-3.79-1.63-1.63-2.16-4.26,1.17-2.16,3.09,3.32,1.69,1.63,6.88,6.18,4.96.23,4.26,1.92,1.87.7,5.48-2.62,2.62h-2.86l-3.03-3.56v-2.86l-1.69-2.16-2.1-.47-.52,1.69-2.57,2.1-4.26.47-1.22,5.25,4.26-.99,1.69,2.62,2.1-1.63h2.16l4.26,2.33,1.46,2.16-2.16,3.09-8.28,7.58-8.57,2.57-.7,1.46-5.19,1.17-2.86-.47-4.02,4.72-.23,2.16-1.87,2.1-.29,2.16-2.1,3.32-2.62.47-5.19,3.56-2.86-1.4v2.57l-5.19.47.47,2.62-2.62,4.26-.93,7.12-2.86,5.72h-2.1l.7,5.42-2.16,5.19v4.32l-.7,2.8-3.09-.7-1.63,1.17-1.69-1.17-2.57-4.26-4.32-.47-3.79-1.69-3.56-5.19-1.63-4.72-2.62-3.32-1.17-3.56.47-3.32-2.1-1.63v-5.95l-3.56-4.26-.76-4.02.76-2.86-1.69-4.72,1.46-3.32.23-4.26h2.1l.93-3.09,3.32-.47v-4.72l.99-5.02-1.22-3.03-2.1.47-4.02-3.09-2.39-.23-1.87-2.62,1.87-1.63,4.49,1.17,2.16,2.1,4.02,1.22-2.16-4.49-2.1-1.92-2.62-4.96-3.56-1.69-.23,2.39-2.62.93-3.56-2.57.99-4.32,2.1-1.63-.47-2.62,1.4-3.79-2.57-2.57.47-3.32-2.16-3.09-.93-4.26v-5.02l-2.16-3.03v-2.16l-2.57.47-.47-3.09-1.22-.7.47-4.02-2.57-2.86-2.16-2.57-3.32-2.62h-9.45l-2.16-.7-1.17,2.1-2.16.23-.47-2.1-1.4-1.17-1.69,4.26-4.96-1.69-4.02-3.56,2.16-2.8-5.48-3.09-2.1-2.86,1.17-2.62,5.19-.47,2.62-1.63h4.96l-.7-4.78-1.4,2.16-5.02,1.17-3.56-1.63-1.17-3.32-3.79-1.4-3.09-4.32.99-5.42,9.68-4.72,1.46-2.62,4.49-2.39h3.56l4.72-6.36v-9.97h-6.42l-1.87-4.72,2.57-4.26,4.78-4.26,1.17-4.32,5.72-4.49,4.26,2.86,2.1-1.63.47-6.42-1.4-7.35,8.05-6.42,12.83-5.89,5.19,11.14,10.67-1.22-3.79-5.66-1.46-7.58h4.78l6.36,7.58,8.05,4.26.99-5.95,2.57-2.1-8.05-17.56,9.74-5.42,3.79,1.17,4.26,5.89,4.72.52,1.22-12.37,19.19-5.19,8.52,1.4,11.61,5.48Z"/>
</svg>